<svg xmlns="http://www.w3.org/2000/svg" xmlns:xlink="http://www.w3.org/1999/xlink" width="1000" zoomAndPan="magnify" viewBox="0 0 750 749.999995" height="1000" preserveAspectRatio="xMidYMid meet" version="1.0"><defs><clipPath id="91260b9742"><path d="M 23.871094 169 L 575 169 L 575 725.871094 L 23.871094 725.871094 Z M 23.871094 169 " clip-rule="nonzero"/></clipPath><clipPath id="c6f16439ea"><path d="M 120 23.871094 L 725.871094 23.871094 L 725.871094 617 L 120 617 Z M 120 23.871094 " clip-rule="nonzero"/></clipPath><clipPath id="9304417ac9"><path d="M 154 612 L 575 612 L 575 725.871094 L 154 725.871094 Z M 154 612 " clip-rule="nonzero"/></clipPath><clipPath id="687baa4f70"><path d="M 583 155 L 725.871094 155 L 725.871094 617 L 583 617 Z M 583 155 " clip-rule="nonzero"/></clipPath></defs><g clip-path="url(#91260b9742)"><path fill="#4d8bce" d="M 571.976562 665.351562 C 515.761719 703.554688 447.917969 725.871094 374.871094 725.871094 C 181.027344 725.871094 23.871094 568.714844 23.871094 374.871094 C 23.871094 301.824219 35.972656 229.628906 84.386719 169.113281 L 217.527344 314.351562 L 166.9375 390.285156 C 154.125 409.480469 156.628906 435.007812 172.988281 451.367188 L 298.371094 576.753906 C 314.730469 593.109375 340.261719 595.617188 359.457031 582.804688 L 435.386719 532.214844 C 435.386719 532.214844 571.976562 656.652344 573.207031 657.789062 C 574.433594 658.921875 574.859375 663.367188 571.976562 665.351562 " fill-opacity="1" fill-rule="nonzero"/><path fill="#5498d7" d="M 571.976562 665.351562 C 515.761719 703.554688 447.917969 725.871094 374.871094 725.871094 C 181.027344 725.871094 23.871094 568.714844 23.871094 374.871094 C 23.871094 301.824219 35.972656 229.628906 84.386719 169.113281 L 217.527344 314.351562 L 166.9375 390.285156 C 154.125 409.480469 156.628906 435.007812 172.988281 451.367188 L 298.371094 576.753906 C 314.730469 593.109375 340.261719 595.617188 359.457031 582.804688 L 435.386719 532.214844 C 435.386719 532.214844 571.976562 656.652344 573.207031 657.789062 C 574.433594 658.921875 574.859375 663.367188 571.976562 665.351562 " fill-opacity="1" fill-rule="nonzero"/></g><path fill="#5498d7" d="M 300.832031 394.398438 L 348.441406 362.671875 C 364.988281 351.65625 374.871094 333.171875 374.871094 313.265625 C 374.871094 280.5 348.203125 253.835938 315.488281 253.835938 L 301.113281 253.835938 C 268.398438 253.835938 241.730469 280.5 241.730469 313.265625 L 265.9375 313.265625 C 265.9375 293.835938 281.730469 278.042969 301.113281 278.042969 L 315.488281 278.042969 C 334.871094 278.042969 350.664062 293.835938 350.664062 313.265625 C 350.664062 325.039062 344.800781 336.007812 335.015625 342.53125 L 287.402344 374.253906 C 258.800781 393.355469 241.730469 425.222656 241.730469 459.59375 C 241.730469 466.308594 247.167969 471.699219 253.835938 471.699219 L 374.871094 471.699219 L 374.871094 447.492188 L 266.886719 447.492188 C 270.195312 425.980469 282.390625 406.738281 300.832031 394.398438 " fill-opacity="1" fill-rule="nonzero"/><path fill="#5498d7" d="M 544.320312 399.078125 L 508.007812 399.078125 L 508.007812 253.835938 L 483.800781 253.835938 L 483.800781 399.078125 L 413.167969 399.078125 L 435.246094 255.679688 L 411.324219 251.992188 L 387.117188 409.335938 C 386.59375 412.835938 387.589844 416.382812 389.90625 419.078125 C 392.175781 421.769531 395.53125 423.285156 399.078125 423.285156 L 483.800781 423.285156 L 483.800781 471.699219 L 508.007812 471.699219 L 508.007812 423.285156 L 544.320312 423.285156 L 544.320312 399.078125 " fill-opacity="1" fill-rule="nonzero"/><path fill="#8dd5d8" d="M 386.972656 157.007812 L 362.765625 157.007812 L 362.765625 108.59375 L 386.972656 108.59375 L 386.972656 157.007812 " fill-opacity="1" fill-rule="nonzero"/><path fill="#8dd5d8" d="M 255.441406 192.230469 L 231.238281 150.34375 L 252.226562 138.238281 L 276.433594 180.128906 L 255.441406 192.230469 " fill-opacity="1" fill-rule="nonzero"/><path fill="#8dd5d8" d="M 641.144531 386.972656 L 592.730469 386.972656 L 592.730469 362.765625 L 641.144531 362.765625 L 641.144531 386.972656 " fill-opacity="1" fill-rule="nonzero"/><path fill="#8dd5d8" d="M 569.613281 276.433594 L 557.507812 255.445312 L 599.398438 231.238281 L 611.503906 252.226562 L 569.613281 276.433594 " fill-opacity="1" fill-rule="nonzero"/><path fill="#8dd5d8" d="M 494.296875 192.230469 L 473.304688 180.128906 L 497.511719 138.238281 L 518.503906 150.34375 L 494.296875 192.230469 " fill-opacity="1" fill-rule="nonzero"/><g clip-path="url(#c6f16439ea)"><path fill="#8dd5d8" d="M 157.007812 169.113281 C 212.042969 112 289.296875 72.285156 374.871094 72.285156 C 542 72.285156 677.457031 207.738281 677.457031 374.871094 C 677.457031 432.363281 643.320312 513.730469 643.320312 513.730469 L 604.835938 483.800781 L 592.730469 616.9375 L 713.765625 568.527344 L 681.949219 543.796875 L 682.328125 544.320312 C 710.078125 494.0625 725.871094 436.332031 725.871094 374.871094 C 725.871094 181.027344 568.714844 23.871094 374.871094 23.871094 C 274.875 23.871094 184.621094 65.710938 120.699219 132.800781 L 157.007812 169.113281 " fill-opacity="1" fill-rule="nonzero"/></g><g clip-path="url(#9304417ac9)"><path fill="#4d8bce" d="M 523.609375 612.636719 C 380.402344 671.925781 255.019531 671.546875 154.503906 648 C 214.734375 696.652344 291.375 725.871094 374.871094 725.871094 C 447.917969 725.871094 515.761719 703.554688 571.976562 665.351562 C 574.90625 663.367188 574.433594 658.921875 573.207031 657.789062 C 572.734375 657.363281 550.277344 636.890625 523.609375 612.636719 " fill-opacity="1" fill-rule="nonzero"/></g><path fill="#71aad9" d="M 217.527344 314.351562 L 84.386719 169.113281 C 70.628906 186.273438 59.898438 204.429688 51.480469 223.246094 L 184.429688 363.996094 L 217.527344 314.351562 " fill-opacity="1" fill-rule="nonzero"/><path fill="#71aad9" d="M 571.976562 665.351562 C 574.90625 663.367188 574.433594 658.921875 573.207031 657.789062 C 571.976562 656.652344 435.386719 532.214844 435.386719 532.214844 L 383.332031 566.917969 L 524.128906 692.492188 C 540.820312 684.644531 556.847656 675.660156 571.976562 665.351562 " fill-opacity="1" fill-rule="nonzero"/><path fill="#5498d7" d="M 520.300781 609.609375 L 458.789062 634.195312 L 524.128906 692.492188 C 540.820312 684.644531 556.847656 675.660156 571.976562 665.351562 C 574.90625 663.367188 574.433594 658.921875 573.207031 657.789062 C 572.6875 657.316406 548.382812 635.1875 520.300781 609.609375 " fill-opacity="1" fill-rule="nonzero"/><g clip-path="url(#687baa4f70)"><path fill="#73c1c6" d="M 666.441406 179.417969 C 638.027344 169.441406 610.367188 161.640625 583.558594 155.875 C 641.382812 211 677.457031 288.726562 677.457031 374.871094 C 677.457031 432.363281 643.320312 513.730469 643.320312 513.730469 L 604.835938 483.800781 L 592.730469 616.9375 L 713.765625 568.527344 L 682.421875 544.128906 C 682.375 544.175781 682.375 544.269531 682.328125 544.320312 L 681.949219 543.796875 L 682.421875 544.128906 C 710.125 493.964844 725.871094 436.238281 725.871094 374.871094 C 725.871094 302.535156 703.980469 235.300781 666.441406 179.417969 " fill-opacity="1" fill-rule="nonzero"/></g><path fill="#73c1c6" d="M 682.328125 544.320312 C 682.375 544.269531 682.375 544.175781 682.421875 544.128906 L 681.949219 543.796875 L 682.328125 544.320312 " fill-opacity="1" fill-rule="nonzero"/></svg>