<svg xmlns="http://www.w3.org/2000/svg" xmlns:xlink="http://www.w3.org/1999/xlink" width="50" zoomAndPan="magnify" viewBox="0 0 37.5 37.499999" height="50" preserveAspectRatio="xMidYMid meet" version="1.0"><defs><clipPath id="17bab8b98b"><path d="M 0 13.199219 L 37.007812 13.199219 L 37.007812 25.949219 L 0 25.949219 Z M 0 13.199219 " clip-rule="nonzero"/></clipPath></defs><g clip-path="url(#17bab8b98b)"><path fill="#ffffff" d="M 0.800781 13.628906 C 0.800781 13.734375 0.761719 13.820312 0.6875 13.894531 C 0.609375 13.96875 0.519531 14.007812 0.414062 14.007812 C 0.308594 14.007812 0.214844 13.96875 0.140625 13.894531 C 0.0664062 13.820312 0.0273438 13.730469 0.0273438 13.628906 C 0.0273438 13.523438 0.0664062 13.433594 0.140625 13.359375 C 0.21875 13.285156 0.308594 13.25 0.414062 13.25 C 0.519531 13.25 0.613281 13.285156 0.6875 13.359375 C 0.761719 13.433594 0.800781 13.523438 0.800781 13.628906 Z M 4.488281 13.25 C 4.382812 13.25 4.292969 13.285156 4.214844 13.359375 C 4.140625 13.433594 4.101562 13.523438 4.101562 13.628906 C 4.101562 13.730469 4.140625 13.820312 4.214844 13.894531 C 4.289062 13.96875 4.382812 14.007812 4.488281 14.007812 C 4.59375 14.007812 4.683594 13.96875 4.761719 13.894531 C 4.835938 13.820312 4.871094 13.734375 4.871094 13.628906 C 4.871094 13.523438 4.835938 13.433594 4.761719 13.359375 C 4.683594 13.285156 4.59375 13.25 4.488281 13.25 Z M 8.5625 13.25 C 8.457031 13.25 8.363281 13.285156 8.289062 13.359375 C 8.214844 13.433594 8.175781 13.523438 8.175781 13.628906 C 8.175781 13.734375 8.214844 13.820312 8.289062 13.894531 C 8.363281 13.96875 8.457031 14.007812 8.5625 14.007812 C 8.667969 14.007812 8.757812 13.96875 8.835938 13.894531 C 8.910156 13.820312 8.945312 13.734375 8.945312 13.628906 C 8.945312 13.523438 8.910156 13.433594 8.835938 13.359375 C 8.757812 13.285156 8.667969 13.25 8.5625 13.25 Z M 12.636719 13.25 C 12.53125 13.25 12.441406 13.285156 12.367188 13.359375 C 12.289062 13.433594 12.253906 13.523438 12.253906 13.628906 C 12.253906 13.734375 12.289062 13.820312 12.367188 13.894531 C 12.441406 13.96875 12.53125 14.007812 12.636719 14.007812 C 12.746094 14.007812 12.835938 13.96875 12.910156 13.894531 C 12.984375 13.820312 13.023438 13.734375 13.023438 13.628906 C 13.023438 13.523438 12.984375 13.433594 12.910156 13.359375 C 12.835938 13.285156 12.746094 13.25 12.636719 13.25 Z M 16.710938 13.25 C 16.605469 13.25 16.515625 13.285156 16.441406 13.359375 C 16.363281 13.433594 16.328125 13.523438 16.328125 13.628906 C 16.328125 13.734375 16.363281 13.820312 16.441406 13.894531 C 16.515625 13.96875 16.605469 14.007812 16.710938 14.007812 C 16.816406 14.007812 16.910156 13.96875 16.984375 13.894531 C 17.058594 13.820312 17.097656 13.734375 17.097656 13.628906 C 17.097656 13.523438 17.058594 13.433594 16.984375 13.359375 C 16.90625 13.285156 16.816406 13.25 16.710938 13.25 Z M 20.785156 13.25 C 20.675781 13.25 20.585938 13.285156 20.511719 13.359375 C 20.4375 13.433594 20.398438 13.523438 20.398438 13.628906 C 20.398438 13.730469 20.433594 13.820312 20.511719 13.894531 C 20.585938 13.96875 20.675781 14.007812 20.78125 14.007812 C 20.890625 14.007812 20.980469 13.96875 21.054688 13.894531 C 21.128906 13.820312 21.167969 13.734375 21.167969 13.628906 C 21.167969 13.523438 21.128906 13.433594 21.054688 13.359375 C 20.980469 13.285156 20.890625 13.25 20.785156 13.25 Z M 24.859375 13.25 C 24.753906 13.25 24.660156 13.289062 24.585938 13.363281 C 24.511719 13.4375 24.476562 13.523438 24.476562 13.628906 C 24.476562 13.734375 24.515625 13.824219 24.589844 13.898438 C 24.664062 13.96875 24.757812 14.007812 24.863281 14.007812 C 24.96875 14.007812 25.058594 13.96875 25.132812 13.894531 C 25.207031 13.820312 25.246094 13.730469 25.246094 13.628906 C 25.246094 13.523438 25.207031 13.433594 25.132812 13.359375 C 25.054688 13.285156 24.964844 13.25 24.859375 13.25 Z M 28.929688 13.25 C 28.824219 13.25 28.734375 13.285156 28.660156 13.359375 C 28.582031 13.433594 28.546875 13.523438 28.546875 13.628906 C 28.546875 13.734375 28.582031 13.820312 28.660156 13.894531 C 28.734375 13.96875 28.824219 14.007812 28.929688 14.007812 C 29.039062 14.007812 29.128906 13.96875 29.203125 13.894531 C 29.277344 13.820312 29.316406 13.734375 29.316406 13.628906 C 29.316406 13.523438 29.277344 13.433594 29.203125 13.359375 C 29.128906 13.285156 29.039062 13.25 28.929688 13.25 Z M 33.003906 13.25 C 32.898438 13.25 32.808594 13.285156 32.734375 13.359375 C 32.65625 13.433594 32.621094 13.523438 32.621094 13.628906 C 32.621094 13.734375 32.65625 13.820312 32.734375 13.894531 C 32.808594 13.96875 32.898438 14.007812 33.003906 14.007812 C 33.113281 14.007812 33.203125 13.96875 33.277344 13.894531 C 33.351562 13.820312 33.390625 13.734375 33.390625 13.628906 C 33.390625 13.523438 33.351562 13.433594 33.277344 13.359375 C 33.203125 13.285156 33.113281 13.25 33.003906 13.25 Z M 37.078125 14.007812 C 37.1875 14.007812 37.277344 13.96875 37.351562 13.894531 C 37.425781 13.820312 37.464844 13.730469 37.464844 13.625 C 37.464844 13.523438 37.425781 13.433594 37.351562 13.359375 C 37.277344 13.285156 37.183594 13.246094 37.078125 13.246094 C 36.972656 13.25 36.882812 13.285156 36.804688 13.359375 C 36.730469 13.433594 36.695312 13.523438 36.695312 13.628906 C 36.695312 13.730469 36.730469 13.820312 36.808594 13.894531 C 36.882812 13.96875 36.972656 14.007812 37.078125 14.007812 Z M 0.414062 17.125 C 0.308594 17.125 0.21875 17.164062 0.140625 17.238281 C 0.0664062 17.308594 0.0273438 17.398438 0.0273438 17.503906 C 0.0273438 17.609375 0.0664062 17.699219 0.140625 17.773438 C 0.214844 17.847656 0.308594 17.882812 0.414062 17.882812 C 0.519531 17.882812 0.609375 17.847656 0.6875 17.773438 C 0.761719 17.699219 0.800781 17.609375 0.800781 17.503906 C 0.800781 17.402344 0.761719 17.3125 0.6875 17.238281 C 0.613281 17.164062 0.519531 17.125 0.414062 17.125 Z M 4.488281 17.125 C 4.382812 17.125 4.292969 17.164062 4.214844 17.238281 C 4.140625 17.308594 4.101562 17.398438 4.101562 17.503906 C 4.101562 17.609375 4.140625 17.699219 4.214844 17.773438 C 4.289062 17.847656 4.382812 17.882812 4.488281 17.882812 C 4.59375 17.882812 4.683594 17.847656 4.761719 17.773438 C 4.835938 17.699219 4.871094 17.609375 4.871094 17.503906 C 4.871094 17.402344 4.835938 17.3125 4.761719 17.238281 C 4.683594 17.164062 4.59375 17.125 4.488281 17.125 Z M 8.5625 17.125 C 8.457031 17.125 8.363281 17.164062 8.289062 17.238281 C 8.214844 17.3125 8.175781 17.402344 8.175781 17.503906 C 8.175781 17.609375 8.214844 17.699219 8.289062 17.773438 C 8.363281 17.847656 8.457031 17.882812 8.5625 17.882812 C 8.667969 17.882812 8.757812 17.847656 8.835938 17.773438 C 8.910156 17.699219 8.945312 17.609375 8.945312 17.503906 C 8.945312 17.402344 8.910156 17.3125 8.835938 17.238281 C 8.757812 17.164062 8.667969 17.125 8.5625 17.125 Z M 12.636719 17.125 C 12.53125 17.125 12.441406 17.164062 12.367188 17.238281 C 12.289062 17.3125 12.253906 17.402344 12.253906 17.503906 C 12.253906 17.609375 12.289062 17.699219 12.367188 17.773438 C 12.441406 17.847656 12.53125 17.882812 12.636719 17.882812 C 12.746094 17.882812 12.835938 17.847656 12.910156 17.773438 C 12.984375 17.699219 13.023438 17.609375 13.023438 17.503906 C 13.023438 17.402344 12.984375 17.3125 12.910156 17.238281 C 12.835938 17.164062 12.746094 17.125 12.636719 17.125 Z M 16.710938 17.125 C 16.605469 17.125 16.515625 17.164062 16.441406 17.238281 C 16.363281 17.3125 16.328125 17.402344 16.328125 17.503906 C 16.328125 17.609375 16.363281 17.699219 16.441406 17.773438 C 16.515625 17.847656 16.605469 17.882812 16.710938 17.882812 C 16.816406 17.882812 16.910156 17.847656 16.984375 17.773438 C 17.058594 17.699219 17.097656 17.609375 17.097656 17.503906 C 17.097656 17.398438 17.058594 17.3125 16.984375 17.238281 C 16.90625 17.164062 16.816406 17.125 16.710938 17.125 Z M 20.785156 17.125 C 20.679688 17.125 20.589844 17.164062 20.511719 17.238281 C 20.4375 17.308594 20.398438 17.398438 20.398438 17.503906 C 20.398438 17.609375 20.4375 17.699219 20.511719 17.773438 C 20.585938 17.847656 20.679688 17.882812 20.785156 17.882812 C 20.890625 17.882812 20.980469 17.847656 21.058594 17.773438 C 21.132812 17.699219 21.171875 17.609375 21.171875 17.503906 C 21.171875 17.398438 21.132812 17.3125 21.058594 17.238281 C 20.980469 17.164062 20.890625 17.125 20.785156 17.125 Z M 24.859375 17.125 C 24.753906 17.125 24.664062 17.164062 24.585938 17.238281 C 24.511719 17.308594 24.472656 17.398438 24.472656 17.503906 C 24.472656 17.609375 24.511719 17.699219 24.585938 17.773438 C 24.660156 17.847656 24.753906 17.882812 24.859375 17.882812 C 24.964844 17.882812 25.054688 17.847656 25.132812 17.773438 C 25.207031 17.699219 25.246094 17.609375 25.246094 17.503906 C 25.246094 17.398438 25.207031 17.3125 25.132812 17.238281 C 25.054688 17.164062 24.964844 17.125 24.859375 17.125 Z M 28.933594 17.125 C 28.828125 17.125 28.734375 17.164062 28.660156 17.238281 C 28.585938 17.3125 28.546875 17.402344 28.546875 17.503906 C 28.546875 17.609375 28.585938 17.699219 28.660156 17.773438 C 28.734375 17.847656 28.828125 17.882812 28.933594 17.882812 C 29.039062 17.882812 29.128906 17.847656 29.207031 17.773438 C 29.28125 17.699219 29.316406 17.609375 29.316406 17.503906 C 29.320312 17.398438 29.28125 17.3125 29.203125 17.238281 C 29.128906 17.164062 29.039062 17.125 28.929688 17.125 Z M 33.007812 17.125 C 32.902344 17.125 32.808594 17.164062 32.734375 17.238281 C 32.660156 17.3125 32.621094 17.402344 32.621094 17.503906 C 32.621094 17.609375 32.660156 17.699219 32.734375 17.773438 C 32.808594 17.847656 32.902344 17.882812 33.007812 17.882812 C 33.113281 17.882812 33.203125 17.847656 33.28125 17.773438 C 33.355469 17.699219 33.390625 17.609375 33.390625 17.503906 C 33.390625 17.398438 33.355469 17.3125 33.277344 17.238281 C 33.203125 17.164062 33.113281 17.125 33.003906 17.125 Z M 37.082031 17.125 C 36.976562 17.125 36.882812 17.160156 36.808594 17.234375 C 36.730469 17.308594 36.691406 17.394531 36.691406 17.5 C 36.6875 17.605469 36.726562 17.695312 36.800781 17.769531 C 36.875 17.84375 36.964844 17.882812 37.070312 17.882812 C 37.179688 17.886719 37.269531 17.847656 37.347656 17.773438 C 37.421875 17.703125 37.460938 17.613281 37.460938 17.507812 C 37.460938 17.402344 37.425781 17.3125 37.351562 17.238281 C 37.277344 17.164062 37.183594 17.128906 37.078125 17.125 Z M 0.414062 21.007812 C 0.308594 21.007812 0.21875 21.042969 0.140625 21.117188 C 0.0664062 21.191406 0.0273438 21.28125 0.0273438 21.386719 C 0.0273438 21.488281 0.0664062 21.578125 0.140625 21.652344 C 0.214844 21.726562 0.304688 21.765625 0.410156 21.765625 C 0.515625 21.765625 0.609375 21.730469 0.683594 21.65625 C 0.757812 21.585938 0.796875 21.496094 0.800781 21.390625 C 0.800781 21.285156 0.761719 21.195312 0.6875 21.121094 C 0.613281 21.046875 0.523438 21.007812 0.414062 21.007812 Z M 4.488281 21.007812 C 4.382812 21.007812 4.292969 21.042969 4.214844 21.117188 C 4.140625 21.191406 4.101562 21.28125 4.101562 21.386719 C 4.101562 21.492188 4.140625 21.582031 4.214844 21.65625 C 4.289062 21.730469 4.382812 21.765625 4.488281 21.765625 C 4.59375 21.765625 4.683594 21.730469 4.761719 21.65625 C 4.835938 21.582031 4.875 21.492188 4.871094 21.386719 C 4.871094 21.28125 4.835938 21.191406 4.761719 21.121094 C 4.683594 21.046875 4.59375 21.007812 4.488281 21.007812 Z M 8.5625 21.007812 C 8.457031 21.007812 8.363281 21.046875 8.289062 21.117188 C 8.214844 21.191406 8.175781 21.28125 8.175781 21.386719 C 8.175781 21.492188 8.214844 21.578125 8.289062 21.652344 C 8.363281 21.726562 8.453125 21.765625 8.558594 21.765625 C 8.664062 21.765625 8.757812 21.730469 8.832031 21.65625 C 8.90625 21.585938 8.945312 21.496094 8.945312 21.390625 C 8.949219 21.285156 8.910156 21.195312 8.835938 21.121094 C 8.761719 21.046875 8.667969 21.007812 8.5625 21.007812 Z M 12.636719 21.007812 C 12.53125 21.007812 12.4375 21.046875 12.363281 21.121094 C 12.289062 21.195312 12.25 21.28125 12.25 21.386719 C 12.25 21.492188 12.289062 21.582031 12.363281 21.65625 C 12.4375 21.730469 12.53125 21.765625 12.636719 21.765625 C 12.742188 21.765625 12.832031 21.730469 12.910156 21.65625 C 12.984375 21.582031 13.019531 21.492188 13.019531 21.386719 C 13.019531 21.28125 12.984375 21.195312 12.910156 21.121094 C 12.832031 21.046875 12.742188 21.007812 12.636719 21.007812 Z M 16.710938 21.007812 C 16.605469 21.007812 16.511719 21.046875 16.4375 21.121094 C 16.363281 21.195312 16.324219 21.28125 16.324219 21.386719 C 16.324219 21.492188 16.363281 21.582031 16.4375 21.65625 C 16.511719 21.730469 16.605469 21.765625 16.710938 21.765625 C 16.816406 21.765625 16.90625 21.730469 16.984375 21.65625 C 17.058594 21.582031 17.09375 21.492188 17.09375 21.386719 C 17.09375 21.28125 17.058594 21.191406 16.980469 21.117188 C 16.90625 21.046875 16.816406 21.007812 16.710938 21.007812 Z M 20.785156 21.007812 C 20.675781 21.007812 20.585938 21.042969 20.511719 21.117188 C 20.4375 21.191406 20.398438 21.28125 20.398438 21.386719 C 20.398438 21.492188 20.433594 21.582031 20.511719 21.65625 C 20.585938 21.730469 20.675781 21.765625 20.785156 21.765625 C 20.890625 21.765625 20.980469 21.730469 21.054688 21.65625 C 21.132812 21.582031 21.167969 21.492188 21.167969 21.386719 C 21.167969 21.28125 21.128906 21.191406 21.054688 21.121094 C 20.980469 21.046875 20.890625 21.007812 20.785156 21.007812 Z M 24.859375 21.007812 C 24.753906 21.007812 24.660156 21.046875 24.585938 21.121094 C 24.511719 21.195312 24.476562 21.285156 24.476562 21.386719 C 24.476562 21.492188 24.511719 21.582031 24.589844 21.65625 C 24.664062 21.730469 24.753906 21.765625 24.859375 21.765625 C 24.964844 21.765625 25.054688 21.730469 25.132812 21.65625 C 25.207031 21.585938 25.246094 21.496094 25.246094 21.390625 C 25.246094 21.285156 25.210938 21.195312 25.132812 21.121094 C 25.058594 21.042969 24.964844 21.007812 24.859375 21.007812 Z M 28.929688 21.007812 C 28.824219 21.007812 28.734375 21.046875 28.660156 21.121094 C 28.582031 21.195312 28.546875 21.28125 28.546875 21.386719 C 28.546875 21.492188 28.582031 21.582031 28.660156 21.65625 C 28.734375 21.730469 28.824219 21.765625 28.933594 21.765625 C 29.039062 21.765625 29.128906 21.730469 29.203125 21.65625 C 29.277344 21.582031 29.316406 21.492188 29.316406 21.386719 C 29.316406 21.28125 29.277344 21.191406 29.203125 21.117188 C 29.128906 21.046875 29.039062 21.007812 28.929688 21.007812 Z M 33.003906 21.007812 C 32.898438 21.007812 32.808594 21.046875 32.734375 21.121094 C 32.65625 21.195312 32.621094 21.28125 32.621094 21.386719 C 32.621094 21.492188 32.65625 21.582031 32.734375 21.65625 C 32.808594 21.730469 32.898438 21.765625 33.007812 21.765625 C 33.113281 21.765625 33.203125 21.730469 33.277344 21.65625 C 33.351562 21.582031 33.390625 21.492188 33.390625 21.386719 C 33.390625 21.28125 33.351562 21.191406 33.277344 21.117188 C 33.203125 21.046875 33.113281 21.007812 33.003906 21.007812 Z M 37.078125 21.007812 C 36.972656 21.007812 36.882812 21.042969 36.804688 21.117188 C 36.730469 21.191406 36.691406 21.277344 36.691406 21.382812 C 36.6875 21.488281 36.726562 21.578125 36.800781 21.652344 C 36.875 21.726562 36.964844 21.765625 37.070312 21.765625 C 37.179688 21.765625 37.269531 21.730469 37.34375 21.65625 C 37.421875 21.585938 37.460938 21.496094 37.460938 21.390625 C 37.460938 21.285156 37.425781 21.195312 37.351562 21.121094 C 37.277344 21.046875 37.1875 21.007812 37.078125 21.007812 Z M 0.414062 24.886719 C 0.308594 24.886719 0.21875 24.921875 0.140625 24.996094 C 0.0664062 25.070312 0.0273438 25.160156 0.0273438 25.261719 C 0.0273438 25.367188 0.0664062 25.457031 0.140625 25.53125 C 0.214844 25.605469 0.304688 25.644531 0.410156 25.644531 C 0.515625 25.644531 0.609375 25.609375 0.683594 25.535156 C 0.757812 25.460938 0.796875 25.371094 0.800781 25.269531 C 0.800781 25.164062 0.761719 25.074219 0.6875 25 C 0.613281 24.925781 0.519531 24.886719 0.414062 24.886719 Z M 4.488281 24.886719 C 4.382812 24.886719 4.292969 24.921875 4.214844 24.996094 C 4.140625 25.070312 4.101562 25.160156 4.101562 25.265625 C 4.101562 25.367188 4.140625 25.457031 4.214844 25.53125 C 4.289062 25.605469 4.382812 25.644531 4.488281 25.644531 C 4.59375 25.644531 4.683594 25.605469 4.761719 25.53125 C 4.835938 25.457031 4.871094 25.371094 4.871094 25.265625 C 4.871094 25.160156 4.835938 25.070312 4.761719 25 C 4.683594 24.925781 4.59375 24.886719 4.488281 24.886719 Z M 8.5625 24.886719 C 8.457031 24.886719 8.363281 24.921875 8.289062 24.996094 C 8.214844 25.070312 8.175781 25.160156 8.175781 25.261719 C 8.175781 25.367188 8.214844 25.457031 8.289062 25.53125 C 8.363281 25.605469 8.453125 25.644531 8.558594 25.644531 C 8.664062 25.644531 8.757812 25.609375 8.832031 25.535156 C 8.90625 25.460938 8.945312 25.371094 8.945312 25.269531 C 8.949219 25.164062 8.910156 25.074219 8.835938 25 C 8.757812 24.925781 8.667969 24.886719 8.5625 24.886719 Z M 12.636719 24.886719 C 12.53125 24.886719 12.4375 24.921875 12.363281 24.996094 C 12.289062 25.070312 12.25 25.160156 12.25 25.265625 C 12.25 25.371094 12.289062 25.457031 12.363281 25.53125 C 12.4375 25.605469 12.53125 25.644531 12.636719 25.644531 C 12.742188 25.644531 12.832031 25.605469 12.910156 25.53125 C 12.984375 25.457031 13.019531 25.371094 13.019531 25.265625 C 13.019531 25.160156 12.984375 25.070312 12.910156 25 C 12.832031 24.925781 12.742188 24.886719 12.636719 24.886719 Z M 16.710938 24.886719 C 16.605469 24.886719 16.511719 24.921875 16.4375 24.996094 C 16.363281 25.070312 16.324219 25.160156 16.324219 25.265625 C 16.324219 25.371094 16.363281 25.457031 16.4375 25.53125 C 16.511719 25.605469 16.605469 25.644531 16.710938 25.644531 C 16.816406 25.644531 16.90625 25.605469 16.980469 25.53125 C 17.058594 25.457031 17.09375 25.371094 17.09375 25.265625 C 17.09375 25.160156 17.058594 25.070312 16.980469 24.996094 C 16.90625 24.925781 16.816406 24.886719 16.710938 24.886719 Z M 20.785156 24.886719 C 20.675781 24.886719 20.585938 24.921875 20.511719 24.996094 C 20.4375 25.070312 20.398438 25.160156 20.398438 25.265625 C 20.398438 25.367188 20.433594 25.457031 20.511719 25.53125 C 20.585938 25.605469 20.675781 25.644531 20.78125 25.644531 C 20.890625 25.644531 20.980469 25.605469 21.054688 25.53125 C 21.128906 25.457031 21.167969 25.371094 21.167969 25.265625 C 21.167969 25.160156 21.128906 25.070312 21.054688 25 C 20.980469 24.925781 20.890625 24.886719 20.785156 24.886719 Z M 24.859375 24.886719 C 24.753906 24.886719 24.660156 24.925781 24.585938 24.996094 C 24.511719 25.070312 24.476562 25.160156 24.476562 25.265625 C 24.476562 25.371094 24.511719 25.457031 24.589844 25.53125 C 24.664062 25.605469 24.753906 25.644531 24.859375 25.644531 C 24.964844 25.644531 25.054688 25.609375 25.132812 25.535156 C 25.207031 25.460938 25.246094 25.371094 25.246094 25.269531 C 25.246094 25.164062 25.210938 25.074219 25.132812 25 C 25.058594 24.921875 24.964844 24.886719 24.859375 24.886719 Z M 28.929688 24.886719 C 28.824219 24.886719 28.734375 24.921875 28.660156 24.996094 C 28.582031 25.070312 28.546875 25.160156 28.546875 25.265625 C 28.546875 25.371094 28.582031 25.457031 28.660156 25.53125 C 28.734375 25.605469 28.824219 25.644531 28.929688 25.644531 C 29.039062 25.644531 29.128906 25.605469 29.203125 25.53125 C 29.277344 25.457031 29.316406 25.371094 29.316406 25.265625 C 29.316406 25.160156 29.277344 25.070312 29.203125 24.996094 C 29.128906 24.925781 29.039062 24.886719 28.929688 24.886719 Z M 33.003906 24.886719 C 32.898438 24.886719 32.808594 24.921875 32.734375 24.996094 C 32.65625 25.070312 32.621094 25.160156 32.621094 25.265625 C 32.621094 25.371094 32.65625 25.457031 32.734375 25.53125 C 32.808594 25.605469 32.898438 25.644531 33.003906 25.644531 C 33.113281 25.644531 33.203125 25.605469 33.277344 25.53125 C 33.351562 25.457031 33.390625 25.371094 33.390625 25.265625 C 33.390625 25.160156 33.351562 25.070312 33.277344 24.996094 C 33.203125 24.925781 33.109375 24.886719 33.003906 24.886719 Z M 37.078125 24.886719 C 36.972656 24.882812 36.882812 24.921875 36.804688 24.992188 C 36.730469 25.066406 36.691406 25.15625 36.691406 25.261719 C 36.6875 25.367188 36.726562 25.453125 36.800781 25.53125 C 36.875 25.605469 36.964844 25.640625 37.070312 25.644531 C 37.179688 25.644531 37.269531 25.609375 37.34375 25.535156 C 37.421875 25.460938 37.460938 25.375 37.460938 25.269531 C 37.460938 25.164062 37.425781 25.074219 37.351562 25 C 37.277344 24.925781 37.183594 24.886719 37.078125 24.886719 Z M 0.414062 28.769531 C 0.308594 28.765625 0.21875 28.804688 0.140625 28.878906 C 0.0664062 28.953125 0.0273438 29.042969 0.0273438 29.144531 C 0.0273438 29.25 0.0664062 29.339844 0.140625 29.414062 C 0.214844 29.488281 0.308594 29.527344 0.414062 29.527344 C 0.519531 29.527344 0.613281 29.488281 0.6875 29.414062 C 0.761719 29.339844 0.800781 29.25 0.800781 29.144531 C 0.796875 29.042969 0.761719 28.953125 0.6875 28.878906 C 0.609375 28.804688 0.519531 28.769531 0.414062 28.769531 Z M 4.488281 28.769531 C 4.382812 28.765625 4.292969 28.804688 4.214844 28.878906 C 4.140625 28.953125 4.101562 29.042969 4.101562 29.144531 C 4.101562 29.25 4.140625 29.339844 4.214844 29.414062 C 4.289062 29.488281 4.382812 29.527344 4.488281 29.527344 C 4.59375 29.527344 4.683594 29.488281 4.761719 29.414062 C 4.835938 29.339844 4.875 29.25 4.871094 29.144531 C 4.871094 29.042969 4.835938 28.953125 4.761719 28.878906 C 4.683594 28.804688 4.59375 28.769531 4.488281 28.769531 Z M 8.5625 28.769531 C 8.457031 28.769531 8.363281 28.804688 8.289062 28.878906 C 8.214844 28.953125 8.175781 29.042969 8.175781 29.148438 C 8.175781 29.25 8.214844 29.339844 8.289062 29.414062 C 8.363281 29.488281 8.457031 29.527344 8.5625 29.527344 C 8.667969 29.527344 8.757812 29.488281 8.835938 29.414062 C 8.910156 29.339844 8.949219 29.25 8.945312 29.144531 C 8.945312 29.042969 8.910156 28.953125 8.832031 28.878906 C 8.757812 28.804688 8.667969 28.769531 8.5625 28.769531 Z M 12.636719 28.769531 C 12.53125 28.769531 12.4375 28.804688 12.363281 28.878906 C 12.289062 28.953125 12.25 29.042969 12.25 29.148438 C 12.25 29.25 12.289062 29.339844 12.363281 29.414062 C 12.4375 29.488281 12.53125 29.527344 12.636719 29.527344 C 12.742188 29.527344 12.832031 29.488281 12.910156 29.414062 C 12.984375 29.339844 13.019531 29.25 13.019531 29.144531 C 13.019531 29.042969 12.984375 28.953125 12.910156 28.878906 C 12.832031 28.804688 12.742188 28.769531 12.636719 28.769531 Z M 16.710938 28.769531 C 16.605469 28.769531 16.511719 28.804688 16.4375 28.878906 C 16.363281 28.953125 16.324219 29.042969 16.324219 29.148438 C 16.324219 29.25 16.363281 29.339844 16.4375 29.414062 C 16.511719 29.488281 16.605469 29.527344 16.710938 29.527344 C 16.816406 29.527344 16.90625 29.488281 16.984375 29.414062 C 17.058594 29.339844 17.09375 29.25 17.09375 29.144531 C 17.09375 29.042969 17.058594 28.953125 16.980469 28.878906 C 16.90625 28.804688 16.816406 28.769531 16.710938 28.769531 Z M 20.785156 28.769531 C 20.675781 28.765625 20.585938 28.804688 20.511719 28.878906 C 20.4375 28.953125 20.398438 29.042969 20.398438 29.144531 C 20.398438 29.25 20.433594 29.339844 20.511719 29.414062 C 20.585938 29.488281 20.675781 29.527344 20.785156 29.527344 C 20.890625 29.527344 20.980469 29.488281 21.054688 29.414062 C 21.132812 29.339844 21.167969 29.25 21.167969 29.144531 C 21.167969 29.042969 21.128906 28.953125 21.054688 28.878906 C 20.980469 28.804688 20.890625 28.769531 20.785156 28.769531 Z M 24.859375 28.769531 C 24.75 28.769531 24.660156 28.804688 24.585938 28.878906 C 24.511719 28.953125 24.476562 29.042969 24.476562 29.148438 C 24.476562 29.253906 24.515625 29.34375 24.589844 29.417969 C 24.664062 29.488281 24.757812 29.527344 24.863281 29.527344 C 24.96875 29.523438 25.058594 29.488281 25.132812 29.414062 C 25.210938 29.339844 25.246094 29.25 25.246094 29.144531 C 25.246094 29.039062 25.207031 28.953125 25.132812 28.878906 C 25.054688 28.804688 24.964844 28.765625 24.859375 28.769531 Z M 28.929688 28.769531 C 28.824219 28.769531 28.734375 28.804688 28.660156 28.878906 C 28.582031 28.953125 28.546875 29.042969 28.546875 29.148438 C 28.546875 29.25 28.582031 29.339844 28.660156 29.414062 C 28.734375 29.488281 28.824219 29.527344 28.933594 29.527344 C 29.039062 29.527344 29.128906 29.488281 29.203125 29.414062 C 29.277344 29.339844 29.316406 29.25 29.316406 29.144531 C 29.316406 29.042969 29.277344 28.953125 29.203125 28.878906 C 29.128906 28.804688 29.039062 28.769531 28.929688 28.769531 Z M 33.003906 28.769531 C 32.898438 28.769531 32.808594 28.804688 32.734375 28.878906 C 32.65625 28.953125 32.621094 29.042969 32.621094 29.148438 C 32.621094 29.25 32.65625 29.339844 32.734375 29.414062 C 32.808594 29.488281 32.898438 29.527344 33.007812 29.527344 C 33.113281 29.527344 33.203125 29.488281 33.277344 29.414062 C 33.351562 29.339844 33.390625 29.25 33.390625 29.144531 C 33.390625 29.042969 33.351562 28.953125 33.277344 28.878906 C 33.203125 28.804688 33.113281 28.769531 33.003906 28.769531 Z M 37.078125 28.769531 C 36.972656 28.765625 36.882812 28.804688 36.804688 28.875 C 36.730469 28.949219 36.691406 29.039062 36.691406 29.144531 C 36.691406 29.25 36.726562 29.339844 36.800781 29.414062 C 36.878906 29.488281 36.96875 29.527344 37.074219 29.527344 C 37.179688 29.527344 37.273438 29.488281 37.347656 29.414062 C 37.421875 29.339844 37.460938 29.25 37.460938 29.144531 C 37.460938 29.042969 37.421875 28.953125 37.347656 28.878906 C 37.273438 28.804688 37.183594 28.769531 37.078125 28.769531 Z M 0.414062 32.644531 C 0.308594 32.644531 0.21875 32.679688 0.140625 32.753906 C 0.0664062 32.828125 0.0273438 32.917969 0.0273438 33.023438 C 0.0273438 33.128906 0.0664062 33.21875 0.140625 33.292969 C 0.214844 33.367188 0.308594 33.402344 0.414062 33.402344 C 0.519531 33.402344 0.613281 33.367188 0.6875 33.292969 C 0.761719 33.21875 0.800781 33.128906 0.800781 33.023438 C 0.796875 32.917969 0.761719 32.832031 0.683594 32.757812 C 0.609375 32.683594 0.519531 32.648438 0.414062 32.648438 Z M 4.488281 32.644531 C 4.382812 32.644531 4.292969 32.679688 4.214844 32.753906 C 4.140625 32.828125 4.101562 32.917969 4.101562 33.023438 C 4.101562 33.128906 4.140625 33.21875 4.214844 33.292969 C 4.289062 33.367188 4.382812 33.402344 4.488281 33.402344 C 4.59375 33.402344 4.683594 33.367188 4.761719 33.292969 C 4.835938 33.21875 4.871094 33.128906 4.871094 33.023438 C 4.871094 32.921875 4.835938 32.832031 4.761719 32.757812 C 4.683594 32.683594 4.59375 32.648438 4.488281 32.648438 Z M 8.5625 32.644531 C 8.457031 32.644531 8.363281 32.683594 8.289062 32.757812 C 8.214844 32.832031 8.175781 32.917969 8.175781 33.023438 C 8.175781 33.128906 8.214844 33.21875 8.289062 33.292969 C 8.363281 33.367188 8.457031 33.402344 8.5625 33.402344 C 8.667969 33.402344 8.757812 33.367188 8.835938 33.292969 C 8.910156 33.21875 8.949219 33.128906 8.945312 33.023438 C 8.945312 32.917969 8.910156 32.832031 8.832031 32.757812 C 8.757812 32.683594 8.667969 32.648438 8.5625 32.648438 Z M 12.636719 32.644531 C 12.53125 32.644531 12.4375 32.683594 12.363281 32.757812 C 12.289062 32.828125 12.25 32.917969 12.25 33.023438 C 12.25 33.128906 12.289062 33.21875 12.363281 33.292969 C 12.4375 33.367188 12.53125 33.402344 12.636719 33.402344 C 12.742188 33.402344 12.832031 33.367188 12.910156 33.292969 C 12.984375 33.21875 13.019531 33.128906 13.019531 33.023438 C 13.019531 32.921875 12.984375 32.832031 12.910156 32.757812 C 12.832031 32.683594 12.742188 32.648438 12.636719 32.648438 Z M 16.710938 32.644531 C 16.605469 32.644531 16.511719 32.683594 16.4375 32.757812 C 16.363281 32.828125 16.324219 32.917969 16.324219 33.023438 C 16.324219 33.128906 16.363281 33.21875 16.4375 33.292969 C 16.511719 33.367188 16.605469 33.402344 16.710938 33.402344 C 16.816406 33.402344 16.90625 33.367188 16.980469 33.292969 C 17.058594 33.21875 17.09375 33.128906 17.09375 33.023438 C 17.09375 32.917969 17.058594 32.832031 16.980469 32.757812 C 16.90625 32.683594 16.816406 32.648438 16.710938 32.648438 Z M 20.785156 32.644531 C 20.675781 32.644531 20.585938 32.679688 20.511719 32.753906 C 20.4375 32.828125 20.398438 32.917969 20.398438 33.023438 C 20.398438 33.128906 20.433594 33.21875 20.511719 33.292969 C 20.585938 33.367188 20.675781 33.402344 20.78125 33.402344 C 20.890625 33.402344 20.980469 33.367188 21.054688 33.292969 C 21.128906 33.21875 21.167969 33.128906 21.167969 33.023438 C 21.167969 32.921875 21.128906 32.832031 21.054688 32.757812 C 20.980469 32.683594 20.890625 32.648438 20.785156 32.648438 Z M 24.859375 32.644531 C 24.75 32.644531 24.660156 32.683594 24.585938 32.757812 C 24.511719 32.832031 24.476562 32.921875 24.476562 33.027344 C 24.476562 33.128906 24.515625 33.21875 24.589844 33.292969 C 24.664062 33.367188 24.757812 33.402344 24.863281 33.402344 C 24.96875 33.402344 25.058594 33.367188 25.132812 33.292969 C 25.210938 33.21875 25.246094 33.128906 25.246094 33.023438 C 25.246094 32.917969 25.207031 32.828125 25.132812 32.757812 C 25.054688 32.683594 24.964844 32.644531 24.859375 32.648438 Z M 28.929688 32.644531 C 28.824219 32.644531 28.734375 32.683594 28.660156 32.757812 C 28.582031 32.828125 28.546875 32.917969 28.546875 33.023438 C 28.546875 33.128906 28.582031 33.21875 28.660156 33.292969 C 28.734375 33.367188 28.824219 33.402344 28.929688 33.402344 C 29.039062 33.402344 29.128906 33.367188 29.203125 33.292969 C 29.277344 33.21875 29.316406 33.128906 29.316406 33.023438 C 29.316406 32.917969 29.277344 32.832031 29.203125 32.757812 C 29.128906 32.683594 29.039062 32.648438 28.929688 32.648438 Z M 33.003906 32.644531 C 32.898438 32.644531 32.808594 32.683594 32.734375 32.757812 C 32.65625 32.828125 32.621094 32.917969 32.621094 33.023438 C 32.621094 33.128906 32.65625 33.21875 32.734375 33.292969 C 32.808594 33.367188 32.898438 33.402344 33.003906 33.402344 C 33.113281 33.402344 33.203125 33.367188 33.277344 33.292969 C 33.351562 33.21875 33.390625 33.128906 33.390625 33.023438 C 33.390625 32.917969 33.351562 32.832031 33.277344 32.757812 C 33.203125 32.683594 33.109375 32.648438 33.003906 32.648438 Z M 37.078125 32.644531 C 36.972656 32.644531 36.882812 32.679688 36.804688 32.753906 C 36.730469 32.828125 36.691406 32.917969 36.691406 33.023438 C 36.691406 33.125 36.726562 33.214844 36.800781 33.289062 C 36.878906 33.367188 36.96875 33.402344 37.074219 33.402344 C 37.179688 33.402344 37.273438 33.367188 37.347656 33.292969 C 37.421875 33.21875 37.460938 33.128906 37.460938 33.023438 C 37.460938 32.917969 37.421875 32.832031 37.347656 32.757812 C 37.273438 32.683594 37.183594 32.648438 37.078125 32.648438 Z M 37.078125 32.644531 " fill-opacity="1" fill-rule="nonzero"/></g></svg>