<svg xmlns="http://www.w3.org/2000/svg" xmlns:xlink="http://www.w3.org/1999/xlink" width="50" zoomAndPan="magnify" viewBox="0 0 37.5 37.499999" height="50" preserveAspectRatio="xMidYMid meet" version="1.0"><defs><clipPath id="9bf5e73017"><path d="M 8.25 8.25 L 29.25 8.25 L 29.25 29.25 L 8.25 29.25 Z M 8.25 8.25 " clip-rule="nonzero"/></clipPath></defs><g clip-path="url(#9bf5e73017)"><path fill="#5271ff" d="M 16.648438 8.25 C 15.875 8.25 15.25 8.875 15.25 9.648438 L 15.25 15.25 L 9.648438 15.25 C 8.875 15.25 8.25 15.875 8.25 16.648438 L 8.25 20.851562 C 8.25 21.625 8.875 22.25 9.648438 22.25 L 15.25 22.25 L 15.25 27.851562 C 15.25 28.625 15.875 29.25 16.648438 29.25 L 20.851562 29.25 C 21.625 29.25 22.25 28.625 22.25 27.851562 L 22.25 22.25 L 27.851562 22.25 C 28.625 22.25 29.25 21.625 29.25 20.851562 L 29.25 16.648438 C 29.25 15.875 28.625 15.25 27.851562 15.25 L 22.25 15.25 L 22.25 9.648438 C 22.25 8.875 21.625 8.25 20.851562 8.25 Z M 16.648438 8.25 " fill-opacity="1" fill-rule="nonzero"/></g></svg>