<svg xmlns="http://www.w3.org/2000/svg" xmlns:xlink="http://www.w3.org/1999/xlink" width="50" zoomAndPan="magnify" viewBox="0 0 37.5 37.499999" height="50" preserveAspectRatio="xMidYMid meet" version="1.0"><defs><clipPath id="857b23e550"><path d="M 12 5.625 L 23 5.625 L 23 20 L 12 20 Z M 12 5.625 " clip-rule="nonzero"/></clipPath><clipPath id="5e92feefcb"><path d="M 14 18 L 23 18 L 23 31.875 L 14 31.875 Z M 14 18 " clip-rule="nonzero"/></clipPath><clipPath id="d5a1314c1d"><path d="M 16 19 L 23 19 L 23 31.875 L 16 31.875 Z M 16 19 " clip-rule="nonzero"/></clipPath><clipPath id="ef1968bc26"><path d="M 14 20 L 19 20 L 19 31.875 L 14 31.875 Z M 14 20 " clip-rule="nonzero"/></clipPath><clipPath id="8ed201fec7"><path d="M 19 19 L 24 19 L 24 31.875 L 19 31.875 Z M 19 19 " clip-rule="nonzero"/></clipPath><clipPath id="f2010f5985"><path d="M 8.136719 23 L 16 23 L 16 31.875 L 8.136719 31.875 Z M 8.136719 23 " clip-rule="nonzero"/></clipPath><clipPath id="c4232cadfc"><path d="M 8.136719 20 L 16 20 L 16 31 L 8.136719 31 Z M 8.136719 20 " clip-rule="nonzero"/></clipPath></defs><path fill="#271111" d="M 12.175781 7.652344 C 12.175781 7.652344 11.480469 7.464844 11.128906 7.914062 C 10.777344 8.367188 10.964844 8.972656 10.964844 8.972656 C 10.964844 8.972656 10.1875 8.726562 10.128906 9.210938 C 10.070312 9.695312 10.507812 9.910156 10.507812 9.910156 C 10.507812 9.910156 9.570312 9.929688 9.566406 10.773438 C 9.5625 11.617188 10.253906 11.816406 10.253906 11.816406 C 10.253906 11.816406 9.390625 11.933594 9.417969 12.433594 C 9.445312 12.929688 10 13.140625 10 13.140625 C 10 13.140625 9.261719 14.226562 9.976562 15.152344 C 10.691406 16.074219 11.402344 16.039062 11.402344 16.039062 C 11.402344 16.039062 10.953125 16.832031 11.25 17.003906 C 11.550781 17.179688 12.015625 16.980469 12.015625 16.980469 C 12.015625 16.980469 11.714844 17.6875 12.511719 18.246094 C 13.304688 18.800781 13.902344 18.167969 13.902344 18.167969 C 13.902344 18.167969 13.777344 19 14.710938 19.277344 C 15.644531 19.550781 16.039062 18.960938 16.039062 18.960938 C 16.039062 18.960938 16.445312 19.511719 17.125 19.382812 C 17.808594 19.257812 17.925781 18.925781 17.925781 18.925781 L 17.878906 17.789062 L 15.492188 8.980469 L 12.175781 7.652344 " fill-opacity="1" fill-rule="nonzero"/><g clip-path="url(#857b23e550)"><path fill="#271111" d="M 12.15625 7.9375 C 12.15625 7.9375 11.765625 7.070312 12.570312 6.84375 C 13.375 6.621094 13.546875 7.238281 13.546875 7.238281 C 13.546875 7.238281 13.632812 6.742188 13.964844 6.671875 C 14.300781 6.605469 14.46875 6.863281 14.46875 6.863281 C 14.46875 6.863281 14.4375 5.695312 15.652344 5.660156 C 16.867188 5.625 17.074219 6.621094 17.074219 6.621094 C 17.074219 6.621094 17.410156 6.179688 17.785156 6.210938 C 18.160156 6.238281 18.261719 6.867188 18.261719 6.867188 C 18.261719 6.867188 18.589844 6.25 19.585938 6.59375 C 20.582031 6.9375 20.28125 8.007812 20.28125 8.007812 C 20.28125 8.007812 20.96875 7.652344 21.25 8.324219 C 21.527344 8.992188 21.191406 9.394531 21.191406 9.394531 C 21.191406 9.394531 22.09375 9.394531 22.304688 10.453125 C 22.515625 11.511719 21.675781 11.695312 21.675781 11.695312 C 21.675781 11.695312 22.152344 12.015625 22.199219 12.253906 C 22.246094 12.492188 21.957031 12.8125 21.957031 12.8125 C 21.957031 12.8125 22.796875 12.882812 22.921875 13.960938 C 23.050781 15.039062 21.859375 15.078125 21.859375 15.078125 C 21.859375 15.078125 22.175781 15.230469 22.136719 15.488281 C 22.101562 15.742188 21.746094 15.78125 21.746094 15.78125 C 21.746094 15.78125 22.585938 16.21875 22.277344 17.105469 C 21.96875 17.988281 21.042969 17.859375 21.042969 17.859375 C 21.042969 17.859375 21.144531 18.152344 20.804688 18.488281 C 20.464844 18.824219 20.058594 18.53125 20.058594 18.53125 C 20.058594 18.53125 20.21875 19.011719 19.214844 19.347656 C 18.460938 19.601562 18.25 19.582031 18.191406 19.558594 C 18.171875 19.550781 18.167969 19.542969 18.171875 19.546875 C 18.171875 19.554688 17.539062 17.9375 17.539062 17.9375 L 12.15625 7.9375 " fill-opacity="1" fill-rule="nonzero"/></g><g clip-path="url(#5e92feefcb)"><path fill="#c95d41" d="M 18.328125 18.671875 C 18.328125 18.671875 18.390625 19.855469 18.628906 19.925781 C 18.867188 19.992188 20.480469 19.925781 20.480469 19.925781 C 20.480469 19.925781 22.515625 23.140625 22.683594 24.15625 C 22.855469 25.167969 21.867188 26.148438 21.714844 27.109375 C 21.585938 27.933594 22.019531 30.53125 22.039062 31.207031 C 22.042969 31.335938 21.964844 31.457031 21.84375 31.507812 C 21.5625 31.621094 20.886719 31.785156 19.292969 31.824219 C 17.488281 31.875 16.59375 31.753906 16.21875 31.679688 C 16.085938 31.652344 15.988281 31.539062 15.972656 31.402344 C 15.90625 30.738281 15.683594 28.691406 15.347656 27.1875 C 14.941406 25.367188 14.3125 21.367188 14.414062 20.921875 C 14.515625 20.472656 16.699219 20.25 16.785156 20.027344 C 16.867188 19.804688 16.640625 18.222656 16.640625 18.222656 L 18.328125 18.671875 " fill-opacity="1" fill-rule="nonzero"/></g><g clip-path="url(#d5a1314c1d)"><path fill="#59bdad" d="M 16.640625 20.011719 C 16.640625 20.011719 18.507812 22.0625 18.714844 21.960938 C 18.917969 21.855469 18.925781 19.820312 18.925781 19.820312 L 19.546875 20.0625 L 21.503906 24.863281 L 22.441406 31.835938 L 18.039062 31.835938 L 16.128906 20.800781 L 16.210938 20.246094 L 16.640625 20.011719 " fill-opacity="1" fill-rule="nonzero"/></g><path fill="#af4733" d="M 16.742188 19.015625 C 16.742188 19.015625 16.929688 19.351562 17.539062 19.449219 C 18.152344 19.546875 18.378906 19.203125 18.378906 19.203125 L 18.335938 18.796875 L 16.683594 18.535156 L 16.742188 19.015625 " fill-opacity="1" fill-rule="nonzero"/><path fill="#c95d41" d="M 19.199219 10.117188 C 19.199219 10.117188 19.898438 11.015625 20.117188 11.855469 C 20.339844 12.695312 20.230469 13.445312 20.3125 13.65625 C 20.390625 13.867188 21.007812 14.988281 20.820312 16.5 C 20.691406 17.523438 19.03125 19.230469 17.285156 18.742188 C 14.894531 18.074219 14.660156 16.339844 14.660156 16.339844 C 14.660156 16.339844 14.371094 16.863281 13.679688 16.652344 C 12.988281 16.4375 12.410156 15.394531 12.804688 14.953125 C 13.203125 14.507812 13.84375 14.808594 13.84375 14.808594 C 13.84375 14.808594 13.308594 13.425781 13.210938 12.246094 C 13.113281 11.066406 13.976562 9.164062 16.042969 8.984375 C 18.105469 8.800781 19.199219 10.117188 19.199219 10.117188 " fill-opacity="1" fill-rule="nonzero"/><path fill="#af4733" d="M 13.03125 15.621094 C 13.03125 15.621094 12.90625 15.160156 13.46875 15.234375 C 14.027344 15.308594 14.328125 16.03125 14.074219 16.179688 C 13.820312 16.328125 13.566406 16.066406 13.59375 15.8125 C 13.621094 15.5625 13.71875 15.550781 13.71875 15.550781 C 13.71875 15.550781 13.578125 15.371094 13.332031 15.359375 C 13.085938 15.347656 13.039062 15.539062 13.03125 15.621094 " fill-opacity="1" fill-rule="nonzero"/><path fill="#271111" d="M 14.480469 11.148438 C 14.480469 11.148438 15.378906 12.351562 16.785156 12.539062 C 18.1875 12.726562 18.746094 12.023438 18.746094 12.023438 C 18.746094 12.023438 18.519531 12.03125 18.023438 11.984375 C 17.523438 11.9375 17.308594 11.6875 17.308594 11.6875 C 17.308594 11.6875 17.839844 11.929688 18.859375 11.859375 C 19.878906 11.789062 20.695312 11.4375 20.695312 11.4375 L 20.363281 11.304688 C 20.363281 11.304688 19.808594 9.882812 18.378906 8.964844 C 16.953125 8.050781 14.65625 8.285156 13.59375 9.203125 C 12.527344 10.117188 11.835938 11.605469 12.199219 12.867188 C 12.5625 14.125 13.140625 14.742188 13.140625 14.742188 C 13.140625 14.742188 13.367188 14.949219 13.886719 15.0625 C 14.40625 15.179688 14.757812 14.9375 14.757812 14.9375 C 14.757812 14.9375 14.171875 14.445312 13.910156 13.679688 C 13.648438 12.910156 13.660156 12.683594 13.660156 12.683594 C 13.660156 12.683594 13.75 13.230469 14.046875 13.703125 C 14.339844 14.171875 14.488281 14.195312 14.488281 14.195312 C 14.488281 14.195312 14.203125 13.425781 14.214844 12.636719 C 14.226562 11.847656 14.480469 11.148438 14.480469 11.148438 " fill-opacity="1" fill-rule="nonzero"/><path fill="#2b1412" d="M 16.152344 14.058594 C 16.152344 14.058594 16.359375 13.964844 16.480469 14.289062 C 16.597656 14.613281 16.660156 14.898438 16.460938 14.964844 C 16.261719 15.03125 16.097656 14.636719 16.066406 14.378906 C 16.035156 14.121094 16.152344 14.058594 16.152344 14.058594 " fill-opacity="1" fill-rule="nonzero"/><path fill="#2b1412" d="M 19.449219 13.53125 C 19.449219 13.53125 19.667969 13.453125 19.753906 13.789062 C 19.84375 14.125 19.878906 14.410156 19.675781 14.460938 C 19.472656 14.507812 19.34375 14.097656 19.335938 13.835938 C 19.328125 13.578125 19.449219 13.53125 19.449219 13.53125 " fill-opacity="1" fill-rule="nonzero"/><path fill="#271111" d="M 15.394531 13.664062 C 15.394531 13.664062 15.429688 13.3125 15.824219 13.128906 C 16.222656 12.945312 16.246094 12.835938 16.070312 12.824219 C 15.890625 12.8125 15.363281 13.148438 15.394531 13.664062 " fill-opacity="1" fill-rule="nonzero"/><path fill="#271111" d="M 19.933594 12.792969 C 19.933594 12.792969 19.804688 12.460938 19.429688 12.398438 C 19.050781 12.332031 19 12.234375 19.140625 12.171875 C 19.285156 12.113281 19.808594 12.289062 19.933594 12.792969 " fill-opacity="1" fill-rule="nonzero"/><path fill="#560f15" d="M 18.386719 16.9375 C 18.34375 16.9375 18.300781 16.933594 18.25 16.929688 C 17.621094 16.855469 17.53125 16.25 17.53125 16.242188 C 17.523438 16.195312 17.558594 16.152344 17.605469 16.148438 C 17.652344 16.140625 17.695312 16.171875 17.699219 16.21875 C 17.703125 16.238281 17.773438 16.699219 18.273438 16.757812 C 18.742188 16.816406 18.921875 16.511719 18.925781 16.507812 C 18.949219 16.46875 19 16.453125 19.039062 16.476562 C 19.082031 16.503906 19.09375 16.554688 19.070312 16.597656 C 19.0625 16.609375 18.867188 16.9375 18.386719 16.9375 " fill-opacity="1" fill-rule="nonzero"/><path fill="#af4733" d="M 18.5625 14.871094 C 18.5625 14.871094 19.058594 14.917969 19.015625 15.230469 C 18.96875 15.546875 18.308594 15.414062 18.308594 15.414062 C 18.308594 15.414062 18.96875 15.800781 19.140625 15.410156 C 19.363281 14.894531 18.5625 14.871094 18.5625 14.871094 " fill-opacity="1" fill-rule="nonzero"/><path fill="#cdeee9" d="M 20.480469 19.925781 C 20.480469 19.925781 24.871094 22.175781 25.789062 21.386719 C 26.707031 20.597656 26.367188 16.839844 26.367188 16.839844 L 28.15625 16.5625 C 28.15625 16.5625 29.136719 22.15625 26.847656 23.472656 C 24.558594 24.785156 20.683594 22.824219 20.683594 22.824219 L 20.226562 20.960938 L 20.480469 19.925781 " fill-opacity="1" fill-rule="nonzero"/><path fill="#49201a" d="M 21.25 12.957031 C 21.296875 13.335938 21.300781 14.019531 20.820312 14.445312 C 20.128906 15.054688 19.226562 14.867188 18.921875 14.546875 C 18.617188 14.230469 18.917969 13.304688 19.617188 12.945312 C 20.132812 12.683594 20.609375 12.59375 20.925781 12.617188 C 21.089844 12.632812 21.226562 12.777344 21.25 12.957031 M 21.25 12.449219 C 21.085938 12.308594 20.3125 12.234375 19.453125 12.726562 C 18.59375 13.21875 18.519531 14.1875 18.519531 14.1875 L 18.242188 14.253906 L 18.308594 14.554688 L 18.578125 14.492188 C 18.578125 14.492188 19.117188 15.511719 20.523438 14.953125 C 21.933594 14.398438 21.46875 12.628906 21.25 12.449219 " fill-opacity="1" fill-rule="nonzero"/><path fill="#8d817f" d="M 20.660156 14.570312 C 20.519531 14.085938 20.351562 13.761719 20.3125 13.65625 C 20.261719 13.519531 20.285156 13.160156 20.253906 12.699219 C 20.464844 12.640625 20.660156 12.617188 20.820312 12.613281 C 20.820312 12.613281 20.824219 12.613281 20.824219 12.613281 C 20.859375 12.613281 20.890625 12.617188 20.925781 12.617188 C 21.089844 12.632812 21.226562 12.777344 21.25 12.957031 C 21.261719 13.046875 21.269531 13.15625 21.269531 13.273438 C 21.269531 13.648438 21.183594 14.121094 20.820312 14.445312 C 20.816406 14.449219 20.8125 14.449219 20.808594 14.453125 C 20.761719 14.496094 20.710938 14.535156 20.660156 14.570312 " fill-opacity="1" fill-rule="nonzero"/><path fill="#e3a796" d="M 19.773438 14.84375 C 19.410156 14.84375 19.089844 14.71875 18.929688 14.554688 C 18.929688 14.554688 18.925781 14.554688 18.925781 14.550781 C 18.925781 14.550781 18.921875 14.550781 18.921875 14.546875 C 18.839844 14.464844 18.804688 14.339844 18.804688 14.191406 C 18.804688 13.78125 19.101562 13.210938 19.617188 12.945312 C 19.839844 12.835938 20.054688 12.753906 20.253906 12.699219 C 20.285156 13.160156 20.261719 13.519531 20.3125 13.65625 C 20.351562 13.761719 20.519531 14.085938 20.660156 14.570312 C 20.371094 14.765625 20.058594 14.84375 19.773438 14.84375 M 19.503906 13.523438 C 19.472656 13.523438 19.449219 13.53125 19.449219 13.53125 C 19.449219 13.53125 19.328125 13.578125 19.335938 13.835938 C 19.339844 14.082031 19.457031 14.464844 19.640625 14.464844 C 19.652344 14.464844 19.664062 14.460938 19.675781 14.460938 C 19.878906 14.410156 19.84375 14.125 19.753906 13.789062 C 19.695312 13.558594 19.570312 13.523438 19.503906 13.523438 " fill-opacity="1" fill-rule="nonzero"/><path fill="#918380" d="M 19.640625 14.464844 C 19.457031 14.464844 19.339844 14.082031 19.335938 13.835938 C 19.328125 13.578125 19.449219 13.53125 19.449219 13.53125 C 19.449219 13.53125 19.472656 13.523438 19.503906 13.523438 C 19.570312 13.523438 19.695312 13.558594 19.753906 13.789062 C 19.84375 14.125 19.878906 14.410156 19.675781 14.460938 C 19.664062 14.460938 19.652344 14.464844 19.640625 14.464844 " fill-opacity="1" fill-rule="nonzero"/><path fill="#a08a84" d="M 19.773438 14.84375 L 19.773438 14.84375 M 19.773438 14.84375 C 20.058594 14.84375 20.371094 14.765625 20.660156 14.570312 C 20.710938 14.535156 20.761719 14.496094 20.808594 14.453125 C 20.484375 14.738281 20.109375 14.84375 19.773438 14.84375 M 18.929688 14.554688 C 18.929688 14.554688 18.925781 14.554688 18.925781 14.550781 C 18.925781 14.554688 18.929688 14.554688 18.929688 14.554688 M 18.921875 14.546875 C 18.839844 14.464844 18.804688 14.339844 18.804688 14.191406 C 18.804688 14.339844 18.839844 14.464844 18.921875 14.546875 M 20.820312 14.445312 C 21.183594 14.121094 21.269531 13.648438 21.269531 13.273438 C 21.269531 13.648438 21.183594 14.121094 20.820312 14.445312 M 19.617188 12.945312 C 20.078125 12.710938 20.507812 12.617188 20.820312 12.613281 C 20.660156 12.617188 20.464844 12.640625 20.253906 12.699219 C 20.054688 12.753906 19.839844 12.835938 19.617188 12.945312 " fill-opacity="1" fill-rule="nonzero"/><path fill="#49201a" d="M 14.601562 14.046875 C 14.941406 13.875 15.519531 13.726562 16.222656 13.710938 C 17.179688 13.695312 17.972656 14.375 17.789062 14.804688 C 17.605469 15.234375 16.695312 15.832031 15.625 15.621094 C 14.878906 15.472656 14.542969 14.859375 14.40625 14.503906 C 14.34375 14.332031 14.425781 14.136719 14.601562 14.046875 M 16.203125 15.929688 C 18.050781 15.75 18.144531 14.589844 18.144531 14.589844 L 18.476562 14.515625 L 18.402344 14.214844 L 18.058594 14.292969 C 18.058594 14.292969 17.5 13.464844 16.296875 13.4375 C 15.097656 13.410156 14.269531 13.847656 14.152344 14.050781 C 14 14.316406 14.355469 16.109375 16.203125 15.929688 " fill-opacity="1" fill-rule="nonzero"/><path fill="#e3a796" d="M 16.070312 15.664062 C 15.925781 15.664062 15.777344 15.648438 15.625 15.621094 C 15.164062 15.53125 14.863281 15.261719 14.664062 14.988281 C 14.726562 14.960938 14.757812 14.9375 14.757812 14.9375 C 14.757812 14.9375 14.625 14.828125 14.460938 14.628906 C 14.441406 14.585938 14.421875 14.542969 14.40625 14.503906 C 14.394531 14.464844 14.386719 14.421875 14.386719 14.382812 C 14.386719 14.308594 14.410156 14.238281 14.449219 14.179688 C 14.476562 14.191406 14.488281 14.195312 14.488281 14.195312 C 14.488281 14.195312 14.480469 14.179688 14.472656 14.148438 C 14.507812 14.109375 14.550781 14.074219 14.601562 14.046875 C 14.941406 13.875 15.519531 13.726562 16.222656 13.710938 C 16.234375 13.710938 16.246094 13.710938 16.257812 13.710938 C 17.105469 13.710938 17.816406 14.253906 17.816406 14.671875 C 17.816406 14.714844 17.808594 14.761719 17.789062 14.804688 C 17.632812 15.171875 16.941406 15.664062 16.070312 15.664062 M 16.222656 14.046875 C 16.179688 14.046875 16.152344 14.058594 16.152344 14.058594 C 16.152344 14.058594 16.035156 14.121094 16.066406 14.378906 C 16.09375 14.617188 16.238281 14.972656 16.417969 14.972656 C 16.429688 14.972656 16.445312 14.96875 16.460938 14.964844 C 16.660156 14.898438 16.597656 14.613281 16.480469 14.289062 C 16.402344 14.085938 16.292969 14.046875 16.222656 14.046875 " fill-opacity="1" fill-rule="nonzero"/><path fill="#8d817f" d="M 14.664062 14.988281 C 14.578125 14.867188 14.507812 14.742188 14.460938 14.628906 C 14.625 14.828125 14.757812 14.9375 14.757812 14.9375 C 14.757812 14.9375 14.726562 14.960938 14.664062 14.988281 M 14.488281 14.195312 C 14.488281 14.195312 14.476562 14.191406 14.449219 14.179688 C 14.457031 14.167969 14.464844 14.160156 14.472656 14.148438 C 14.480469 14.179688 14.488281 14.195312 14.488281 14.195312 " fill-opacity="1" fill-rule="nonzero"/><path fill="#918380" d="M 16.417969 14.972656 C 16.238281 14.972656 16.09375 14.617188 16.066406 14.378906 C 16.035156 14.121094 16.152344 14.058594 16.152344 14.058594 C 16.152344 14.058594 16.179688 14.046875 16.222656 14.046875 C 16.292969 14.046875 16.402344 14.085938 16.480469 14.289062 C 16.597656 14.613281 16.660156 14.898438 16.460938 14.964844 C 16.445312 14.96875 16.429688 14.972656 16.417969 14.972656 " fill-opacity="1" fill-rule="nonzero"/><path fill="#a08a84" d="M 16.070312 15.664062 C 15.925781 15.664062 15.777344 15.648438 15.625 15.621094 C 14.878906 15.472656 14.542969 14.859375 14.40625 14.503906 C 14.394531 14.464844 14.386719 14.421875 14.386719 14.382812 C 14.386719 14.421875 14.394531 14.464844 14.40625 14.503906 C 14.421875 14.542969 14.441406 14.585938 14.460938 14.628906 C 14.507812 14.742188 14.578125 14.867188 14.664062 14.988281 C 14.863281 15.261719 15.164062 15.53125 15.625 15.621094 C 15.777344 15.648438 15.925781 15.664062 16.070312 15.664062 C 16.941406 15.664062 17.632812 15.171875 17.789062 14.804688 C 17.808594 14.761719 17.816406 14.714844 17.816406 14.671875 C 17.816406 14.714844 17.808594 14.761719 17.789062 14.804688 C 17.632812 15.171875 16.941406 15.664062 16.070312 15.664062 " fill-opacity="1" fill-rule="nonzero"/><path fill="#49201a" d="M 13.140625 14.742188 L 14.253906 14.335938 L 14.320312 14.648438 L 13.40625 14.90625 C 13.40625 14.90625 13.1875 14.824219 13.140625 14.742188 " fill-opacity="1" fill-rule="nonzero"/><g clip-path="url(#ef1968bc26)"><path fill="#cdeee9" d="M 16.210938 20.246094 C 16.210938 20.246094 17.273438 22.445312 17.726562 26.039062 C 18.179688 29.636719 18.378906 31.835938 18.378906 31.835938 L 15.847656 31.835938 C 15.847656 31.835938 15.398438 27.601562 14.921875 25.402344 C 14.449219 23.203125 14.105469 21.144531 14.164062 20.902344 C 14.226562 20.664062 15.96875 20.203125 16.210938 20.246094 " fill-opacity="1" fill-rule="nonzero"/></g><g clip-path="url(#8ed201fec7)"><path fill="#cdeee9" d="M 19.199219 19.953125 C 19.199219 19.953125 20.402344 22.390625 20.988281 25.851562 C 21.578125 29.308594 21.601562 31.835938 21.601562 31.835938 L 23.074219 31.835938 C 23.074219 31.835938 22.484375 27.292969 22.484375 26.8125 C 22.484375 26.332031 23.046875 25.453125 22.824219 24.304688 C 22.605469 23.152344 20.480469 19.925781 20.480469 19.925781 L 19.199219 19.953125 " fill-opacity="1" fill-rule="nonzero"/></g><path fill="#9ec9c0" d="M 22.558594 23.542969 L 20.945312 20.730469 L 22.558594 22.917969 L 22.949219 22.425781 L 22.847656 23.035156 C 22.847656 23.035156 22.90625 23.253906 23.742188 23.542969 C 24.582031 23.835938 25.386719 23.902344 25.386719 23.902344 C 25.386719 23.902344 23.878906 24.167969 22.558594 23.542969 " fill-opacity="1" fill-rule="nonzero"/><path fill="#9ec9c0" d="M 14.640625 23.960938 C 14.640625 23.960938 15.460938 23.300781 15.46875 23.351562 C 15.472656 23.402344 15.105469 24.851562 15.105469 24.851562 L 15.515625 29.085938 L 14.640625 23.960938 " fill-opacity="1" fill-rule="nonzero"/><g clip-path="url(#f2010f5985)"><path fill="#c95d41" d="M 12.246094 25.214844 C 12.246094 25.214844 10.699219 26.429688 11.246094 27.09375 C 11.789062 27.753906 15.59375 28.457031 15.816406 29.09375 C 15.90625 29.355469 16.230469 31.695312 15.699219 31.742188 C 15.171875 31.785156 14.785156 31.167969 14.851562 30.972656 C 14.921875 30.777344 15.261719 31.078125 15.261719 31.078125 C 15.261719 31.078125 15.101562 30.652344 15.011719 30.367188 C 14.921875 30.082031 15.011719 29.828125 14.808594 29.839844 C 14.605469 29.851562 9.492188 29.324219 8.8125 27.46875 C 8.132812 25.613281 10.921875 23.460938 10.921875 23.460938 L 12.246094 25.214844 " fill-opacity="1" fill-rule="nonzero"/></g><g clip-path="url(#c4232cadfc)"><path fill="#cdeee9" d="M 14.402344 20.726562 C 14.402344 20.726562 13.894531 20.855469 12.074219 22.058594 C 10.257812 23.257812 8.613281 25.410156 8.648438 26.636719 C 8.679688 27.863281 9.019531 28.539062 10.867188 29.246094 C 12.714844 29.957031 14.832031 30.277344 14.832031 30.277344 L 15.242188 28.558594 C 15.242188 28.558594 12.316406 27.632812 11.820312 27.324219 C 11.320312 27.015625 11.128906 26.707031 11.421875 26.234375 C 11.71875 25.765625 12.421875 25.195312 13.542969 24.554688 C 14.664062 23.910156 14.800781 23.855469 14.800781 23.855469 L 14.402344 20.726562 " fill-opacity="1" fill-rule="nonzero"/></g><path fill="#c95d41" d="M 26.636719 16.796875 L 26.636719 16.542969 C 26.636719 16.542969 26.070312 15.988281 26.039062 15.738281 C 26.003906 15.484375 26.183594 14.972656 26.183594 14.972656 C 26.183594 14.972656 26.191406 13.082031 26.335938 12.65625 C 26.480469 12.234375 26.742188 12.191406 26.742188 12.792969 C 26.742188 13.390625 26.742188 14.238281 26.742188 14.238281 C 26.742188 14.238281 26.863281 13.988281 27.035156 13.992188 C 27.203125 13.996094 27.25 14.226562 27.25 14.226562 C 27.25 14.226562 27.34375 13.984375 27.53125 13.992188 C 27.71875 14.003906 27.742188 14.335938 27.742188 14.335938 C 27.742188 14.335938 27.761719 14.175781 28.023438 14.242188 C 28.285156 14.3125 28.226562 15.015625 28.203125 15.488281 C 28.175781 15.960938 27.816406 16.613281 27.816406 16.613281 L 26.636719 16.796875 " fill-opacity="1" fill-rule="nonzero"/><path fill="#af4733" d="M 26.183594 14.972656 C 26.183594 14.972656 26.570312 14.65625 26.742188 14.667969 C 26.910156 14.679688 27.5 15.347656 27.378906 15.515625 C 27.261719 15.679688 26.910156 15.398438 26.824219 15.269531 C 26.742188 15.136719 26.710938 14.90625 26.710938 14.90625 L 26.734375 15.285156 L 26.558594 15.515625 C 26.558594 15.515625 26.820312 15.503906 26.996094 15.628906 C 27.171875 15.753906 27.199219 15.886719 27.261719 15.839844 C 27.324219 15.792969 27.554688 15.496094 27.625 15.4375 C 27.691406 15.382812 27.945312 15.296875 27.945312 15.296875 L 28.101562 14.976562 C 28.101562 14.976562 27.902344 15.226562 27.777344 15.257812 C 27.652344 15.289062 27.636719 15.179688 27.652344 14.964844 C 27.667969 14.746094 27.714844 14.433594 27.714844 14.433594 C 27.714844 14.433594 27.605469 14.871094 27.535156 15.039062 C 27.460938 15.203125 27.234375 14.882812 27.234375 14.773438 C 27.234375 14.667969 27.238281 14.316406 27.238281 14.316406 C 27.238281 14.316406 27.171875 14.710938 27.128906 14.730469 C 27.085938 14.746094 26.855469 14.699219 26.808594 14.570312 C 26.761719 14.4375 26.71875 14.316406 26.71875 14.316406 L 26.59375 14.59375 L 26.1875 14.785156 L 26.183594 14.972656 " fill-opacity="1" fill-rule="nonzero"/><path fill="#f03f30" d="M 22.046875 22.9375 L 21.785156 23 L 21.710938 22.75 C 21.691406 22.695312 21.628906 22.660156 21.570312 22.671875 L 21.484375 22.6875 C 21.421875 22.699219 21.382812 22.757812 21.402344 22.8125 L 21.476562 23.070312 L 21.183594 23.140625 C 21.117188 23.15625 21.074219 23.21875 21.089844 23.277344 L 21.117188 23.363281 C 21.132812 23.421875 21.203125 23.457031 21.269531 23.441406 L 21.566406 23.363281 L 21.644531 23.628906 C 21.664062 23.6875 21.726562 23.71875 21.789062 23.699219 L 21.875 23.671875 C 21.933594 23.65625 21.96875 23.59375 21.953125 23.535156 L 21.871094 23.28125 L 22.132812 23.210938 C 22.1875 23.195312 22.21875 23.140625 22.203125 23.085938 L 22.179688 23.011719 C 22.160156 22.957031 22.101562 22.925781 22.046875 22.9375 " fill-opacity="1" fill-rule="nonzero"/><path fill="#261513" d="M 16.152344 20.484375 C 16.152344 20.484375 15.691406 21.484375 15.535156 22.527344 C 15.378906 23.570312 15.625 25.371094 15.625 25.371094 L 15.34375 25.425781 C 15.34375 25.425781 14.953125 23.8125 15.195312 22.460938 C 15.4375 21.105469 15.753906 20.574219 15.9375 20.324219 C 16.121094 20.074219 16.261719 20.136719 16.261719 20.136719 L 16.152344 20.484375 " fill-opacity="1" fill-rule="nonzero"/><path fill="#261513" d="M 15.539062 28.601562 L 15.773438 28.484375 C 15.769531 28.476562 15.109375 27.714844 14.976562 26.515625 C 14.902344 25.859375 15.171875 25.53125 15.421875 25.449219 C 15.671875 25.367188 15.984375 25.476562 16.214844 25.730469 C 16.796875 26.363281 16.753906 28.097656 16.753906 28.117188 L 17.027344 28.089844 C 17.027344 28.015625 17.070312 26.285156 16.449219 25.609375 C 16.148438 25.277344 15.722656 25.148438 15.34375 25.273438 C 14.871094 25.429688 14.628906 25.90625 14.703125 26.558594 C 14.84375 27.804688 15.507812 28.570312 15.539062 28.601562 " fill-opacity="1" fill-rule="nonzero"/><path fill="#261513" d="M 16.660156 28.148438 C 16.644531 28.0625 16.734375 27.96875 16.859375 27.945312 C 16.984375 27.917969 17.101562 27.96875 17.121094 28.058594 C 17.136719 28.144531 17.046875 28.234375 16.921875 28.261719 C 16.796875 28.285156 16.679688 28.234375 16.660156 28.148438 " fill-opacity="1" fill-rule="nonzero"/><path fill="#261513" d="M 15.4375 28.605469 C 15.417969 28.519531 15.507812 28.425781 15.632812 28.402344 C 15.761719 28.378906 15.875 28.425781 15.894531 28.515625 C 15.910156 28.601562 15.820312 28.691406 15.695312 28.71875 C 15.570312 28.742188 15.453125 28.691406 15.4375 28.605469 " fill-opacity="1" fill-rule="nonzero"/><path fill="#261513" d="M 19.957031 19.90625 C 19.957031 19.90625 21.683594 22.179688 22.03125 23.28125 C 22.378906 24.386719 22.34375 25.554688 22.34375 25.554688 L 22.050781 25.546875 C 22.050781 25.546875 21.941406 23.800781 21.589844 22.933594 C 21.238281 22.066406 20.191406 20.511719 20.191406 20.511719 L 19.957031 19.90625 " fill-opacity="1" fill-rule="nonzero"/><path fill="#5b4547" d="M 21.484375 26.226562 C 21.328125 25.847656 21.5 25.417969 21.871094 25.257812 C 22.242188 25.097656 22.671875 25.273438 22.828125 25.648438 C 22.988281 26.023438 22.8125 26.457031 22.441406 26.617188 C 22.070312 26.777344 21.640625 26.601562 21.484375 26.226562 " fill-opacity="1" fill-rule="nonzero"/><path fill="#ffffff" d="M 16.539062 20.171875 C 16.539062 20.171875 16.300781 20.273438 16.328125 20.335938 C 16.355469 20.398438 17.191406 22.304688 17.53125 24.234375 C 17.871094 26.167969 18.039062 28.632812 18.039062 28.625 C 18.039062 28.617188 16.457031 24.773438 16.550781 24.542969 C 16.640625 24.316406 17.09375 23.777344 17.09375 23.777344 C 17.09375 23.777344 16.210938 23.675781 16.117188 23.398438 C 16.027344 23.125 15.179688 20.71875 15.246094 20.355469 C 15.3125 19.988281 16.800781 19.777344 16.800781 19.777344 C 16.800781 19.777344 16.835938 19.964844 16.792969 20.042969 C 16.753906 20.121094 16.539062 20.171875 16.539062 20.171875 " fill-opacity="1" fill-rule="nonzero"/><path fill="#ffffff" d="M 18.457031 19.613281 C 18.457031 19.613281 18.476562 19.855469 18.605469 19.925781 C 18.738281 19.992188 19.128906 19.964844 19.183594 19.996094 C 19.234375 20.03125 20.046875 22.160156 20.480469 23.789062 C 20.914062 25.417969 21.316406 28.105469 21.316406 28.105469 C 21.316406 28.105469 21.375 23.949219 21.316406 23.695312 C 21.261719 23.445312 20.71875 23.25 20.71875 23.25 C 20.71875 23.25 21.058594 23.203125 21.136719 23.03125 C 21.214844 22.863281 20.007812 19.917969 19.898438 19.804688 C 19.789062 19.691406 18.917969 19.582031 18.457031 19.613281 " fill-opacity="1" fill-rule="nonzero"/><path fill="#261513" d="M 22.578125 25.9375 C 22.578125 25.703125 22.386719 25.511719 22.15625 25.511719 C 21.925781 25.511719 21.734375 25.703125 21.734375 25.9375 C 21.734375 26.171875 21.925781 26.363281 22.15625 26.363281 C 22.386719 26.363281 22.578125 26.171875 22.578125 25.9375 " fill-opacity="1" fill-rule="nonzero"/></svg>