<svg xmlns="http://www.w3.org/2000/svg" xmlns:xlink="http://www.w3.org/1999/xlink" width="50" zoomAndPan="magnify" viewBox="0 0 37.5 37.499999" height="50" preserveAspectRatio="xMidYMid meet" version="1.0"><defs><clipPath id="d6ee4c7697"><path d="M 5.625 10.164062 L 31.875 10.164062 L 31.875 28.914062 L 5.625 28.914062 Z M 5.625 10.164062 " clip-rule="nonzero"/></clipPath></defs><g clip-path="url(#d6ee4c7697)"><path fill="#8c52ff" d="M 31.464844 17.753906 L 31.460938 17.753906 L 27.152344 17.785156 C 26.976562 17.785156 26.824219 17.894531 26.769531 18.054688 L 25.355469 22.140625 L 23.632812 11.21875 C 23.597656 11.023438 23.433594 10.878906 23.238281 10.871094 C 23.039062 10.878906 22.867188 11.003906 22.824219 11.191406 L 20.132812 23.316406 L 18.210938 15.847656 C 18.164062 15.664062 17.992188 15.542969 17.800781 15.542969 C 17.605469 15.550781 17.445312 15.6875 17.410156 15.871094 L 15.492188 25.886719 L 13.421875 10.59375 C 13.394531 10.402344 13.234375 10.253906 13.035156 10.246094 C 12.84375 10.238281 12.664062 10.359375 12.617188 10.546875 L 10.675781 18.15625 L 6.035156 18.15625 C 5.808594 18.15625 5.625 18.335938 5.625 18.558594 C 5.625 18.78125 5.808594 18.964844 6.035156 18.964844 L 10.996094 18.964844 C 11.183594 18.964844 11.347656 18.835938 11.394531 18.65625 L 12.890625 12.789062 L 15.019531 28.480469 C 15.042969 28.679688 15.210938 28.824219 15.414062 28.832031 L 15.425781 28.832031 C 15.621094 28.832031 15.789062 28.695312 15.828125 28.503906 L 17.871094 17.820312 L 19.765625 25.175781 C 19.8125 25.355469 19.980469 25.496094 20.171875 25.476562 C 20.359375 25.476562 20.523438 25.34375 20.566406 25.160156 L 23.15625 13.476562 L 24.800781 23.886719 C 24.828125 24.070312 24.980469 24.207031 25.167969 24.226562 C 25.359375 24.246094 25.53125 24.128906 25.59375 23.953125 L 27.449219 18.589844 L 31.46875 18.558594 C 31.695312 18.558594 31.875 18.378906 31.875 18.152344 C 31.871094 17.933594 31.691406 17.753906 31.464844 17.753906 Z M 31.464844 17.753906 " fill-opacity="1" fill-rule="nonzero"/></g></svg>