<svg xmlns="http://www.w3.org/2000/svg" xmlns:xlink="http://www.w3.org/1999/xlink" width="1000" zoomAndPan="magnify" viewBox="0 0 750 749.999995" height="1000" preserveAspectRatio="xMidYMid meet" version="1.0"><path fill="#51a5bf" d="M 615.636719 225.253906 L 603.195312 453.808594 C 599.898438 501.949219 567.515625 543.492188 521.492188 557.886719 C 487.914062 568.386719 442.789062 576.933594 385.523438 576.933594 C 328.257812 576.933594 283.285156 568.386719 249.554688 557.886719 C 203.53125 543.492188 171.152344 501.949219 167.855469 453.808594 L 155.410156 225.253906 C 149.863281 145.472656 207.128906 75.136719 286.285156 64.335938 C 315.214844 60.289062 348.496094 57.738281 385.523438 57.738281 C 422.550781 57.738281 455.683594 60.4375 484.765625 64.335938 C 563.917969 75.136719 621.035156 145.472656 615.636719 225.253906 Z M 615.636719 225.253906 " fill-opacity="1" fill-rule="nonzero"/><path fill="#2d1a0e" d="M 428.847656 538.992188 C 431.398438 538.691406 433.496094 540.640625 433.496094 543.191406 L 433.496094 556.386719 C 433.496094 558.488281 431.847656 560.4375 429.75 560.585938 C 416.105469 562.085938 401.414062 562.835938 385.523438 562.835938 C 369.632812 562.835938 354.792969 561.9375 341.300781 560.585938 C 339.203125 560.289062 337.554688 558.488281 337.554688 556.386719 L 337.554688 543.191406 C 337.554688 540.640625 339.652344 538.691406 342.199219 538.992188 C 355.542969 540.34375 369.933594 541.242188 385.675781 541.242188 C 401.113281 541.242188 415.507812 540.34375 428.847656 538.992188 Z M 428.847656 538.992188 " fill-opacity="1" fill-rule="nonzero"/><path fill="#e1ddda" d="M 408.011719 540.640625 C 408.160156 540.941406 408.3125 541.390625 408.3125 541.691406 L 408.3125 733.953125 C 408.3125 736.054688 407.261719 738.003906 405.460938 738.902344 L 388.523438 748.800781 C 386.722656 749.851562 384.476562 749.851562 382.675781 748.800781 L 365.734375 738.902344 C 363.9375 737.851562 362.886719 735.902344 362.886719 733.953125 L 362.886719 541.691406 C 362.886719 541.242188 363.039062 540.941406 363.1875 540.640625 C 370.382812 540.941406 377.878906 541.242188 385.675781 541.242188 C 393.46875 541.242188 400.816406 540.941406 408.011719 540.640625 Z M 408.011719 540.640625 " fill-opacity="1" fill-rule="nonzero"/><path fill="#7acbea" d="M 618.1875 169.464844 L 605.59375 400.570312 C 602.296875 449.308594 569.617188 491.300781 522.992188 505.847656 C 488.964844 516.496094 443.390625 525.046875 385.523438 525.046875 C 327.660156 525.046875 282.085938 516.347656 248.054688 505.847656 C 201.433594 491.300781 168.753906 449.308594 165.453125 400.570312 L 152.710938 169.464844 C 147.164062 88.78125 205.179688 17.695312 285.234375 6.75 C 314.464844 2.699219 348.046875 0 385.523438 0 C 423.003906 0 456.582031 2.699219 485.816406 6.75 C 565.867188 17.695312 623.734375 88.78125 618.1875 169.464844 Z M 618.1875 169.464844 " fill-opacity="1" fill-rule="nonzero"/><path fill="#51a5bf" d="M 219.722656 182.0625 C 215.675781 124.476562 257.050781 73.933594 314.015625 65.988281 C 334.855469 63.136719 358.839844 61.1875 385.523438 61.1875 C 412.207031 61.1875 436.042969 63.136719 457.03125 65.988281 C 514.148438 73.785156 555.375 124.476562 551.324219 181.914062 L 551.324219 182.363281 C 547.578125 131.523438 508.902344 89.082031 457.03125 81.882812 C 436.195312 79.035156 412.207031 77.085938 385.523438 77.085938 C 358.839844 77.085938 335.003906 79.035156 314.015625 81.882812 C 262.148438 89.082031 223.46875 131.523438 219.722656 182.363281 Z M 530.9375 445.261719 L 530.9375 433.414062 L 528.988281 433.414062 C 524.941406 420.214844 515.046875 409.417969 502.457031 404.167969 C 496.609375 407.769531 490.3125 410.617188 483.566406 412.71875 C 475.320312 415.265625 459.878906 418.265625 446.539062 420.664062 C 443.390625 425.164062 441.140625 430.265625 439.792969 435.664062 L 438.441406 435.664062 L 438.441406 448.710938 C 439.34375 473.457031 459.730469 493.25 484.765625 493.25 C 510.402344 493.25 531.238281 472.40625 531.238281 446.761719 C 530.9375 446.460938 530.9375 445.859375 530.9375 445.261719 Z M 331.40625 435.8125 C 330.058594 430.265625 327.660156 425.164062 324.660156 420.664062 C 311.320312 418.265625 295.878906 415.265625 287.632812 412.71875 C 280.886719 410.617188 274.589844 407.769531 268.742188 404.167969 C 255.25 409.71875 245.058594 421.414062 241.460938 435.8125 L 240.109375 435.8125 C 240.109375 435.8125 240.109375 442.5625 240.109375 446.3125 C 240.109375 446.609375 240.109375 446.761719 240.109375 447.0625 C 240.109375 447.511719 240.109375 447.960938 240.109375 448.410156 C 240.109375 448.558594 240.109375 448.710938 240.109375 448.859375 C 241.011719 473.605469 261.398438 493.550781 286.433594 493.550781 C 311.46875 493.550781 331.855469 473.753906 332.753906 448.859375 L 332.753906 435.8125 Z M 331.40625 435.8125 " fill-opacity="1" fill-rule="nonzero"/><path fill="#e1ddda" d="M 485.066406 317.1875 L 285.984375 317.1875 C 279.238281 317.1875 273.839844 311.789062 273.839844 305.039062 L 273.839844 141.722656 C 273.839844 134.972656 279.238281 129.574219 285.984375 129.574219 L 485.066406 129.574219 C 491.8125 129.574219 497.207031 134.972656 497.207031 141.722656 L 497.207031 305.039062 C 497.207031 311.789062 491.8125 317.1875 485.066406 317.1875 Z M 502.304688 392.921875 C 496.457031 396.519531 490.164062 399.371094 483.417969 401.46875 C 475.171875 404.019531 459.730469 407.019531 446.386719 409.417969 C 441.292969 416.917969 438.144531 425.914062 438.144531 435.8125 C 438.144531 461.457031 458.980469 482.304688 484.617188 482.304688 C 510.25 482.304688 531.089844 461.457031 531.089844 435.8125 C 530.9375 416.464844 519.246094 399.96875 502.304688 392.921875 Z M 287.632812 401.46875 C 280.886719 399.371094 274.589844 396.519531 268.742188 392.921875 C 251.953125 399.96875 240.109375 416.464844 240.109375 435.8125 C 240.109375 461.457031 260.949219 482.304688 286.582031 482.304688 C 312.21875 482.304688 333.054688 461.457031 333.054688 435.8125 C 333.054688 426.066406 330.058594 416.917969 324.808594 409.417969 C 311.167969 407.167969 295.878906 404.167969 287.632812 401.46875 Z M 287.632812 401.46875 " fill-opacity="1" fill-rule="nonzero"/><path fill="#2d1a0e" d="M 457.332031 63.886719 C 434.246094 60.738281 410.109375 59.089844 385.523438 59.089844 C 361.089844 59.089844 336.804688 60.738281 313.71875 63.886719 C 255.703125 71.835938 213.425781 123.875 217.472656 182.214844 L 226.46875 295.589844 C 228.867188 331.132812 253.152344 362.027344 286.882812 372.527344 C 303.671875 377.773438 347.746094 384.375 349.695312 384.671875 L 349.84375 384.671875 C 355.691406 385.121094 359.441406 392.621094 363.335938 400.570312 C 368.285156 410.46875 373.832031 421.714844 385.375 421.714844 C 396.917969 421.714844 402.613281 410.46875 407.410156 400.570312 C 411.308594 392.621094 415.058594 385.121094 420.902344 384.671875 L 421.054688 384.671875 C 422.851562 384.375 467.074219 377.625 483.867188 372.527344 C 517.597656 362.027344 541.882812 331.132812 544.28125 295.589844 L 553.273438 182.0625 C 557.621094 123.726562 515.347656 71.835938 457.332031 63.886719 Z M 549.078125 181.761719 L 540.082031 295.289062 C 537.835938 329.035156 514.746094 358.277344 482.816406 368.328125 C 466.777344 373.273438 423.003906 380.023438 420.753906 380.324219 C 412.359375 380.921875 407.859375 389.921875 403.515625 398.621094 C 399.015625 407.769531 394.371094 417.214844 385.523438 417.214844 C 376.679688 417.214844 372.03125 407.769531 367.535156 398.621094 C 363.1875 389.921875 358.839844 380.921875 350.296875 380.324219 C 348.046875 380.023438 304.421875 373.273438 288.230469 368.328125 C 256.300781 358.429688 233.214844 329.035156 230.964844 295.289062 L 221.972656 181.914062 C 218.074219 125.824219 258.699219 75.886719 314.316406 68.238281 C 337.253906 65.085938 361.238281 63.4375 385.523438 63.4375 C 409.808594 63.4375 433.796875 65.085938 456.730469 68.238281 C 512.347656 75.886719 552.976562 125.824219 549.078125 181.761719 Z M 306.671875 209.058594 L 316.414062 199.308594 L 316.414062 224.65625 L 312.816406 228.40625 L 306.671875 222.253906 Z M 312.816406 232.003906 L 316.414062 235.601562 L 316.414062 260.949219 L 306.671875 251.199219 L 306.671875 238.003906 Z M 363.335938 208.910156 L 373.082031 199.308594 L 373.082031 224.65625 L 369.484375 228.40625 L 363.335938 222.253906 Z M 361.539062 253.148438 L 371.28125 262.898438 L 333.503906 262.898438 L 343.25 253.148438 Z M 335.304688 228.40625 L 331.707031 224.65625 L 331.707031 199.308594 L 341.449219 208.910156 L 341.449219 222.253906 Z M 341.449219 251.351562 L 331.707031 261.097656 L 331.707031 235.753906 L 335.304688 232.152344 L 341.449219 238.300781 Z M 343.25 207.109375 L 333.503906 197.359375 L 371.28125 197.359375 L 361.539062 207.109375 Z M 369.484375 232.003906 L 373.082031 235.601562 L 373.082031 260.949219 L 363.335938 251.199219 L 363.335938 238.003906 Z M 421.804688 232.003906 L 425.402344 235.601562 L 425.402344 260.949219 L 415.65625 251.199219 L 415.65625 238.003906 Z M 415.65625 209.058594 L 425.402344 199.308594 L 425.402344 224.65625 L 421.804688 228.40625 L 415.65625 222.253906 Z M 393.769531 222.253906 L 387.625 228.40625 L 384.023438 224.65625 L 384.023438 199.308594 L 393.769531 209.058594 Z M 420.003906 230.203125 L 415.207031 235.003906 L 394.519531 235.003906 L 389.722656 230.203125 L 394.519531 225.40625 L 415.207031 225.40625 Z M 439.941406 216.707031 L 439.941406 206.507812 L 438.894531 206.507812 C 438.59375 206.507812 438.441406 206.507812 438.292969 206.359375 C 438.144531 206.207031 438.144531 206.058594 438.144531 205.910156 C 438.144531 205.757812 438.144531 205.609375 438.292969 205.457031 C 438.441406 205.308594 438.59375 205.308594 438.894531 205.308594 L 441.140625 205.308594 L 441.140625 206.507812 C 442.191406 205.457031 443.242188 204.859375 444.289062 204.859375 C 444.890625 204.859375 445.488281 205.007812 445.9375 205.308594 C 446.386719 205.609375 446.839844 206.207031 447.136719 206.808594 C 447.738281 206.058594 448.1875 205.609375 448.785156 205.308594 C 449.386719 205.007812 449.835938 204.859375 450.4375 204.859375 C 451.335938 204.859375 452.085938 205.160156 452.535156 205.757812 C 453.285156 206.507812 453.585938 207.257812 453.585938 208.160156 L 453.585938 216.707031 L 454.632812 216.707031 C 454.933594 216.707031 455.082031 216.707031 455.234375 216.855469 C 455.382812 217.007812 455.382812 217.15625 455.382812 217.304688 C 455.382812 217.457031 455.382812 217.605469 455.234375 217.757812 C 455.082031 217.90625 454.933594 217.90625 454.632812 217.90625 L 452.386719 217.90625 L 452.386719 208.308594 C 452.386719 207.707031 452.234375 207.109375 451.785156 206.808594 C 451.335938 206.359375 451.035156 206.207031 450.4375 206.207031 C 449.984375 206.207031 449.535156 206.359375 449.085938 206.660156 C 448.636719 206.957031 448.039062 207.707031 447.4375 208.609375 L 447.4375 216.707031 L 448.488281 216.707031 C 448.785156 216.707031 448.9375 216.707031 449.085938 216.855469 C 449.238281 217.007812 449.238281 217.15625 449.238281 217.304688 C 449.238281 217.457031 449.238281 217.605469 449.085938 217.757812 C 448.9375 217.90625 448.785156 217.90625 448.488281 217.90625 L 446.238281 217.90625 L 446.238281 208.457031 C 446.238281 207.859375 446.089844 207.257812 445.640625 206.808594 C 445.1875 206.359375 444.890625 206.207031 444.289062 206.207031 C 443.839844 206.207031 443.390625 206.359375 442.941406 206.660156 C 442.339844 207.109375 441.742188 207.707031 441.140625 208.757812 L 441.140625 216.855469 L 442.191406 216.855469 C 442.492188 216.855469 442.640625 216.855469 442.789062 217.007812 C 442.941406 217.15625 442.941406 217.304688 442.941406 217.457031 C 442.941406 217.605469 442.941406 217.757812 442.789062 217.90625 C 442.640625 218.054688 442.492188 218.054688 442.191406 218.054688 L 438.894531 218.054688 C 438.59375 218.054688 438.441406 218.054688 438.292969 217.90625 C 438.144531 217.757812 438.144531 217.605469 438.144531 217.457031 C 438.144531 217.304688 438.144531 217.15625 438.292969 217.007812 C 438.441406 216.855469 438.59375 216.855469 438.894531 216.855469 L 439.941406 216.855469 Z M 463.628906 217.605469 C 465.726562 217.605469 467.375 216.707031 468.726562 214.90625 L 468.726562 218.507812 C 468.726562 219.105469 468.574219 219.707031 468.425781 220.007812 C 467.976562 220.753906 467.527344 221.207031 466.925781 221.65625 C 466.328125 221.957031 465.726562 222.253906 464.976562 222.253906 L 461.53125 222.253906 C 461.230469 222.253906 461.078125 222.253906 460.929688 222.40625 C 460.78125 222.554688 460.78125 222.707031 460.78125 222.855469 C 460.78125 223.003906 460.78125 223.15625 460.929688 223.304688 C 461.078125 223.457031 461.230469 223.457031 461.53125 223.457031 L 464.976562 223.457031 C 465.726562 223.457031 466.328125 223.304688 466.777344 223.15625 C 467.226562 223.003906 467.675781 222.707031 468.277344 222.253906 C 468.875 221.804688 469.175781 221.355469 469.476562 220.90625 C 469.773438 220.304688 469.925781 219.554688 469.925781 218.65625 L 469.925781 206.507812 L 471.574219 206.507812 C 471.875 206.507812 472.023438 206.507812 472.171875 206.359375 C 472.324219 206.207031 472.324219 206.058594 472.324219 205.910156 C 472.324219 205.757812 472.324219 205.609375 472.171875 205.457031 C 472.023438 205.308594 471.875 205.308594 471.574219 205.308594 L 468.726562 205.308594 L 468.726562 207.558594 C 467.375 205.757812 465.726562 204.859375 463.628906 204.859375 C 461.980469 204.859375 460.480469 205.457031 459.28125 206.660156 C 458.082031 207.859375 457.480469 209.359375 457.480469 211.15625 C 457.480469 212.957031 458.082031 214.457031 459.28125 215.65625 C 460.480469 217.007812 461.980469 217.605469 463.628906 217.605469 Z M 460.179688 207.707031 C 461.230469 206.660156 462.277344 206.207031 463.628906 206.207031 C 464.976562 206.207031 466.175781 206.660156 467.074219 207.707031 C 468.125 208.757812 468.574219 209.957031 468.574219 211.308594 C 468.574219 212.808594 468.125 214.007812 467.074219 214.90625 C 466.027344 215.957031 464.976562 216.40625 463.628906 216.40625 C 462.277344 216.40625 461.078125 215.957031 460.179688 214.90625 C 459.128906 213.855469 458.679688 212.65625 458.679688 211.308594 C 458.679688 209.808594 459.28125 208.609375 460.179688 207.707031 Z M 454.332031 252.398438 L 452.683594 252.398438 L 452.683594 235.453125 L 449.835938 235.453125 C 449.535156 235.453125 449.386719 235.453125 449.238281 235.601562 C 449.085938 235.753906 449.085938 235.902344 449.085938 236.054688 C 449.085938 236.203125 449.085938 236.351562 449.238281 236.503906 C 449.386719 236.652344 449.535156 236.652344 449.835938 236.652344 L 451.484375 236.652344 L 451.484375 243.550781 C 449.984375 241.601562 448.1875 240.703125 446.089844 240.703125 C 445.039062 240.703125 443.839844 241 442.941406 241.601562 C 441.890625 242.203125 441.140625 243.101562 440.542969 244.152344 C 439.941406 245.199219 439.640625 246.402344 439.640625 247.449219 C 439.640625 248.648438 439.941406 249.699219 440.542969 250.75 C 441.140625 251.800781 441.890625 252.699219 442.941406 253.300781 C 443.988281 253.898438 445.039062 254.199219 446.089844 254.199219 C 448.335938 254.199219 450.136719 253.300781 451.484375 251.351562 L 451.484375 253.75 L 454.332031 253.75 C 454.632812 253.75 454.785156 253.75 454.933594 253.597656 C 455.082031 253.449219 455.082031 253.300781 455.082031 253.148438 C 455.082031 253 455.082031 252.847656 454.933594 252.699219 C 454.933594 252.550781 454.632812 252.398438 454.332031 252.398438 Z M 449.984375 251.351562 C 448.9375 252.398438 447.738281 253 446.238281 253 C 444.738281 253 443.539062 252.398438 442.492188 251.351562 C 441.441406 250.300781 440.992188 248.949219 440.992188 247.449219 C 440.992188 245.949219 441.441406 244.601562 442.492188 243.550781 C 443.539062 242.5 444.738281 241.902344 446.238281 241.902344 C 447.738281 241.902344 448.9375 242.5 449.984375 243.550781 C 451.035156 244.601562 451.484375 245.949219 451.484375 247.449219 C 451.484375 248.949219 451.035156 250.300781 449.984375 251.351562 Z M 471.722656 247 C 471.875 247.152344 471.875 247.300781 471.875 247.601562 L 471.875 253.75 L 458.382812 253.75 C 458.082031 253.75 457.929688 253.75 457.78125 253.597656 C 457.632812 253.449219 457.632812 253.300781 457.632812 253.148438 C 457.632812 253 457.632812 252.847656 457.78125 252.699219 C 457.929688 252.550781 458.082031 252.550781 458.382812 252.550781 L 461.230469 252.550781 L 461.230469 238.003906 L 458.382812 238.003906 C 458.082031 238.003906 457.929688 238.003906 457.78125 237.851562 C 457.632812 237.703125 457.632812 237.550781 457.632812 237.402344 C 457.632812 237.253906 457.632812 237.101562 457.78125 236.953125 C 457.929688 236.800781 458.082031 236.800781 458.382812 236.800781 L 465.425781 236.800781 C 465.726562 236.800781 465.875 236.800781 466.027344 236.953125 C 466.175781 237.101562 466.175781 237.253906 466.175781 237.402344 C 466.175781 237.550781 466.175781 237.703125 466.027344 237.851562 C 465.875 238.003906 465.726562 238.003906 465.425781 238.003906 L 462.578125 238.003906 L 462.578125 252.550781 L 470.675781 252.550781 L 470.675781 247.75 C 470.675781 247.449219 470.675781 247.300781 470.824219 247.152344 C 470.972656 247 471.125 247 471.273438 247 C 471.421875 246.699219 471.574219 246.851562 471.722656 247 Z M 434.394531 227.054688 L 476.820312 227.054688 L 476.820312 228.554688 L 434.394531 228.554688 Z M 302.472656 432.664062 L 281.9375 455.160156 C 279.6875 457.558594 275.640625 456.507812 275.039062 453.210938 L 269.34375 423.367188 C 268.742188 420.515625 271.441406 417.964844 274.289062 418.714844 L 300.523438 426.066406 C 303.523438 426.964844 304.421875 430.5625 302.472656 432.664062 Z M 472.921875 441.210938 L 470.222656 439.5625 L 464.527344 417.214844 L 471.722656 421.414062 L 475.621094 436.5625 Z M 477.871094 446.011719 L 481.917969 462.207031 L 477.71875 469.40625 L 471.875 446.011719 L 473.371094 443.3125 Z M 500.507812 434.164062 L 496.007812 431.464844 L 492.109375 416.316406 L 496.308594 409.117188 L 502.003906 431.464844 Z M 503.65625 438.0625 L 509.5 461.308594 L 502.304688 457.109375 L 498.257812 440.910156 L 500.957031 436.414062 Z M 494.960938 408.519531 L 490.761719 415.566406 L 472.324219 420.214844 L 465.277344 416.015625 Z M 485.515625 421.566406 L 488.664062 434.164062 L 486.566406 437.761719 L 482.964844 435.664062 L 479.820312 423.066406 L 481.917969 419.617188 Z M 485.515625 421.566406 " fill-opacity="1" fill-rule="nonzero"/><path fill="#ea3d3d" d="M 381.175781 708.160156 C 381.175781 707.257812 381.925781 706.507812 382.824219 706.507812 L 388.074219 706.507812 C 388.972656 706.507812 389.722656 707.257812 389.722656 708.160156 L 389.722656 748.199219 L 388.371094 748.949219 C 386.574219 750 384.324219 750 382.527344 748.949219 L 381.175781 748.199219 Z M 381.175781 708.160156 " fill-opacity="1" fill-rule="nonzero"/></svg>