<svg xmlns="http://www.w3.org/2000/svg" xmlns:xlink="http://www.w3.org/1999/xlink" width="1000" zoomAndPan="magnify" viewBox="0 0 750 749.999995" height="1000" preserveAspectRatio="xMidYMid meet" version="1.0"><defs><clipPath id="584b368249"><path d="M 0 43 L 709.5 43 L 709.5 729.6875 L 0 729.6875 Z M 0 43 " clip-rule="nonzero"/></clipPath><clipPath id="a9e490d595"><path d="M 271 20.1875 L 438 20.1875 L 438 186 L 271 186 Z M 271 20.1875 " clip-rule="nonzero"/></clipPath></defs><path fill="#bddbff" d="M 697.691406 646.890625 L 697.691406 658.714844 C 697.691406 691.351562 671.203125 717.839844 638.566406 717.839844 L 189.214844 717.839844 C 205.535156 717.839844 220.316406 711.21875 231.074219 700.574219 C 241.71875 689.8125 248.339844 675.03125 248.339844 658.714844 L 248.339844 646.890625 C 248.339844 640.386719 253.660156 635.0625 260.164062 635.0625 L 685.863281 635.0625 C 692.367188 635.0625 697.691406 640.386719 697.691406 646.890625 Z M 697.691406 646.890625 " fill-opacity="1" fill-rule="nonzero"/><path fill="#bddbff" d="M 425.714844 91.113281 L 425.714844 114.765625 C 425.714844 121.269531 420.394531 126.589844 413.890625 126.589844 L 378.414062 126.589844 L 378.414062 162.066406 C 378.414062 168.566406 373.09375 173.890625 366.589844 173.890625 L 342.941406 173.890625 C 336.4375 173.890625 331.113281 168.566406 331.113281 162.066406 L 331.113281 126.589844 L 295.640625 126.589844 C 289.136719 126.589844 283.816406 121.269531 283.816406 114.765625 L 283.816406 91.113281 C 283.816406 84.609375 289.136719 79.289062 295.640625 79.289062 L 331.113281 79.289062 L 331.113281 43.816406 C 331.113281 37.3125 336.4375 31.988281 342.941406 31.988281 L 366.589844 31.988281 C 373.09375 31.988281 378.414062 37.3125 378.414062 43.816406 L 378.414062 79.289062 L 413.890625 79.289062 C 420.394531 79.289062 425.714844 84.609375 425.714844 91.113281 Z M 425.714844 91.113281 " fill-opacity="1" fill-rule="nonzero"/><path fill="#bddbff" d="M 293.628906 270.5 C 302.144531 279.132812 307.464844 290.957031 307.464844 303.964844 C 307.464844 316.972656 302.144531 328.796875 293.628906 337.429688 C 284.996094 345.941406 273.171875 351.265625 260.164062 351.265625 C 247.15625 351.265625 235.332031 345.941406 226.699219 337.429688 C 218.1875 328.796875 212.863281 316.972656 212.863281 303.964844 C 212.863281 290.957031 218.1875 279.132812 226.699219 270.5 C 235.332031 261.984375 247.15625 256.664062 260.164062 256.664062 C 273.171875 256.664062 284.996094 261.984375 293.628906 270.5 Z M 293.628906 270.5 " fill-opacity="1" fill-rule="nonzero"/><path fill="#bddbff" d="M 130.089844 114.765625 L 130.089844 138.414062 L 23.664062 138.414062 C 17.160156 138.414062 11.839844 133.09375 11.839844 126.589844 L 11.839844 114.765625 C 11.839844 82.128906 38.328125 55.640625 70.964844 55.640625 C 103.601562 55.640625 130.089844 82.128906 130.089844 114.765625 Z M 130.089844 114.765625 " fill-opacity="1" fill-rule="nonzero"/><g clip-path="url(#584b368249)"><path fill="#3d9ae2" d="M 685.863281 623.238281 L 591.265625 623.238281 L 591.265625 586.820312 C 619.527344 570.382812 638.566406 539.875 638.566406 504.988281 C 638.566406 452.839844 596.113281 410.390625 543.964844 410.390625 C 491.816406 410.390625 449.363281 452.839844 449.363281 504.988281 C 449.363281 557.136719 491.816406 599.589844 543.964844 599.589844 C 552.125 599.589844 560.046875 598.40625 567.613281 596.515625 L 567.613281 623.238281 L 260.164062 623.238281 C 247.15625 623.238281 236.515625 633.882812 236.515625 646.890625 L 236.515625 658.714844 C 236.515625 684.847656 215.347656 706.015625 189.214844 706.015625 C 163.082031 706.015625 141.914062 684.847656 141.914062 658.714844 L 141.914062 114.765625 C 141.914062 96.554688 134.9375 80 123.703125 67.464844 L 248.339844 67.464844 L 248.339844 43.816406 L 70.964844 43.816406 C 31.824219 43.816406 0.015625 75.625 0.015625 114.765625 L 0.015625 126.589844 C 0.015625 139.597656 10.65625 150.238281 23.664062 150.238281 L 118.265625 150.238281 L 118.265625 658.714844 C 118.265625 697.855469 150.074219 729.664062 189.214844 729.664062 L 638.566406 729.664062 C 677.707031 729.664062 709.515625 697.855469 709.515625 658.714844 L 709.515625 646.890625 C 709.515625 633.882812 698.871094 623.238281 685.863281 623.238281 Z M 118.265625 126.589844 L 23.664062 126.589844 L 23.664062 114.765625 C 23.664062 88.632812 44.832031 67.464844 70.964844 67.464844 C 97.097656 67.464844 118.265625 88.632812 118.265625 114.765625 Z M 543.964844 575.9375 C 504.824219 575.9375 473.015625 544.128906 473.015625 504.988281 C 473.015625 465.847656 504.824219 434.039062 543.964844 434.039062 C 583.105469 434.039062 614.914062 465.847656 614.914062 504.988281 C 614.914062 544.128906 583.105469 575.9375 543.964844 575.9375 Z M 685.863281 658.714844 C 685.863281 684.847656 664.699219 706.015625 638.566406 706.015625 L 241.953125 706.015625 C 253.1875 693.480469 260.164062 676.925781 260.164062 658.714844 L 260.164062 646.890625 L 685.863281 646.890625 Z M 685.863281 658.714844 " fill-opacity="1" fill-rule="nonzero"/></g><path fill="#3d9ae2" d="M 555.789062 457.6875 L 532.140625 457.6875 L 532.140625 493.164062 L 496.664062 493.164062 L 496.664062 516.8125 L 532.140625 516.8125 L 532.140625 552.289062 L 555.789062 552.289062 L 555.789062 516.8125 L 591.265625 516.8125 L 591.265625 493.164062 L 555.789062 493.164062 Z M 555.789062 457.6875 " fill-opacity="1" fill-rule="nonzero"/><path fill="#3d9ae2" d="M 201.632812 345.773438 L 193.269531 337.414062 L 176.546875 354.132812 L 210 387.574219 L 226.722656 370.855469 L 218.355469 362.492188 L 227.613281 353.238281 C 233.8125 357.351562 240.804688 360.359375 248.339844 361.894531 L 248.339844 374.914062 L 236.511719 374.914062 L 236.511719 398.5625 L 283.8125 398.5625 L 283.8125 374.914062 L 271.988281 374.914062 L 271.988281 361.894531 C 279.523438 360.359375 286.515625 357.351562 292.714844 353.238281 L 301.96875 362.492188 L 293.605469 370.855469 L 310.324219 387.574219 L 343.777344 354.132812 L 327.058594 337.414062 L 318.695312 345.773438 L 309.433594 336.519531 C 313.546875 330.316406 316.554688 323.324219 318.089844 315.789062 L 331.113281 315.789062 L 331.113281 327.617188 L 354.761719 327.617188 L 354.761719 280.316406 L 331.113281 280.316406 L 331.113281 292.140625 L 318.089844 292.140625 C 316.554688 284.605469 313.546875 277.613281 309.433594 271.410156 L 318.695312 262.15625 L 327.058594 270.519531 L 343.78125 253.796875 L 310.324219 220.355469 L 293.605469 237.078125 L 301.96875 245.441406 L 292.714844 254.691406 C 286.515625 250.582031 279.519531 247.574219 271.988281 246.039062 L 271.988281 233.015625 L 283.8125 233.015625 L 283.8125 209.367188 L 236.511719 209.367188 L 236.511719 233.015625 L 248.339844 233.015625 L 248.339844 246.039062 C 240.804688 247.574219 233.8125 250.582031 227.613281 254.691406 L 218.355469 245.441406 L 226.722656 237.078125 L 210 220.355469 L 176.546875 253.796875 L 193.269531 270.519531 L 201.632812 262.15625 L 210.890625 271.410156 C 206.78125 277.613281 203.769531 284.605469 202.234375 292.140625 L 189.214844 292.140625 L 189.214844 280.316406 L 165.566406 280.316406 L 165.566406 327.617188 L 189.214844 327.617188 L 189.214844 315.789062 L 202.234375 315.789062 C 203.769531 323.328125 206.78125 330.320312 210.890625 336.519531 Z M 260.164062 268.488281 C 279.726562 268.488281 295.640625 284.402344 295.640625 303.964844 C 295.640625 323.527344 279.726562 339.441406 260.164062 339.441406 C 240.601562 339.441406 224.691406 323.527344 224.691406 303.964844 C 224.691406 284.402344 240.601562 268.488281 260.164062 268.488281 Z M 260.164062 268.488281 " fill-opacity="1" fill-rule="nonzero"/><path fill="#3d9ae2" d="M 189.214844 422.214844 L 402.066406 422.214844 L 402.066406 445.863281 L 189.214844 445.863281 Z M 189.214844 422.214844 " fill-opacity="1" fill-rule="nonzero"/><path fill="#3d9ae2" d="M 378.414062 363.089844 L 520.316406 363.089844 L 520.316406 386.738281 L 378.414062 386.738281 Z M 378.414062 363.089844 " fill-opacity="1" fill-rule="nonzero"/><path fill="#3d9ae2" d="M 378.414062 315.789062 L 520.316406 315.789062 L 520.316406 339.441406 L 378.414062 339.441406 Z M 378.414062 315.789062 " fill-opacity="1" fill-rule="nonzero"/><path fill="#3d9ae2" d="M 378.414062 268.488281 L 520.316406 268.488281 L 520.316406 292.140625 L 378.414062 292.140625 Z M 378.414062 268.488281 " fill-opacity="1" fill-rule="nonzero"/><path fill="#3d9ae2" d="M 378.414062 221.191406 L 520.316406 221.191406 L 520.316406 244.839844 L 378.414062 244.839844 Z M 378.414062 221.191406 " fill-opacity="1" fill-rule="nonzero"/><path fill="#3d9ae2" d="M 189.214844 469.515625 L 402.066406 469.515625 L 402.066406 493.164062 L 189.214844 493.164062 Z M 189.214844 469.515625 " fill-opacity="1" fill-rule="nonzero"/><path fill="#3d9ae2" d="M 189.214844 516.8125 L 402.066406 516.8125 L 402.066406 540.464844 L 189.214844 540.464844 Z M 189.214844 516.8125 " fill-opacity="1" fill-rule="nonzero"/><path fill="#3d9ae2" d="M 189.214844 564.113281 L 402.066406 564.113281 L 402.066406 587.765625 L 189.214844 587.765625 Z M 189.214844 564.113281 " fill-opacity="1" fill-rule="nonzero"/><g clip-path="url(#a9e490d595)"><path fill="#3d9ae2" d="M 295.640625 138.414062 L 319.289062 138.414062 L 319.289062 162.066406 C 319.289062 175.109375 329.902344 185.714844 342.941406 185.714844 L 366.589844 185.714844 C 379.625 185.714844 390.238281 175.109375 390.238281 162.066406 L 390.238281 138.414062 L 413.890625 138.414062 C 426.925781 138.414062 437.539062 127.808594 437.539062 114.765625 L 437.539062 91.113281 C 437.539062 78.070312 426.925781 67.464844 413.890625 67.464844 L 390.238281 67.464844 L 390.238281 43.816406 C 390.238281 30.773438 379.625 20.164062 366.589844 20.164062 L 342.941406 20.164062 C 329.902344 20.164062 319.289062 30.773438 319.289062 43.816406 L 319.289062 67.464844 L 295.640625 67.464844 C 282.601562 67.464844 271.988281 78.070312 271.988281 91.113281 L 271.988281 114.765625 C 271.988281 127.808594 282.601562 138.414062 295.640625 138.414062 Z M 295.640625 91.113281 L 331.113281 91.113281 C 337.652344 91.113281 342.941406 85.820312 342.941406 79.289062 L 342.941406 43.816406 L 366.589844 43.816406 L 366.589844 79.289062 C 366.589844 85.820312 371.878906 91.113281 378.414062 91.113281 L 413.890625 91.113281 L 413.890625 114.765625 L 378.414062 114.765625 C 371.878906 114.765625 366.589844 120.058594 366.589844 126.589844 L 366.589844 162.066406 L 342.941406 162.066406 L 342.941406 126.589844 C 342.941406 120.058594 337.652344 114.765625 331.113281 114.765625 L 295.640625 114.765625 Z M 295.640625 91.113281 " fill-opacity="1" fill-rule="nonzero"/></g><path fill="#3d9ae2" d="M 591.265625 114.765625 L 591.265625 386.738281 L 567.613281 386.738281 L 567.613281 114.765625 C 567.613281 88.632812 546.449219 67.464844 520.316406 67.464844 L 461.191406 67.464844 L 461.191406 43.816406 L 520.316406 43.816406 C 559.457031 43.816406 591.265625 75.625 591.265625 114.765625 Z M 591.265625 114.765625 " fill-opacity="1" fill-rule="nonzero"/></svg>