<svg xmlns="http://www.w3.org/2000/svg" xmlns:xlink="http://www.w3.org/1999/xlink" width="1000" zoomAndPan="magnify" viewBox="0 0 750 749.999995" height="1000" preserveAspectRatio="xMidYMid meet" version="1.0"><defs><clipPath id="03a8d8d881"><path d="M 59.242188 23.4375 L 656.261719 23.4375 L 656.261719 726.1875 L 59.242188 726.1875 Z M 59.242188 23.4375 " clip-rule="nonzero"/></clipPath></defs><path fill="#51ade5" d="M 505.847656 339.171875 C 496.972656 335.535156 486.828125 339.777344 483.1875 348.648438 C 447.117188 436.542969 393.089844 451.925781 370.210938 454.351562 C 362.382812 455.191406 354.074219 455.199219 346.234375 454.460938 C 323.957031 452.367188 268.914062 437.828125 232.320312 348.648438 C 228.675781 339.777344 218.523438 335.539062 209.652344 339.171875 C 200.773438 342.808594 196.527344 352.949219 200.171875 361.820312 C 248.863281 480.484375 329.84375 489.476562 353.230469 489.476562 C 355.15625 489.476562 356.65625 489.417969 357.75 489.34375 C 358.847656 489.417969 360.339844 489.476562 362.265625 489.476562 C 385.664062 489.476562 466.640625 480.480469 515.332031 361.820312 C 518.976562 352.949219 514.730469 342.808594 505.847656 339.171875 " fill-opacity="1" fill-rule="nonzero"/><path fill="#7b7979" d="M 209.652344 339.171875 C 212.441406 338.03125 215.339844 337.746094 218.144531 338.0625 C 209.960938 312.910156 199.316406 265.277344 217.433594 223.042969 C 223.902344 207.964844 239.820312 183.660156 275.519531 179.074219 C 279.777344 185.554688 289.082031 189.75 300.726562 189.75 C 316.804688 189.75 328.476562 185.582031 328.476562 170.773438 C 328.476562 157.210938 316.804688 151.792969 300.726562 151.792969 C 288.421875 151.792969 278.71875 156.480469 274.832031 163.601562 C 242.0625 167.492188 216.328125 186.449219 203.238281 216.960938 C 182.875 264.425781 194.566406 316.261719 203.566406 343.421875 C 205.226562 341.640625 207.25 340.152344 209.652344 339.171875 " fill-opacity="1" fill-rule="nonzero"/><path fill="#7b7979" d="M 505.847656 339.171875 C 508.253906 340.152344 510.277344 341.640625 511.9375 343.421875 C 520.9375 316.257812 532.625 264.421875 512.257812 216.960938 C 499.175781 186.449219 473.441406 167.492188 440.671875 163.601562 C 436.785156 156.480469 427.082031 151.792969 414.777344 151.792969 C 398.695312 151.792969 387.027344 157.210938 387.027344 170.773438 C 387.027344 185.582031 398.695312 189.75 414.777344 189.75 C 426.417969 189.75 435.71875 185.554688 439.984375 179.074219 C 475.683594 183.660156 491.601562 207.964844 498.066406 223.042969 C 516.148438 265.183594 505.503906 312.882812 497.335938 338.0625 C 500.140625 337.742188 503.050781 338.027344 505.847656 339.171875 " fill-opacity="1" fill-rule="nonzero"/><g clip-path="url(#03a8d8d881)"><path fill="#7b7979" d="M 342.730469 646.679688 C 347.085938 643.949219 352.226562 642.339844 357.75 642.339844 C 373.382812 642.339844 386.0625 655.011719 386.0625 670.632812 C 386.0625 686.257812 373.382812 698.921875 357.75 698.921875 C 343.488281 698.921875 331.722656 688.378906 329.761719 674.664062 C 329.574219 673.347656 329.441406 672.003906 329.441406 670.632812 C 329.441406 660.53125 334.753906 651.691406 342.730469 646.679688 Z M 655.308594 107.199219 L 654.730469 99.253906 L 647.917969 95.125 C 643.089844 92.195312 527.734375 23.4375 357.75 23.4375 C 187.761719 23.4375 72.410156 92.195312 67.585938 95.125 L 60.773438 99.253906 L 60.195312 107.199219 C 59.871094 111.667969 52.574219 218.183594 84.191406 342.984375 C 121.09375 488.652344 196.28125 597.226562 303.097656 660.238281 C 302.460938 663.609375 302.09375 667.078125 302.09375 670.632812 C 302.09375 701.351562 327.011719 726.253906 357.75 726.253906 C 388.488281 726.253906 413.410156 701.351562 413.410156 670.632812 C 413.410156 639.917969 388.488281 615.011719 357.75 615.011719 C 341.671875 615.011719 327.230469 621.867188 317.070312 632.761719 C 217.644531 573.980469 149.542969 474.492188 114.339844 336.234375 C 88.660156 235.375 89.597656 144.691406 90.601562 117.613281 C 117.449219 103.265625 219.265625 54.308594 357.75 54.308594 C 495.863281 54.308594 598.019531 103.3125 624.90625 117.632812 C 625.921875 144.621094 626.882812 234.703125 601.371094 335.414062 C 592.40625 370.804688 581.277344 403.640625 568.035156 433.929688 C 561.996094 447.734375 555.230469 461.085938 547.296875 473.933594 C 529.183594 503.261719 507.632812 526.128906 484.835938 537.527344 C 446.761719 556.570312 384.941406 553.929688 373.5625 500.664062 C 372.71875 496.714844 372.238281 492.765625 371.976562 489.003906 C 368.136719 489.351562 364.839844 489.476562 362.265625 489.476562 C 360.339844 489.476562 358.847656 489.417969 357.75 489.34375 C 356.65625 489.417969 355.15625 489.476562 353.230469 489.476562 C 350.144531 489.476562 346.015625 489.308594 341.121094 488.761719 C 341.394531 494.441406 342.035156 500.5625 343.289062 506.765625 C 348.367188 531.910156 363.910156 556.496094 388.316406 568.394531 C 408.878906 578.421875 434.726562 579.964844 457.027344 577.0625 C 506.144531 570.679688 545.21875 535.90625 570.449219 495.039062 C 579.164062 480.929688 586.722656 466.839844 593.578125 451.757812 C 608.808594 418.261719 621.441406 381.960938 631.3125 342.984375 C 662.925781 218.183594 655.632812 111.667969 655.308594 107.199219 " fill-opacity="1" fill-rule="nonzero"/></g></svg>