<svg xmlns="http://www.w3.org/2000/svg" xmlns:xlink="http://www.w3.org/1999/xlink" width="1080" zoomAndPan="magnify" viewBox="0 0 810 809.999993" height="1080" preserveAspectRatio="xMidYMid meet" version="1.0"><defs><clipPath id="05c20fe4c1"><path d="M 252 119.328125 L 599 119.328125 L 599 580.578125 L 252 580.578125 Z M 252 119.328125 " clip-rule="nonzero"/></clipPath><clipPath id="ab07afbf23"><path d="M 465 187 L 644.335938 187 L 644.335938 367 L 465 367 Z M 465 187 " clip-rule="nonzero"/></clipPath></defs><path fill="#4262ff" d="M 437.515625 428.917969 L 390.589844 426.070312 C 376.632812 425.222656 366 413.21875 366.847656 399.257812 L 370.871094 332.910156 C 371.71875 318.949219 383.722656 308.316406 397.679688 309.164062 L 402.6875 309.46875 C 424.007812 310.761719 440.492188 307.40625 452.15625 299.402344 C 463.8125 291.398438 470.136719 279.28125 471.121094 263.050781 C 471.910156 250.03125 468.285156 238.777344 460.242188 229.292969 C 452.199219 219.808594 441.957031 214.6875 429.503906 213.929688 C 416.296875 213.128906 405.75 216.042969 397.871094 222.667969 C 393.570312 226.277344 390.183594 230.914062 387.703125 236.582031 C 383.457031 246.285156 373.589844 252.300781 363.015625 251.660156 L 286.605469 247.023438 L 286.675781 245.890625 C 288.90625 209.09375 303.800781 180.496094 331.363281 160.101562 C 358.917969 139.710938 394.777344 130.851562 438.925781 133.53125 C 478.921875 135.957031 510.433594 149.519531 533.460938 174.214844 C 556.484375 198.910156 566.851562 230.128906 564.5625 267.871094 C 562.652344 299.386719 552.648438 324.535156 534.566406 343.324219 C 521.054688 357.355469 505.003906 365.902344 486.40625 368.957031 C 474.757812 370.871094 465.9375 380.503906 465.167969 392.285156 L 464.316406 405.292969 C 463.40625 419.203125 451.425781 429.761719 437.515625 428.917969 Z M 347.445312 517.78125 C 348.417969 501.742188 354.804688 488.492188 366.617188 478.03125 C 378.421875 467.574219 392.34375 462.828125 408.382812 463.800781 C 424.609375 464.785156 437.804688 471.125 447.988281 482.824219 C 458.164062 494.523438 462.765625 508.488281 461.78125 524.71875 C 460.796875 540.949219 454.496094 554.246094 442.886719 564.625 C 431.273438 575 417.445312 579.699219 401.410156 578.726562 C 385.5625 577.765625 372.359375 571.375 361.8125 559.5625 C 351.261719 547.746094 346.472656 533.820312 347.445312 517.78125 Z M 347.445312 517.78125 " fill-opacity="1" fill-rule="nonzero"/><g clip-path="url(#05c20fe4c1)"><path stroke-linecap="butt" transform="matrix(8.015075, 0, 0, 8.016816, 152.210914, 96.220678)" fill="none" stroke-linejoin="miter" d="M 35.596011 41.499931 L 29.741321 41.14472 C 27.999974 41.038985 26.673372 39.541644 26.77913 37.800188 L 27.281113 29.524127 C 27.386871 27.78267 28.884537 26.456356 30.625885 26.562091 L 31.250684 26.600097 C 33.91071 26.761379 35.967382 26.342825 37.422647 25.344435 C 38.876938 24.346046 39.665978 22.834574 39.788794 20.810021 C 39.887241 19.185993 39.434968 17.782206 38.431488 16.599146 C 37.428008 15.416086 36.150143 14.777292 34.59643 14.682764 C 32.948656 14.582876 31.632776 14.94637 30.649765 15.772758 C 30.113179 16.222983 29.690635 16.801357 29.38116 17.508367 C 28.851396 18.718714 27.620318 19.46909 26.301027 19.38918 L 16.767722 18.810806 L 16.776494 18.669501 C 17.054779 14.079539 18.913093 10.512331 22.351925 7.968361 C 25.789783 5.42488 30.263774 4.319781 35.771949 4.654039 C 40.762057 4.956626 44.693613 6.648382 47.566617 9.728821 C 50.439134 12.80926 51.732595 16.703419 51.447 21.411296 C 51.20868 25.342486 49.960544 28.479447 47.704541 30.823154 C 46.018753 32.573381 44.016179 33.6395 41.695845 34.020535 C 40.242528 34.259291 39.142063 35.460867 39.046053 36.930434 L 38.939808 38.553 C 38.826252 40.288122 37.33151 41.605178 35.596011 41.499931 Z M 24.358398 52.584541 C 24.479752 50.583864 25.27659 48.931088 26.750375 47.626214 C 28.223186 46.321826 29.960147 45.729809 31.961259 45.851136 C 33.985764 45.973925 35.632076 46.764743 36.902631 48.224078 C 38.172211 49.683413 38.746325 51.425357 38.623509 53.44991 C 38.500694 55.474463 37.714577 57.133086 36.266135 58.427728 C 34.817205 59.721883 33.091941 60.308053 31.091316 60.186726 C 29.114085 60.066861 27.466799 59.269708 26.150919 57.796243 C 24.834552 56.32229 24.237045 54.585219 24.358398 52.584541 Z M 24.358398 52.584541 " stroke="#4262ff" stroke-width="0.3" stroke-opacity="1" stroke-miterlimit="10"/></g><path fill="#fdd02f" d="M 375.460938 448.671875 C 375.460938 450.140625 375.425781 451.605469 375.355469 453.074219 C 375.28125 454.539062 375.175781 456 375.03125 457.460938 C 374.886719 458.921875 374.707031 460.378906 374.492188 461.832031 C 374.277344 463.285156 374.027344 464.730469 373.738281 466.167969 C 373.453125 467.609375 373.132812 469.039062 372.777344 470.464844 C 372.417969 471.886719 372.027344 473.300781 371.601562 474.707031 C 371.175781 476.109375 370.714844 477.503906 370.222656 478.886719 C 369.726562 480.265625 369.199219 481.636719 368.636719 482.992188 C 368.074219 484.347656 367.480469 485.691406 366.855469 487.015625 C 366.226562 488.34375 365.566406 489.652344 364.875 490.949219 C 364.183594 492.242188 363.460938 493.519531 362.707031 494.777344 C 361.953125 496.039062 361.167969 497.277344 360.351562 498.496094 C 359.535156 499.71875 358.691406 500.917969 357.816406 502.097656 C 356.941406 503.277344 356.039062 504.433594 355.109375 505.566406 C 354.179688 506.703125 353.222656 507.8125 352.234375 508.898438 C 351.25 509.988281 350.238281 511.050781 349.199219 512.089844 C 348.164062 513.125 347.101562 514.136719 346.011719 515.125 C 344.925781 516.109375 343.816406 517.066406 342.679688 518 C 341.546875 518.929688 340.390625 519.832031 339.210938 520.707031 C 338.03125 521.582031 336.832031 522.425781 335.613281 523.242188 C 334.394531 524.058594 333.152344 524.84375 331.894531 525.597656 C 330.636719 526.351562 329.359375 527.074219 328.066406 527.765625 C 326.773438 528.457031 325.460938 529.117188 324.132812 529.746094 C 322.808594 530.371094 321.46875 530.96875 320.109375 531.527344 C 318.753906 532.089844 317.386719 532.617188 316.003906 533.113281 C 314.625 533.609375 313.230469 534.066406 311.828125 534.496094 C 310.421875 534.921875 309.007812 535.3125 307.585938 535.667969 C 306.160156 536.023438 304.730469 536.347656 303.289062 536.632812 C 301.851562 536.917969 300.40625 537.171875 298.953125 537.386719 C 297.503906 537.601562 296.046875 537.78125 294.585938 537.925781 C 293.125 538.066406 291.664062 538.175781 290.199219 538.246094 C 288.730469 538.320312 287.265625 538.355469 285.796875 538.355469 C 284.332031 538.355469 282.863281 538.320312 281.398438 538.246094 C 279.933594 538.175781 278.46875 538.066406 277.007812 537.925781 C 275.550781 537.78125 274.09375 537.601562 272.640625 537.386719 C 271.191406 537.171875 269.746094 536.917969 268.304688 536.632812 C 266.867188 536.347656 265.433594 536.023438 264.011719 535.667969 C 262.589844 535.3125 261.175781 534.921875 259.769531 534.496094 C 258.367188 534.066406 256.972656 533.609375 255.589844 533.113281 C 254.210938 532.617188 252.839844 532.089844 251.484375 531.527344 C 250.128906 530.96875 248.789062 530.371094 247.460938 529.746094 C 246.136719 529.117188 244.824219 528.457031 243.53125 527.765625 C 242.238281 527.074219 240.960938 526.351562 239.703125 525.597656 C 238.441406 524.84375 237.203125 524.058594 235.984375 523.242188 C 234.761719 522.425781 233.5625 521.582031 232.386719 520.707031 C 231.207031 519.832031 230.050781 518.929688 228.914062 518 C 227.78125 517.066406 226.671875 516.109375 225.582031 515.125 C 224.496094 514.136719 223.433594 513.125 222.394531 512.089844 C 221.359375 511.050781 220.347656 509.988281 219.359375 508.898438 C 218.375 507.8125 217.417969 506.703125 216.488281 505.566406 C 215.554688 504.433594 214.652344 503.277344 213.777344 502.097656 C 212.90625 500.917969 212.058594 499.71875 211.246094 498.496094 C 210.429688 497.277344 209.644531 496.039062 208.890625 494.777344 C 208.136719 493.519531 207.414062 492.242188 206.722656 490.949219 C 206.027344 489.65625 205.371094 488.34375 204.742188 487.015625 C 204.113281 485.691406 203.519531 484.347656 202.957031 482.992188 C 202.398438 481.636719 201.871094 480.265625 201.375 478.886719 C 200.878906 477.503906 200.421875 476.109375 199.996094 474.707031 C 199.570312 473.300781 199.175781 471.886719 198.820312 470.464844 C 198.464844 469.039062 198.144531 467.609375 197.855469 466.167969 C 197.570312 464.730469 197.320312 463.285156 197.105469 461.832031 C 196.890625 460.378906 196.710938 458.921875 196.566406 457.460938 C 196.421875 456 196.3125 454.539062 196.242188 453.074219 C 196.167969 451.605469 196.132812 450.140625 196.132812 448.671875 C 196.132812 447.203125 196.167969 445.738281 196.242188 444.269531 C 196.3125 442.804688 196.421875 441.34375 196.566406 439.882812 C 196.710938 438.421875 196.890625 436.964844 197.105469 435.511719 C 197.320312 434.0625 197.570312 432.613281 197.855469 431.175781 C 198.144531 429.734375 198.464844 428.304688 198.820312 426.878906 C 199.175781 425.457031 199.570312 424.042969 199.996094 422.636719 C 200.421875 421.234375 200.878906 419.839844 201.375 418.457031 C 201.871094 417.078125 202.398438 415.707031 202.957031 414.351562 C 203.519531 412.996094 204.113281 411.652344 204.742188 410.328125 C 205.371094 409 206.027344 407.691406 206.722656 406.394531 C 207.414062 405.101562 208.136719 403.824219 208.890625 402.566406 C 209.644531 401.304688 210.429688 400.066406 211.246094 398.847656 C 212.058594 397.625 212.90625 396.425781 213.777344 395.246094 C 214.652344 394.066406 215.554688 392.910156 216.488281 391.777344 C 217.417969 390.640625 218.375 389.53125 219.359375 388.445312 C 220.347656 387.355469 221.359375 386.292969 222.394531 385.253906 C 223.433594 384.21875 224.496094 383.207031 225.582031 382.21875 C 226.671875 381.234375 227.78125 380.277344 228.914062 379.34375 C 230.050781 378.414062 231.207031 377.511719 232.386719 376.636719 C 233.5625 375.761719 234.761719 374.917969 235.984375 374.101562 C 237.203125 373.285156 238.441406 372.5 239.703125 371.746094 C 240.960938 370.992188 242.238281 370.269531 243.53125 369.578125 C 244.824219 368.886719 246.136719 368.226562 247.460938 367.597656 C 248.789062 366.972656 250.128906 366.375 251.484375 365.816406 C 252.839844 365.253906 254.210938 364.726562 255.589844 364.230469 C 256.972656 363.734375 258.367188 363.277344 259.769531 362.851562 C 261.175781 362.421875 262.589844 362.03125 264.011719 361.675781 C 265.433594 361.320312 266.867188 360.996094 268.304688 360.710938 C 269.746094 360.425781 271.191406 360.175781 272.640625 359.957031 C 274.09375 359.742188 275.550781 359.5625 277.007812 359.417969 C 278.46875 359.277344 279.933594 359.167969 281.398438 359.097656 C 282.863281 359.023438 284.332031 358.988281 285.796875 358.988281 C 287.265625 358.988281 288.730469 359.023438 290.199219 359.097656 C 291.664062 359.167969 293.125 359.277344 294.585938 359.417969 C 296.046875 359.5625 297.503906 359.742188 298.953125 359.957031 C 300.40625 360.175781 301.851562 360.425781 303.289062 360.710938 C 304.730469 360.996094 306.160156 361.320312 307.585938 361.675781 C 309.007812 362.03125 310.421875 362.421875 311.828125 362.851562 C 313.230469 363.277344 314.625 363.734375 316.003906 364.230469 C 317.386719 364.726562 318.753906 365.253906 320.109375 365.816406 C 321.46875 366.375 322.808594 366.972656 324.132812 367.597656 C 325.460938 368.226562 326.773438 368.886719 328.066406 369.578125 C 329.359375 370.269531 330.636719 370.992188 331.894531 371.746094 C 333.152344 372.5 334.394531 373.285156 335.613281 374.101562 C 336.832031 374.917969 338.03125 375.761719 339.210938 376.636719 C 340.390625 377.511719 341.546875 378.414062 342.679688 379.34375 C 343.816406 380.277344 344.925781 381.234375 346.011719 382.21875 C 347.101562 383.207031 348.164062 384.21875 349.199219 385.253906 C 350.238281 386.292969 351.25 387.355469 352.234375 388.445312 C 353.222656 389.53125 354.179688 390.640625 355.109375 391.777344 C 356.039062 392.910156 356.941406 394.066406 357.816406 395.246094 C 358.691406 396.425781 359.535156 397.625 360.351562 398.847656 C 361.167969 400.066406 361.953125 401.304688 362.707031 402.566406 C 363.460938 403.824219 364.183594 405.101562 364.875 406.394531 C 365.566406 407.691406 366.226562 409 366.855469 410.328125 C 367.480469 411.652344 368.074219 412.996094 368.636719 414.351562 C 369.199219 415.707031 369.726562 417.078125 370.222656 418.457031 C 370.714844 419.839844 371.175781 421.234375 371.601562 422.636719 C 372.027344 424.042969 372.417969 425.457031 372.777344 426.878906 C 373.132812 428.304688 373.453125 429.734375 373.738281 431.175781 C 374.027344 432.613281 374.277344 434.0625 374.492188 435.511719 C 374.707031 436.964844 374.886719 438.421875 375.03125 439.882812 C 375.175781 441.34375 375.28125 442.804688 375.355469 444.269531 C 375.425781 445.738281 375.460938 447.203125 375.460938 448.671875 Z M 375.460938 448.671875 " fill-opacity="1" fill-rule="nonzero"/><path fill="#050038" d="M 242.207031 483.269531 C 242.492188 467.398438 259.007812 458.492188 273.253906 458.476562 C 287.5 458.460938 304.011719 467.417969 304.300781 483.269531 C 304.4375 490.996094 316.460938 491.023438 316.320312 483.269531 C 315.914062 460.742188 294.222656 446.453125 273.253906 446.453125 C 252.285156 446.453125 230.589844 460.742188 230.183594 483.269531 C 230.046875 491.011719 242.066406 491.011719 242.207031 483.269531 Z M 242.207031 483.269531 " fill-opacity="1" fill-rule="nonzero"/><path fill="#050038" d="M 292.109375 421.792969 C 301.390625 421.792969 301.40625 407.363281 292.109375 407.363281 C 282.824219 407.363281 282.808594 421.792969 292.109375 421.792969 Z M 292.109375 421.792969 " fill-opacity="1" fill-rule="nonzero"/><path fill="#050038" d="M 259.148438 421.792969 C 268.433594 421.792969 268.449219 407.363281 259.148438 407.363281 C 249.867188 407.363281 249.851562 421.792969 259.148438 421.792969 Z M 259.148438 421.792969 " fill-opacity="1" fill-rule="nonzero"/><g clip-path="url(#ab07afbf23)"><path fill="#fdd02f" d="M 644.730469 277.128906 C 644.730469 278.597656 644.691406 280.0625 644.621094 281.527344 C 644.550781 282.996094 644.441406 284.457031 644.296875 285.917969 C 644.152344 287.378906 643.972656 288.835938 643.757812 290.289062 C 643.542969 291.738281 643.292969 293.183594 643.007812 294.625 C 642.71875 296.0625 642.398438 297.496094 642.042969 298.917969 C 641.683594 300.34375 641.292969 301.757812 640.867188 303.160156 C 640.441406 304.566406 639.980469 305.960938 639.488281 307.339844 C 638.992188 308.722656 638.464844 310.09375 637.902344 311.449219 C 637.34375 312.804688 636.746094 314.144531 636.121094 315.472656 C 635.492188 316.800781 634.832031 318.109375 634.140625 319.40625 C 633.449219 320.699219 632.726562 321.976562 631.972656 323.234375 C 631.21875 324.492188 630.433594 325.734375 629.617188 326.953125 C 628.800781 328.175781 627.957031 329.375 627.082031 330.554688 C 626.210938 331.730469 625.308594 332.886719 624.375 334.023438 C 623.445312 335.15625 622.488281 336.269531 621.5 337.355469 C 620.515625 338.445312 619.503906 339.507812 618.46875 340.542969 C 617.429688 341.582031 616.367188 342.59375 615.28125 343.578125 C 614.191406 344.566406 613.082031 345.523438 611.945312 346.453125 C 610.8125 347.386719 609.65625 348.289062 608.476562 349.164062 C 607.300781 350.039062 606.101562 350.882812 604.878906 351.699219 C 603.660156 352.511719 602.421875 353.296875 601.160156 354.050781 C 599.902344 354.808594 598.625 355.53125 597.332031 356.222656 C 596.039062 356.914062 594.726562 357.574219 593.402344 358.203125 C 592.074219 358.828125 590.734375 359.421875 589.378906 359.984375 C 588.023438 360.546875 586.652344 361.074219 585.273438 361.570312 C 583.890625 362.0625 582.496094 362.523438 581.09375 362.949219 C 579.6875 363.375 578.273438 363.769531 576.851562 364.125 C 575.429688 364.480469 573.996094 364.800781 572.558594 365.089844 C 571.117188 365.375 569.671875 365.625 568.222656 365.839844 C 566.769531 366.058594 565.3125 366.238281 563.851562 366.378906 C 562.394531 366.523438 560.929688 366.632812 559.464844 366.703125 C 558 366.777344 556.53125 366.8125 555.066406 366.8125 C 553.597656 366.8125 552.128906 366.777344 550.664062 366.703125 C 549.199219 366.632812 547.734375 366.523438 546.277344 366.378906 C 544.816406 366.238281 543.359375 366.058594 541.90625 365.839844 C 540.457031 365.625 539.011719 365.375 537.570312 365.089844 C 536.132812 364.800781 534.703125 364.480469 533.277344 364.125 C 531.855469 363.769531 530.441406 363.375 529.035156 362.949219 C 527.632812 362.523438 526.238281 362.0625 524.859375 361.570312 C 523.476562 361.074219 522.105469 360.546875 520.75 359.984375 C 519.394531 359.421875 518.054688 358.828125 516.726562 358.203125 C 515.402344 357.574219 514.089844 356.914062 512.796875 356.222656 C 511.503906 355.53125 510.226562 354.808594 508.96875 354.050781 C 507.710938 353.296875 506.46875 352.511719 505.25 351.699219 C 504.03125 350.882812 502.828125 350.039062 501.652344 349.164062 C 500.472656 348.289062 499.316406 347.386719 498.183594 346.453125 C 497.046875 345.523438 495.9375 344.566406 494.847656 343.578125 C 493.761719 342.59375 492.699219 341.582031 491.664062 340.542969 C 490.625 339.507812 489.613281 338.445312 488.628906 337.355469 C 487.640625 336.269531 486.683594 335.15625 485.753906 334.023438 C 484.820312 332.886719 483.917969 331.730469 483.046875 330.554688 C 482.171875 329.375 481.328125 328.175781 480.511719 326.953125 C 479.695312 325.734375 478.910156 324.492188 478.15625 323.234375 C 477.402344 321.976562 476.679688 320.699219 475.988281 319.40625 C 475.296875 318.109375 474.636719 316.800781 474.007812 315.472656 C 473.382812 314.144531 472.785156 312.804688 472.226562 311.449219 C 471.664062 310.09375 471.136719 308.722656 470.640625 307.339844 C 470.148438 305.960938 469.6875 304.566406 469.261719 303.160156 C 468.835938 301.757812 468.445312 300.34375 468.085938 298.917969 C 467.730469 297.496094 467.410156 296.0625 467.121094 294.625 C 466.835938 293.183594 466.585938 291.738281 466.371094 290.289062 C 466.15625 288.835938 465.976562 287.378906 465.832031 285.917969 C 465.6875 284.457031 465.578125 282.996094 465.507812 281.527344 C 465.4375 280.0625 465.398438 278.597656 465.398438 277.128906 C 465.398438 275.660156 465.4375 274.195312 465.507812 272.726562 C 465.578125 271.261719 465.6875 269.796875 465.832031 268.335938 C 465.976562 266.875 466.15625 265.421875 466.371094 263.96875 C 466.585938 262.515625 466.835938 261.070312 467.121094 259.632812 C 467.410156 258.191406 467.730469 256.761719 468.085938 255.335938 C 468.445312 253.914062 468.835938 252.5 469.261719 251.09375 C 469.6875 249.691406 470.148438 248.296875 470.640625 246.914062 C 471.136719 245.53125 471.664062 244.164062 472.226562 242.808594 C 472.785156 241.453125 473.382812 240.109375 474.007812 238.785156 C 474.636719 237.457031 475.296875 236.144531 475.988281 234.851562 C 476.679688 233.558594 477.402344 232.28125 478.15625 231.019531 C 478.910156 229.761719 479.695312 228.523438 480.511719 227.300781 C 481.328125 226.082031 482.171875 224.882812 483.046875 223.703125 C 483.917969 222.523438 484.820312 221.367188 485.753906 220.234375 C 486.683594 219.097656 487.640625 217.988281 488.628906 216.898438 C 489.613281 215.8125 490.625 214.75 491.664062 213.710938 C 492.699219 212.675781 493.761719 211.664062 494.847656 210.675781 C 495.9375 209.691406 497.046875 208.734375 498.183594 207.800781 C 499.316406 206.871094 500.472656 205.96875 501.652344 205.09375 C 502.828125 204.21875 504.03125 203.375 505.25 202.558594 C 506.46875 201.742188 507.710938 200.957031 508.96875 200.203125 C 510.226562 199.449219 511.503906 198.726562 512.796875 198.035156 C 514.089844 197.34375 515.402344 196.683594 516.726562 196.054688 C 518.054688 195.425781 519.394531 194.832031 520.75 194.269531 C 522.105469 193.710938 523.476562 193.179688 524.859375 192.6875 C 526.238281 192.191406 527.632812 191.730469 529.035156 191.304688 C 530.441406 190.878906 531.855469 190.488281 533.277344 190.132812 C 534.703125 189.773438 536.132812 189.453125 537.570312 189.167969 C 539.011719 188.882812 540.457031 188.628906 541.90625 188.414062 C 543.359375 188.199219 544.816406 188.019531 546.277344 187.875 C 547.734375 187.730469 549.199219 187.625 550.664062 187.550781 C 552.128906 187.480469 553.597656 187.445312 555.066406 187.445312 C 556.53125 187.445312 558 187.480469 559.464844 187.550781 C 560.929688 187.625 562.394531 187.730469 563.851562 187.875 C 565.3125 188.019531 566.769531 188.199219 568.222656 188.414062 C 569.671875 188.628906 571.117188 188.882812 572.558594 189.167969 C 573.996094 189.453125 575.429688 189.773438 576.851562 190.132812 C 578.273438 190.488281 579.6875 190.878906 581.09375 191.304688 C 582.496094 191.730469 583.890625 192.191406 585.273438 192.6875 C 586.652344 193.179688 588.023438 193.710938 589.378906 194.269531 C 590.734375 194.832031 592.074219 195.425781 593.402344 196.054688 C 594.726562 196.683594 596.039062 197.34375 597.332031 198.035156 C 598.625 198.726562 599.902344 199.449219 601.160156 200.203125 C 602.421875 200.957031 603.660156 201.742188 604.878906 202.558594 C 606.101562 203.375 607.300781 204.21875 608.476562 205.09375 C 609.65625 205.96875 610.8125 206.871094 611.945312 207.800781 C 613.082031 208.734375 614.191406 209.691406 615.28125 210.675781 C 616.367188 211.664062 617.429688 212.675781 618.46875 213.710938 C 619.503906 214.75 620.515625 215.8125 621.5 216.898438 C 622.488281 217.988281 623.445312 219.097656 624.375 220.234375 C 625.308594 221.367188 626.210938 222.523438 627.082031 223.703125 C 627.957031 224.882812 628.800781 226.082031 629.617188 227.300781 C 630.433594 228.523438 631.21875 229.761719 631.972656 231.019531 C 632.726562 232.28125 633.449219 233.558594 634.140625 234.851562 C 634.832031 236.144531 635.492188 237.457031 636.121094 238.785156 C 636.746094 240.109375 637.34375 241.453125 637.902344 242.808594 C 638.464844 244.164062 638.992188 245.53125 639.488281 246.914062 C 639.980469 248.296875 640.441406 249.691406 640.867188 251.09375 C 641.292969 252.5 641.6875 253.914062 642.042969 255.335938 C 642.398438 256.761719 642.71875 258.191406 643.007812 259.632812 C 643.292969 261.070312 643.542969 262.515625 643.757812 263.96875 C 643.972656 265.421875 644.152344 266.875 644.296875 268.335938 C 644.441406 269.796875 644.550781 271.261719 644.621094 272.726562 C 644.691406 274.195312 644.730469 275.660156 644.730469 277.128906 Z M 644.730469 277.128906 " fill-opacity="1" fill-rule="nonzero"/></g><path fill="#050038" d="M 576.933594 291.007812 C 576.648438 306.878906 560.136719 315.789062 545.890625 315.800781 C 531.640625 315.816406 515.128906 306.859375 514.84375 291.007812 C 514.703125 283.28125 502.679688 283.253906 502.820312 291.007812 C 503.226562 313.535156 524.921875 327.828125 545.890625 327.828125 C 566.859375 327.828125 588.550781 313.535156 588.957031 291.007812 C 589.097656 283.269531 577.074219 283.265625 576.933594 291.007812 Z M 576.933594 291.007812 " fill-opacity="1" fill-rule="nonzero"/><path fill="#050038" d="M 561.378906 260.925781 C 570.664062 260.925781 570.679688 246.496094 561.378906 246.496094 C 552.097656 246.496094 552.082031 260.925781 561.378906 260.925781 Z M 561.378906 260.925781 " fill-opacity="1" fill-rule="nonzero"/><path fill="#050038" d="M 528.421875 260.925781 C 537.703125 260.925781 537.71875 246.496094 528.421875 246.496094 C 519.136719 246.496094 519.121094 260.925781 528.421875 260.925781 Z M 528.421875 260.925781 " fill-opacity="1" fill-rule="nonzero"/><path fill="#ff6575" d="M 265.886719 282.085938 L 251.191406 283.679688 C 246.820312 284.152344 242.894531 280.992188 242.421875 276.617188 L 240.171875 255.84375 C 239.699219 251.472656 242.859375 247.542969 247.230469 247.070312 L 248.796875 246.902344 C 255.472656 246.179688 260.40625 244.269531 263.597656 241.171875 C 266.789062 238.078125 268.113281 233.988281 267.5625 228.90625 C 267.121094 224.832031 265.402344 221.535156 262.410156 219.019531 C 259.417969 216.503906 255.972656 215.457031 252.074219 215.878906 C 247.9375 216.324219 244.824219 217.785156 242.730469 220.253906 C 241.589844 221.597656 240.78125 223.214844 240.3125 225.101562 C 239.507812 228.332031 236.765625 230.71875 233.457031 231.074219 L 209.53125 233.667969 L 209.492188 233.3125 C 208.246094 221.789062 211.355469 212.140625 218.820312 204.367188 C 226.289062 196.59375 236.933594 191.960938 250.757812 190.460938 C 263.28125 189.105469 273.761719 191.648438 282.203125 198.085938 C 290.636719 204.527344 295.496094 213.65625 296.777344 225.476562 C 297.84375 235.34375 296.070312 243.664062 291.453125 250.441406 C 288.007812 255.503906 283.480469 259 277.878906 260.925781 C 274.371094 262.132812 272.144531 265.582031 272.527344 269.273438 L 272.949219 273.351562 C 273.398438 277.710938 270.242188 281.613281 265.886719 282.085938 Z M 242.652344 314.375 C 242.109375 309.355469 243.390625 304.910156 246.5 301.046875 C 249.609375 297.183594 253.671875 294.976562 258.695312 294.433594 C 263.773438 293.882812 268.199219 295.152344 271.972656 298.242188 C 275.742188 301.332031 277.90625 305.417969 278.453125 310.5 C 279.003906 315.582031 277.753906 320.035156 274.699219 323.863281 C 271.648438 327.691406 267.609375 329.878906 262.589844 330.421875 C 257.628906 330.957031 253.199219 329.671875 249.308594 326.566406 C 245.414062 323.460938 243.195312 319.398438 242.652344 314.375 Z M 242.652344 314.375 " fill-opacity="1" fill-rule="nonzero"/><path fill="#050038" d="M 541.328125 482.414062 L 530.109375 481.488281 C 526.769531 481.214844 524.289062 478.285156 524.5625 474.949219 L 525.867188 459.085938 C 526.140625 455.746094 529.070312 453.261719 532.40625 453.539062 L 533.605469 453.636719 C 538.703125 454.054688 542.667969 453.339844 545.5 451.480469 C 548.332031 449.625 549.90625 446.757812 550.226562 442.875 C 550.484375 439.765625 549.671875 437.050781 547.796875 434.738281 C 545.921875 432.425781 543.496094 431.148438 540.515625 430.902344 C 537.359375 430.644531 534.820312 431.285156 532.898438 432.832031 C 531.851562 433.671875 531.015625 434.765625 530.394531 436.109375 C 529.324219 438.410156 526.933594 439.800781 524.40625 439.59375 L 506.136719 438.089844 L 506.160156 437.816406 C 506.882812 429.019531 510.597656 422.25 517.300781 417.511719 C 524 412.769531 532.632812 410.835938 543.1875 411.703125 C 552.75 412.492188 560.222656 415.898438 565.609375 421.929688 C 570.992188 427.960938 573.316406 435.488281 572.574219 444.511719 C 571.953125 452.046875 569.429688 458.015625 565.003906 462.421875 C 561.695312 465.710938 557.808594 467.675781 553.339844 468.308594 C 550.542969 468.707031 548.382812 470.96875 548.136719 473.785156 L 547.867188 476.894531 C 547.574219 480.21875 544.652344 482.6875 541.328125 482.414062 Z M 519.308594 503.222656 C 519.621094 499.386719 521.21875 496.25 524.101562 493.804688 C 526.980469 491.363281 530.339844 490.296875 534.171875 490.613281 C 538.050781 490.933594 541.179688 492.519531 543.558594 495.371094 C 545.933594 498.226562 546.960938 501.59375 546.644531 505.472656 C 546.324219 509.351562 544.746094 512.503906 541.914062 514.929688 C 539.082031 517.351562 535.746094 518.40625 531.914062 518.09375 C 528.125 517.78125 524.996094 516.183594 522.53125 513.300781 C 520.066406 510.417969 518.992188 507.058594 519.308594 503.222656 Z M 519.308594 503.222656 " fill-opacity="1" fill-rule="nonzero"/><path fill="#ffbfbf" d="M 490.167969 175.46875 C 480.234375 170.550781 470.300781 165.632812 460.371094 160.710938 C 458.960938 160.015625 457.554688 159.316406 456.144531 158.621094 C 453.332031 157.226562 449.507812 157.769531 447.921875 160.777344 C 446.488281 163.492188 447.070312 167.511719 450.078125 169.003906 C 460.011719 173.921875 469.941406 178.84375 479.875 183.761719 C 481.285156 184.457031 482.691406 185.15625 484.101562 185.851562 C 486.914062 187.246094 490.738281 186.703125 492.324219 183.695312 C 493.757812 180.980469 493.175781 176.960938 490.167969 175.46875 Z M 490.167969 175.46875 " fill-opacity="1" fill-rule="nonzero"/><path fill="#ffbfbf" d="M 471.730469 129.699219 C 479.421875 140.050781 487.113281 150.40625 494.804688 160.757812 C 495.882812 162.210938 496.964844 163.664062 498.042969 165.117188 C 499.914062 167.636719 503.332031 169.167969 506.269531 167.277344 C 508.757812 165.667969 510.429688 161.75 508.425781 159.050781 C 500.734375 148.695312 493.042969 138.34375 485.351562 127.992188 C 484.273438 126.539062 483.191406 125.082031 482.113281 123.628906 C 480.242188 121.113281 476.824219 119.578125 473.886719 121.472656 C 471.398438 123.078125 469.726562 127 471.730469 129.699219 Z M 471.730469 129.699219 " fill-opacity="1" fill-rule="nonzero"/><path fill="#ffbfbf" d="M 205.003906 370.988281 C 196.4375 366.746094 187.875 362.503906 179.308594 358.261719 C 178.09375 357.660156 176.878906 357.058594 175.664062 356.457031 C 172.851562 355.0625 169.027344 355.609375 167.441406 358.613281 C 166.003906 361.332031 166.589844 365.351562 169.597656 366.839844 C 178.164062 371.082031 186.726562 375.324219 195.292969 379.566406 C 196.507812 380.167969 197.722656 380.769531 198.9375 381.371094 C 201.75 382.765625 205.574219 382.21875 207.160156 379.214844 C 208.597656 376.5 208.011719 372.476562 205.003906 370.988281 Z M 205.003906 370.988281 " fill-opacity="1" fill-rule="nonzero"/><path fill="#ffbfbf" d="M 187.972656 332.648438 C 194.605469 341.578125 201.238281 350.503906 207.871094 359.433594 C 208.800781 360.6875 209.734375 361.941406 210.664062 363.195312 C 212.535156 365.710938 215.953125 367.242188 218.890625 365.351562 C 221.378906 363.746094 223.050781 359.824219 221.046875 357.125 C 214.414062 348.195312 207.78125 339.269531 201.148438 330.339844 C 200.21875 329.085938 199.285156 327.832031 198.355469 326.578125 C 196.484375 324.0625 193.066406 322.527344 190.128906 324.421875 C 187.640625 326.027344 185.96875 329.949219 187.972656 332.648438 Z M 187.972656 332.648438 " fill-opacity="1" fill-rule="nonzero"/><path fill="#ff6575" d="M 475.621094 430.015625 C 475.3125 430.015625 475.40625 429.230469 473.257812 429.0625 C 473.128906 429.058594 471.949219 428.988281 470.015625 428.730469 C 467.421875 428.441406 464.96875 427.5625 462.933594 426.1875 C 461.621094 425.253906 460.550781 424.109375 459.785156 422.820312 C 458.917969 421.3125 458.277344 419.71875 457.886719 418.078125 C 457.070312 414.714844 456.699219 411.289062 456.773438 407.859375 C 456.773438 407.667969 456.785156 407.410156 456.785156 407.214844 C 456.828125 406.730469 456.390625 406.3125 455.808594 406.277344 C 455.773438 406.273438 455.738281 406.273438 455.703125 406.273438 C 454.957031 406.226562 454.351562 406.605469 454.351562 407.039062 C 454.351562 407.46875 454.355469 407.707031 454.359375 407.910156 C 454.351562 410.566406 454.125 413.21875 453.671875 415.847656 C 453.300781 418.714844 452.195312 421.476562 450.4375 423.957031 C 448.757812 426.0625 446.199219 427.570312 443.261719 428.195312 C 440.734375 428.757812 438.128906 429.054688 435.511719 429.074219 C 433.28125 429.089844 433.851562 429.957031 433.851562 429.957031 C 433.851562 430.882812 435.511719 431.054688 435.511719 431.054688 C 436.558594 431.082031 437.269531 431.101562 437.933594 431.117188 C 439.644531 431.199219 441.347656 431.417969 443.011719 431.761719 C 445.320312 432.210938 447.429688 433.195312 449.101562 434.597656 C 450.96875 436.359375 452.285156 438.484375 452.929688 440.773438 C 453.671875 443.222656 454.128906 445.730469 454.285156 448.253906 C 454.445312 450.007812 454.46875 451.785156 454.511719 453.34375 C 454.511719 453.34375 454.585938 453.964844 455.582031 453.9375 C 456.578125 453.914062 456.625 453.34375 456.625 453.34375 C 456.492188 449.246094 456.9375 445.152344 457.949219 441.140625 C 458.542969 438.46875 460.105469 436.007812 462.425781 434.097656 C 463.863281 433.003906 465.589844 432.210938 467.460938 431.773438 C 468.207031 431.566406 468.96875 431.410156 469.742188 431.304688 C 470.386719 431.1875 471.035156 431.105469 471.691406 431.058594 C 472.792969 431.003906 473.890625 430.894531 474.980469 430.726562 C 475.621094 430.671875 475.230469 430.015625 475.621094 430.015625 Z M 475.621094 430.015625 " fill-opacity="1" fill-rule="nonzero"/><path fill="#ff6575" d="M 476.582031 426.535156 C 477.847656 426.957031 478.417969 427.726562 477.679688 427.050781 C 477.085938 426.507812 476.574219 426.234375 475.828125 425.960938 C 474.953125 425.636719 474.0625 425.542969 473.136719 425.449219 C 470.679688 425.199219 468.257812 425.007812 466.023438 423.835938 C 460.46875 420.925781 460.585938 413.265625 460.378906 407.859375 C 460.273438 405.042969 458.808594 402.726562 455.703125 402.667969 C 452.207031 402.601562 450.78125 405.257812 450.746094 408.351562 C 450.6875 413.59375 450.289062 421.199219 444.878906 423.859375 C 442.316406 425.121094 439.1875 425.324219 436.386719 425.453125 C 433.917969 425.566406 431.054688 425.867188 430.3125 428.722656 C 430.140625 429.378906 430.144531 430.121094 430.320312 430.78125 C 430.433594 431.203125 431.011719 432.371094 430.5 431.320312 C 431.078125 432.503906 431.648438 433.335938 432.863281 433.96875 C 435.113281 435.144531 437.941406 434.597656 440.375 434.9375 C 442.8125 435.277344 445.308594 435.902344 447.09375 437.6875 C 449.230469 439.824219 449.964844 442.972656 450.421875 445.863281 C 450.851562 448.578125 450.296875 451.789062 451.058594 454.398438 C 451.898438 457.269531 455.480469 458.273438 457.984375 456.949219 C 461.160156 455.269531 460.117188 451.007812 460.378906 448.085938 C 460.640625 445.160156 461.015625 441.65625 462.652344 439.15625 C 464.503906 436.328125 467.484375 435.238281 470.703125 434.78125 C 472.167969 434.574219 473.65625 434.566406 475.121094 434.320312 C 475.875 434.195312 476.511719 434.066406 477.164062 433.632812 C 477.707031 433.3125 478.136719 432.882812 478.457031 432.339844 C 479.027344 431.109375 478.929688 431.183594 478.171875 432.566406 C 481.671875 429.503906 476.554688 424.417969 473.070312 427.464844 C 472.425781 428.03125 472.066406 428.734375 471.867188 429.558594 C 472.417969 428.839844 472.972656 428.121094 473.523438 427.402344 C 473.292969 427.535156 472.105469 427.410156 471.691406 427.449219 C 470.933594 427.519531 470.179688 427.609375 469.429688 427.71875 C 467.910156 427.945312 466.390625 428.246094 464.9375 428.753906 C 461.816406 429.851562 459.242188 431.722656 457.25 434.359375 C 455.359375 436.863281 454.480469 439.71875 453.898438 442.773438 C 453.59375 444.382812 453.367188 446.015625 453.207031 447.648438 C 453.121094 448.519531 453.0625 449.394531 453.027344 450.273438 C 453.007812 450.710938 453 451.148438 452.996094 451.589844 C 452.816406 453.261719 453.359375 452.886719 454.625 450.460938 C 455.261719 450.460938 455.902344 450.460938 456.542969 450.460938 C 457.765625 452.941406 458.277344 453.359375 458.074219 451.722656 C 458.066406 451.292969 458.050781 450.867188 458.03125 450.4375 C 457.984375 449.429688 457.925781 448.417969 457.828125 447.414062 C 457.664062 445.691406 457.425781 443.972656 457.054688 442.28125 C 456.308594 438.890625 455.011719 435.777344 452.707031 433.144531 C 450.457031 430.585938 447.269531 429 443.96875 428.28125 C 442.273438 427.914062 440.519531 427.6875 438.789062 427.5625 C 438.148438 427.515625 437.507812 427.488281 436.867188 427.484375 C 436 427.476562 435.878906 427.308594 436.6875 428.246094 C 437.449219 429.289062 437.542969 429.25 436.96875 428.136719 C 434.363281 431.335938 434.023438 432.851562 435.949219 432.675781 C 436.882812 432.828125 438.054688 432.585938 438.988281 432.492188 C 440.738281 432.316406 442.503906 432.070312 444.21875 431.671875 C 447.332031 430.949219 450.378906 429.40625 452.550781 427.023438 C 457.335938 421.761719 457.996094 413.808594 457.957031 407.039062 C 457.792969 407.644531 457.628906 408.25 457.464844 408.859375 C 457.257812 409.0625 457.050781 409.265625 456.839844 409.46875 C 456.234375 409.632812 455.628906 409.796875 455.019531 409.960938 C 456.730469 409.929688 456.113281 409.226562 453.167969 407.859375 C 453.152344 408.429688 453.152344 409 453.167969 409.574219 C 453.1875 410.429688 453.234375 411.285156 453.304688 412.140625 C 453.480469 414.167969 453.769531 416.207031 454.210938 418.195312 C 455.054688 421.984375 456.742188 425.699219 459.746094 428.253906 C 462.671875 430.738281 466.277344 431.851562 470.015625 432.335938 C 470.800781 432.4375 472.523438 432.960938 473.257812 432.671875 C 473.796875 432.457031 472.722656 432.175781 472.875 432.441406 C 473.175781 432.976562 474.136719 433.320312 474.664062 433.492188 C 479.078125 434.960938 480.972656 427.996094 476.582031 426.535156 Z M 476.582031 426.535156 " fill-opacity="1" fill-rule="nonzero"/><path fill="#fdd02f" d="M 376.289062 156.683594 C 375.898438 156.683594 376.019531 155.699219 373.316406 155.488281 C 373.15625 155.480469 371.675781 155.394531 369.25 155.070312 C 365.988281 154.707031 362.910156 153.601562 360.355469 151.875 C 358.707031 150.703125 357.363281 149.265625 356.402344 147.648438 C 355.308594 145.753906 354.507812 143.753906 354.015625 141.695312 C 352.992188 137.472656 352.523438 133.167969 352.617188 128.859375 C 352.621094 128.617188 352.632812 128.300781 352.632812 128.054688 C 352.6875 127.445312 352.136719 126.917969 351.40625 126.875 C 351.363281 126.871094 351.320312 126.871094 351.277344 126.871094 C 350.339844 126.808594 349.574219 127.285156 349.574219 127.828125 C 349.574219 128.371094 349.582031 128.667969 349.585938 128.925781 C 349.578125 132.261719 349.289062 135.59375 348.726562 138.894531 C 348.257812 142.492188 346.871094 145.960938 344.660156 149.078125 C 342.554688 151.71875 339.339844 153.617188 335.648438 154.398438 C 332.476562 155.105469 329.207031 155.480469 325.921875 155.503906 C 323.113281 155.519531 323.835938 156.609375 323.835938 156.609375 C 323.835938 157.773438 325.921875 157.992188 325.921875 157.992188 C 327.234375 158.027344 328.125 158.046875 328.957031 158.070312 C 331.109375 158.171875 333.246094 158.445312 335.335938 158.878906 C 338.234375 159.445312 340.886719 160.679688 342.984375 162.4375 C 345.328125 164.652344 346.980469 167.320312 347.792969 170.195312 C 348.726562 173.273438 349.296875 176.417969 349.496094 179.589844 C 349.695312 181.789062 349.722656 184.023438 349.777344 185.980469 C 349.777344 185.980469 349.871094 186.757812 351.125 186.726562 C 352.375 186.695312 352.433594 185.980469 352.433594 185.980469 C 352.265625 180.835938 352.824219 175.695312 354.097656 170.660156 C 354.839844 167.300781 356.800781 164.210938 359.71875 161.808594 C 361.523438 160.4375 363.691406 159.441406 366.042969 158.894531 C 366.976562 158.632812 367.933594 158.433594 368.90625 158.304688 C 369.710938 158.15625 370.527344 158.050781 371.351562 157.992188 C 372.738281 157.925781 374.117188 157.789062 375.480469 157.578125 C 376.289062 157.511719 375.800781 156.683594 376.289062 156.683594 Z M 376.289062 156.683594 " fill-opacity="1" fill-rule="nonzero"/><path fill="#fdd02f" d="M 377.246094 153.207031 C 378.554688 153.640625 379.019531 154.335938 378.21875 153.613281 C 377.605469 153.058594 377.070312 152.777344 376.300781 152.480469 C 375.285156 152.089844 374.25 151.980469 373.167969 151.871094 C 369.917969 151.542969 366.722656 151.277344 363.769531 149.722656 C 356.464844 145.875 356.480469 136.015625 356.226562 128.859375 C 356.117188 125.804688 354.648438 123.367188 351.277344 123.265625 C 347.398438 123.144531 346.007812 126.128906 345.972656 129.480469 C 345.894531 136.4375 345.257812 146.203125 338.148438 149.75 C 334.789062 151.429688 330.695312 151.707031 327.015625 151.875 C 324.355469 151.996094 321.089844 152.175781 320.277344 155.304688 C 320.058594 156.148438 320.171875 156.558594 320.289062 157.398438 C 320.339844 157.757812 320.933594 158.976562 320.511719 158.074219 C 321.101562 159.339844 321.785156 160.199219 323.058594 160.851562 C 325.78125 162.246094 329.335938 161.558594 332.273438 161.976562 C 335.496094 162.4375 338.753906 163.304688 341.117188 165.667969 C 343.925781 168.472656 344.921875 172.539062 345.53125 176.339844 C 345.820312 178.140625 345.941406 179.96875 346.039062 181.789062 C 346.125 183.441406 345.828125 185.472656 346.332031 187.0625 C 347.28125 190.0625 351.003906 191.105469 353.675781 189.710938 C 357.222656 187.859375 355.933594 182.601562 356.222656 179.375 C 356.566406 175.542969 357.070312 170.984375 359.207031 167.695312 C 361.65625 163.925781 365.582031 162.410156 369.867188 161.78125 C 371.703125 161.511719 373.589844 161.558594 375.414062 161.203125 C 376.292969 161.03125 376.996094 160.945312 377.761719 160.433594 C 378.304688 160.109375 378.734375 159.679688 379.054688 159.136719 C 379.605469 157.953125 379.53125 157.984375 378.839844 159.234375 C 382.339844 156.171875 377.21875 151.085938 373.738281 154.132812 C 373.042969 154.742188 372.675781 155.46875 372.460938 156.359375 C 373.015625 155.640625 373.566406 154.921875 374.121094 154.203125 C 373.179688 154.742188 370.898438 154.414062 369.714844 154.5625 C 368.15625 154.761719 366.605469 155.019531 365.082031 155.414062 C 361.898438 156.246094 358.90625 157.644531 356.457031 159.875 C 351.46875 164.417969 350.050781 170.738281 349.246094 177.183594 C 349.019531 179.007812 348.867188 180.839844 348.816406 182.675781 C 348.8125 182.902344 348.625 184.546875 348.800781 184.878906 C 350.320312 184.914062 351.839844 184.945312 353.359375 184.980469 C 353.34375 184.277344 353.320312 183.578125 353.296875 182.875 C 353.160156 179.34375 352.84375 175.792969 352.082031 172.335938 C 350.707031 166.097656 347.59375 160.296875 341.707031 157.300781 C 338.71875 155.78125 335.472656 155.136719 332.171875 154.742188 C 330.777344 154.578125 329.371094 154.421875 327.96875 154.4375 C 327.546875 154.441406 327.097656 154.308594 326.726562 154.492188 C 326.128906 154.285156 326.164062 154.464844 326.824219 155.03125 C 327.445312 155.933594 327.488281 155.851562 326.949219 154.789062 C 327.65625 159.367188 324.039062 159.21875 327.5625 159.066406 C 328.472656 159.027344 329.378906 158.964844 330.285156 158.875 C 331.867188 158.714844 333.449219 158.492188 335.011719 158.199219 C 338.246094 157.597656 341.355469 156.53125 344.027344 154.574219 C 349.484375 150.574219 351.644531 144.09375 352.539062 137.648438 C 352.789062 135.859375 352.984375 134.0625 353.089844 132.257812 C 353.132812 131.519531 353.164062 130.777344 353.179688 130.035156 C 353.210938 128.511719 353.601562 128.050781 352.230469 129.480469 C 351.914062 129.8125 351.59375 130.148438 351.277344 130.480469 C 349.484375 128.261719 348.726562 128.082031 349 129.9375 C 348.902344 130.570312 349.019531 131.425781 349.046875 132.089844 C 349.136719 134.203125 349.375 136.316406 349.699219 138.40625 C 350.867188 145.867188 353.828125 152.921875 360.964844 156.375 C 364.191406 157.933594 367.558594 158.519531 371.089844 158.902344 C 372.027344 159.003906 372.996094 158.996094 373.90625 159.242188 C 373.867188 159.230469 372.976562 158.820312 373.488281 159.078125 C 374.1875 159.429688 374.535156 159.898438 375.328125 160.164062 C 379.746094 161.628906 381.640625 154.664062 377.246094 153.207031 Z M 377.246094 153.207031 " fill-opacity="1" fill-rule="nonzero"/></svg>