<svg xmlns="http://www.w3.org/2000/svg" xmlns:xlink="http://www.w3.org/1999/xlink" width="1000" zoomAndPan="magnify" viewBox="0 0 750 749.999995" height="1000" preserveAspectRatio="xMidYMid meet" version="1.0"><defs><clipPath id="f966c56df4"><path d="M 52 677 L 416 677 L 416 700.164062 L 52 700.164062 Z M 52 677 " clip-rule="nonzero"/></clipPath><clipPath id="2bc0c6dc5d"><path d="M 13.261719 85 L 346 85 L 346 418 L 13.261719 418 Z M 13.261719 85 " clip-rule="nonzero"/></clipPath></defs><path fill="#d9d9d9" d="M 450.378906 379.972656 C 420.164062 374.855469 405.488281 399.957031 401.496094 414.859375 C 397.503906 429.761719 358.394531 575.773438 358.394531 575.773438 C 346.097656 617.226562 421.425781 632.550781 433.761719 595.542969 C 433.761719 595.542969 471.078125 462.542969 476.699219 434.882812 C 482.320312 407.222656 480.597656 385.089844 450.378906 379.972656 Z M 450.378906 379.972656 " fill-opacity="1" fill-rule="nonzero"/><path fill="#5271ff" d="M 399.269531 617.527344 C 393.699219 617.527344 387.988281 616.667969 382.5625 614.957031 C 373.445312 612.085938 365.894531 607.019531 361.296875 600.6875 C 356.027344 593.4375 354.6875 584.726562 357.417969 575.5 L 400.519531 414.597656 C 404.714844 398.929688 419.976562 373.796875 450.550781 378.976562 C 461.984375 380.914062 469.886719 385.269531 474.703125 392.296875 C 480.9375 401.386719 481.859375 414.582031 477.691406 435.082031 C 472.128906 462.464844 435.109375 594.488281 434.738281 595.816406 C 434.730469 595.832031 434.726562 595.847656 434.722656 595.863281 C 433.082031 600.785156 430.296875 605.007812 426.449219 608.414062 C 422.910156 611.550781 418.546875 613.929688 413.488281 615.484375 C 409.058594 616.847656 404.21875 617.527344 399.269531 617.527344 Z M 442.660156 380.316406 C 418.519531 380.316406 406.128906 401.472656 402.472656 415.121094 L 359.371094 576.035156 C 359.367188 576.046875 359.367188 576.054688 359.363281 576.0625 C 353.464844 595.949219 368.5 608.40625 383.167969 613.027344 C 402.597656 619.152344 426.46875 614.171875 432.796875 595.246094 C 433.46875 592.847656 470.183594 461.875 475.710938 434.679688 C 479.757812 414.761719 478.933594 402.042969 473.035156 393.441406 C 468.542969 386.890625 461.078125 382.8125 450.210938 380.972656 C 447.578125 380.523438 445.058594 380.316406 442.660156 380.316406 Z M 433.761719 595.542969 L 433.765625 595.542969 Z M 433.761719 595.542969 " fill-opacity="1" fill-rule="nonzero"/><path fill="#5271ff" d="M 394.089844 418.214844 L 377.90625 473.738281 L 369.664062 501.941406 L 461.464844 527.199219 L 469.222656 501.050781 L 485.234375 446.992188 C 489.738281 433.039062 493.742188 392.003906 458.335938 378.648438 C 422.941406 365.269531 399.449219 399.828125 394.089844 418.214844 Z M 394.089844 418.214844 " fill-opacity="1" fill-rule="nonzero"/><path fill="#d9d9d9" d="M 376.472656 543.886719 C 364.558594 548.050781 315.734375 565.222656 280.246094 579.34375 C 252.097656 590.546875 245.945312 627.078125 260.304688 645.375 C 274.664062 663.675781 299.148438 666.792969 316.558594 658.722656 C 341.0625 647.359375 396.21875 623.09375 407.402344 617.796875 C 423.492188 610.179688 437.730469 594.375 434.792969 574.707031 " fill-opacity="1" fill-rule="nonzero"/><path fill="#5271ff" d="M 297.066406 663.9375 C 293.742188 663.9375 290.394531 663.605469 287.085938 662.929688 C 275.953125 660.660156 266.417969 654.808594 259.507812 646 C 252.15625 636.632812 249.867188 622.367188 253.53125 608.769531 C 257.34375 594.617188 266.945312 583.550781 279.875 578.40625 C 314.9375 564.453125 362.421875 547.722656 376.140625 542.929688 C 376.667969 542.746094 377.246094 543.023438 377.429688 543.550781 C 377.613281 544.078125 377.335938 544.65625 376.808594 544.839844 C 363.097656 549.632812 315.648438 566.347656 280.621094 580.285156 C 268.292969 585.191406 259.132812 595.765625 255.484375 609.296875 C 251.984375 622.289062 254.136719 635.875 261.101562 644.75 C 270.578125 656.828125 284.105469 661.917969 296.898438 661.917969 C 303.769531 661.917969 310.425781 660.449219 316.132812 657.804688 C 329.425781 651.640625 351.585938 641.746094 371.136719 633.019531 C 387.625 625.660156 401.859375 619.300781 406.972656 616.882812 C 421.230469 610.132812 436.8125 595.074219 433.792969 574.855469 C 433.710938 574.304688 434.089844 573.789062 434.644531 573.703125 C 435.199219 573.625 435.710938 574.003906 435.792969 574.554688 C 437.1875 583.882812 434.859375 593.152344 429.058594 601.355469 C 424.054688 608.4375 416.515625 614.601562 407.835938 618.710938 C 402.707031 621.140625 388.457031 627.5 371.960938 634.867188 C 352.417969 643.59375 330.261719 653.484375 316.980469 659.640625 C 310.851562 662.484375 304.011719 663.9375 297.066406 663.9375 Z M 297.066406 663.9375 " fill-opacity="1" fill-rule="nonzero"/><path fill="#d9d9d9" d="M 291.398438 579.160156 C 253.265625 579.945312 202.28125 597.824219 185.523438 651.300781 C 183.617188 660.527344 188.503906 669.792969 197.195312 673.421875 C 210.660156 679.039062 236.164062 687.214844 253.191406 693.140625 C 262.578125 696.40625 272.746094 692.046875 277.261719 683.195312 C 293.296875 651.761719 314.570312 679.828125 337.757812 647.820312 C 339.046875 646.039062 340.242188 644.210938 341.328125 642.351562 " fill-opacity="1" fill-rule="nonzero"/><path fill="#5271ff" d="M 259.558594 695.230469 C 257.296875 695.230469 255.035156 694.851562 252.859375 694.097656 C 247.945312 692.386719 242.378906 690.507812 236.484375 688.515625 C 222.390625 683.757812 206.414062 678.363281 196.804688 674.355469 C 187.695312 670.554688 182.535156 660.773438 184.53125 651.097656 C 184.539062 651.066406 184.546875 651.03125 184.554688 651 C 188.574219 638.183594 194.777344 626.71875 202.996094 616.929688 C 210.386719 608.128906 219.453125 600.613281 229.941406 594.59375 C 247.632812 584.441406 269.449219 578.601562 291.378906 578.148438 C 291.933594 578.136719 292.398438 578.582031 292.410156 579.140625 C 292.421875 579.699219 291.976562 580.160156 291.417969 580.171875 C 251.265625 581 202.625 600.1875 186.5 651.558594 C 184.726562 660.265625 189.382812 669.066406 197.582031 672.488281 C 207.125 676.46875 223.066406 681.851562 237.132812 686.601562 C 243.03125 688.589844 248.601562 690.472656 253.523438 692.183594 C 262.390625 695.269531 271.996094 691.296875 276.363281 682.734375 C 284.636719 666.511719 294.410156 665.636719 304.753906 664.714844 C 315.011719 663.796875 325.621094 662.847656 336.9375 647.226562 C 338.210938 645.46875 339.394531 643.65625 340.453125 641.839844 C 340.734375 641.359375 341.355469 641.195312 341.835938 641.476562 C 342.320312 641.761719 342.480469 642.378906 342.199219 642.863281 C 341.109375 644.734375 339.886719 646.601562 338.574219 648.414062 C 326.71875 664.785156 315.144531 665.816406 304.933594 666.730469 C 294.738281 667.640625 285.929688 668.425781 278.164062 683.65625 C 275.859375 688.171875 272.050781 691.71875 267.441406 693.644531 C 264.917969 694.699219 262.242188 695.230469 259.558594 695.230469 Z M 259.558594 695.230469 " fill-opacity="1" fill-rule="nonzero"/><path fill="#d9d9d9" d="M 241.671875 681.996094 C 241.671875 681.996094 244.707031 650.246094 273.675781 632.175781 " fill-opacity="1" fill-rule="nonzero"/><path fill="#5271ff" d="M 241.671875 683.007812 C 241.640625 683.007812 241.605469 683.003906 241.574219 683 C 241.019531 682.949219 240.609375 682.453125 240.664062 681.898438 C 240.695312 681.566406 241.488281 673.6875 245.878906 663.460938 C 248.460938 657.460938 251.75 651.90625 255.660156 646.957031 C 260.554688 640.761719 266.433594 635.5 273.140625 631.316406 C 273.613281 631.019531 274.238281 631.164062 274.53125 631.640625 C 274.828125 632.113281 274.683594 632.738281 274.210938 633.035156 C 259.496094 642.214844 251.710938 655.046875 247.769531 664.195312 C 243.484375 674.140625 242.683594 682.011719 242.675781 682.089844 C 242.625 682.613281 242.1875 683.007812 241.671875 683.007812 Z M 241.671875 683.007812 " fill-opacity="1" fill-rule="nonzero"/><path fill="#d9d9d9" d="M 208.769531 670.503906 C 208.769531 670.503906 211.625 638.4375 238.855469 618.464844 " fill-opacity="1" fill-rule="nonzero"/><path fill="#5271ff" d="M 208.769531 671.515625 C 208.742188 671.515625 208.710938 671.515625 208.679688 671.511719 C 208.125 671.460938 207.710938 670.96875 207.761719 670.414062 C 207.792969 670.078125 208.535156 662.132812 212.660156 651.605469 C 216.464844 641.886719 223.996094 628.109375 238.257812 617.648438 C 238.710938 617.316406 239.34375 617.417969 239.671875 617.867188 C 240.003906 618.316406 239.90625 618.949219 239.457031 619.28125 C 225.585938 629.453125 218.25 642.875 214.542969 652.34375 C 210.523438 662.601562 209.785156 670.515625 209.777344 670.59375 C 209.730469 671.117188 209.289062 671.515625 208.769531 671.515625 Z M 208.769531 671.515625 " fill-opacity="1" fill-rule="nonzero"/><path fill="#d9d9d9" d="M 553.28125 361.675781 L 506.980469 361.675781 C 492.601562 361.675781 480.070312 363.460938 469.011719 366.710938 C 433.074219 377.269531 408.945312 411.019531 409.285156 448.488281 L 410.960938 633.738281 C 410.960938 685.914062 644.71875 681.71875 644.71875 633.738281 L 651.457031 463.757812 C 653.644531 408.609375 609.996094 362.191406 554.828125 361.683594 C 554.316406 361.679688 553.800781 361.675781 553.28125 361.675781 Z M 553.28125 361.675781 " fill-opacity="1" fill-rule="nonzero"/><path fill="#5271ff" d="M 524.175781 672.324219 C 494.007812 672.324219 466.1875 669.039062 445.835938 663.074219 C 434.714844 659.8125 426.019531 655.8125 419.992188 651.1875 C 413.328125 646.070312 409.949219 640.199219 409.949219 633.738281 L 408.273438 448.496094 C 408.1875 439.164062 409.597656 429.941406 412.457031 421.078125 C 415.261719 412.398438 419.386719 404.269531 424.726562 396.914062 C 430.089844 389.527344 436.535156 383.113281 443.882812 377.851562 C 451.445312 372.4375 459.804688 368.363281 468.726562 365.742188 C 480.1875 362.371094 493.058594 360.664062 506.980469 360.664062 L 553.28125 360.664062 C 553.804688 360.664062 554.324219 360.667969 554.839844 360.671875 C 568.382812 360.796875 581.472656 363.628906 593.746094 369.089844 C 605.574219 374.351562 616.128906 381.8125 625.125 391.261719 C 634.199219 400.792969 641.191406 411.832031 645.914062 424.070312 C 650.804688 436.75 653.011719 450.117188 652.46875 463.796875 L 645.730469 633.757812 C 645.714844 645.628906 632.351562 655.628906 607.082031 662.683594 C 585.136719 668.8125 554.921875 672.324219 524.175781 672.324219 Z M 506.980469 362.6875 C 493.253906 362.6875 480.574219 364.367188 469.296875 367.683594 C 434.21875 377.988281 409.957031 411.210938 410.296875 448.480469 L 411.972656 633.726562 C 411.972656 648.039062 430.699219 656.527344 446.40625 661.132812 C 466.578125 667.046875 494.195312 670.300781 524.175781 670.300781 C 554.746094 670.300781 584.765625 666.816406 606.539062 660.734375 C 618.230469 657.472656 627.363281 653.5625 633.6875 649.113281 C 640.335938 644.4375 643.707031 639.265625 643.707031 633.738281 C 643.707031 633.722656 643.707031 633.710938 643.707031 633.695312 L 650.449219 463.71875 C 651.5 437.144531 641.988281 411.910156 623.660156 392.65625 C 605.5 373.578125 581.050781 362.9375 554.820312 362.695312 C 554.308594 362.691406 553.796875 362.6875 553.28125 362.6875 Z M 506.980469 362.6875 " fill-opacity="1" fill-rule="nonzero"/><path fill="#5271ff" d="M 604.980469 370.652344 C 588.65625 362.796875 564.136719 360.835938 538.808594 360.835938 C 538.808594 360.835938 538.964844 379.945312 512.371094 379.945312 C 485.773438 379.945312 488.625 361.785156 488.625 361.785156 C 472.699219 363.535156 438.917969 371.238281 428.589844 377.015625 C 410.28125 387.25 400.820312 402.839844 400.398438 420.359375 L 394.292969 691.539062 C 394.328125 694.28125 395.390625 696.792969 397.347656 699.085938 L 650.605469 699.085938 L 654.523438 438.957031 C 654.523438 408.679688 631.652344 383.488281 604.980469 370.652344 Z M 604.980469 370.652344 " fill-opacity="1" fill-rule="nonzero"/><path fill="#d9d9d9" d="M 398.382812 510.855469 C 398.375 510.855469 398.367188 510.855469 398.359375 510.855469 C 397.800781 510.84375 397.359375 510.378906 397.371094 509.820312 L 399.386719 420.335938 C 399.398438 419.785156 399.847656 419.347656 400.398438 419.347656 C 400.40625 419.347656 400.414062 419.347656 400.421875 419.347656 C 400.980469 419.359375 401.421875 419.824219 401.410156 420.382812 L 399.394531 509.867188 C 399.382812 510.417969 398.929688 510.855469 398.382812 510.855469 Z M 398.382812 510.855469 " fill-opacity="1" fill-rule="nonzero"/><path fill="#d9d9d9" d="M 490.574219 366.273438 L 490.574219 336.851562 L 536.503906 336.851562 L 536.503906 365.136719 " fill-opacity="1" fill-rule="nonzero"/><path fill="#5271ff" d="M 490.574219 367.285156 C 490.015625 367.285156 489.5625 366.832031 489.5625 366.273438 L 489.5625 336.851562 C 489.5625 336.292969 490.015625 335.839844 490.574219 335.839844 L 536.503906 335.839844 C 537.0625 335.839844 537.515625 336.292969 537.515625 336.851562 L 537.515625 365.136719 C 537.515625 365.695312 537.0625 366.148438 536.503906 366.148438 C 535.945312 366.148438 535.492188 365.695312 535.492188 365.136719 L 535.492188 337.863281 L 491.585938 337.863281 L 491.585938 366.273438 C 491.585938 366.832031 491.132812 367.285156 490.574219 367.285156 Z M 490.574219 367.285156 " fill-opacity="1" fill-rule="nonzero"/><path fill="#5271ff" d="M 530.046875 320.632812 L 546.738281 322.9375 L 562.820312 325.15625 C 575.304688 326.878906 586.820312 318.152344 588.542969 305.664062 L 594.949219 259.207031 L 539.578125 251.5625 Z M 530.046875 320.632812 " fill-opacity="1" fill-rule="nonzero"/><path fill="#d9d9d9" d="M 530.011719 345.277344 C 515.042969 346.019531 499.898438 343.875 486.289062 339.40625 C 469.160156 333.785156 458.476562 316.753906 460.9375 298.890625 L 469.0625 240.015625 C 471.304688 223.753906 486.296875 212.394531 502.550781 214.636719 L 547.945312 220.90625 C 564.199219 223.148438 575.554688 238.148438 573.3125 254.410156 L 565.210938 313.152344 C 562.753906 330.949219 547.949219 344.382812 530.011719 345.277344 Z M 530.011719 345.277344 " fill-opacity="1" fill-rule="nonzero"/><path fill="#5271ff" d="M 524.136719 346.433594 C 511.222656 346.433594 498.140625 344.363281 485.972656 340.367188 C 468.355469 334.585938 457.40625 317.085938 459.9375 298.753906 L 468.058594 239.878906 C 470.375 223.089844 485.910156 211.320312 502.6875 213.636719 L 548.082031 219.902344 C 556.210938 221.023438 563.417969 225.246094 568.371094 231.792969 C 573.324219 238.335938 575.4375 246.417969 574.316406 254.550781 L 566.210938 313.292969 C 563.699219 331.496094 548.496094 345.371094 530.0625 346.285156 L 530.011719 345.273438 L 530.0625 346.285156 C 528.09375 346.382812 526.117188 346.433594 524.136719 346.433594 Z M 498.46875 215.367188 C 484.371094 215.367188 472.042969 225.796875 470.0625 240.15625 L 461.941406 299.03125 C 459.546875 316.390625 469.917969 332.96875 486.601562 338.445312 C 500.40625 342.976562 515.398438 344.988281 529.964844 344.265625 C 547.429688 343.398438 561.828125 330.253906 564.207031 313.015625 L 572.3125 254.273438 C 573.359375 246.675781 571.386719 239.125 566.757812 233.011719 C 562.132812 226.898438 555.402344 222.957031 547.808594 221.90625 L 502.414062 215.640625 C 501.089844 215.457031 499.769531 215.367188 498.46875 215.367188 Z M 498.46875 215.367188 " fill-opacity="1" fill-rule="nonzero"/><path fill="#5271ff" d="M 492.105469 269.042969 C 492.105469 269.5 492.0625 269.957031 491.972656 270.40625 C 491.882812 270.855469 491.75 271.292969 491.574219 271.71875 C 491.398438 272.140625 491.183594 272.542969 490.929688 272.925781 C 490.671875 273.308594 490.382812 273.660156 490.058594 273.984375 C 489.734375 274.308594 489.382812 274.601562 489 274.855469 C 488.617188 275.109375 488.214844 275.324219 487.792969 275.5 C 487.367188 275.675781 486.929688 275.808594 486.480469 275.898438 C 486.03125 275.988281 485.578125 276.03125 485.117188 276.03125 C 484.660156 276.03125 484.207031 275.988281 483.753906 275.898438 C 483.304688 275.808594 482.867188 275.675781 482.445312 275.5 C 482.019531 275.324219 481.617188 275.109375 481.234375 274.855469 C 480.855469 274.601562 480.5 274.308594 480.175781 273.984375 C 479.851562 273.660156 479.5625 273.308594 479.308594 272.925781 C 479.054688 272.542969 478.839844 272.140625 478.664062 271.71875 C 478.488281 271.292969 478.355469 270.855469 478.265625 270.40625 C 478.175781 269.957031 478.128906 269.5 478.128906 269.042969 C 478.128906 268.582031 478.175781 268.128906 478.265625 267.679688 C 478.355469 267.226562 478.488281 266.789062 478.664062 266.367188 C 478.839844 265.941406 479.054688 265.539062 479.308594 265.15625 C 479.5625 264.777344 479.851562 264.421875 480.175781 264.097656 C 480.5 263.773438 480.855469 263.484375 481.234375 263.230469 C 481.617188 262.972656 482.019531 262.757812 482.445312 262.582031 C 482.867188 262.40625 483.304688 262.273438 483.753906 262.183594 C 484.207031 262.097656 484.660156 262.050781 485.117188 262.050781 C 485.578125 262.050781 486.03125 262.097656 486.480469 262.183594 C 486.929688 262.273438 487.367188 262.40625 487.792969 262.582031 C 488.214844 262.757812 488.617188 262.972656 489 263.230469 C 489.382812 263.484375 489.734375 263.773438 490.058594 264.097656 C 490.382812 264.421875 490.671875 264.777344 490.929688 265.15625 C 491.183594 265.539062 491.398438 265.941406 491.574219 266.367188 C 491.75 266.789062 491.882812 267.226562 491.972656 267.679688 C 492.0625 268.128906 492.105469 268.582031 492.105469 269.042969 Z M 492.105469 269.042969 " fill-opacity="1" fill-rule="nonzero"/><path fill="#5271ff" d="M 534.632812 274.914062 C 534.632812 275.371094 534.585938 275.828125 534.5 276.277344 C 534.410156 276.726562 534.277344 277.164062 534.101562 277.589844 C 533.925781 278.011719 533.710938 278.414062 533.453125 278.796875 C 533.199219 279.179688 532.910156 279.53125 532.585938 279.855469 C 532.261719 280.179688 531.910156 280.472656 531.527344 280.726562 C 531.144531 280.980469 530.742188 281.195312 530.320312 281.371094 C 529.894531 281.546875 529.457031 281.679688 529.007812 281.769531 C 528.558594 281.859375 528.105469 281.90625 527.644531 281.90625 C 527.1875 281.90625 526.730469 281.859375 526.28125 281.769531 C 525.832031 281.679688 525.394531 281.546875 524.96875 281.371094 C 524.546875 281.195312 524.144531 280.980469 523.761719 280.726562 C 523.382812 280.472656 523.027344 280.179688 522.703125 279.855469 C 522.378906 279.53125 522.089844 279.179688 521.835938 278.796875 C 521.578125 278.414062 521.363281 278.011719 521.1875 277.589844 C 521.011719 277.164062 520.878906 276.726562 520.792969 276.277344 C 520.703125 275.828125 520.65625 275.371094 520.65625 274.914062 C 520.65625 274.453125 520.703125 274 520.792969 273.550781 C 520.878906 273.097656 521.011719 272.664062 521.1875 272.238281 C 521.363281 271.8125 521.578125 271.410156 521.835938 271.03125 C 522.089844 270.648438 522.378906 270.292969 522.703125 269.96875 C 523.027344 269.644531 523.382812 269.355469 523.761719 269.101562 C 524.144531 268.847656 524.546875 268.628906 524.96875 268.453125 C 525.394531 268.277344 525.832031 268.148438 526.28125 268.058594 C 526.730469 267.96875 527.1875 267.921875 527.644531 267.921875 C 528.105469 267.921875 528.558594 267.96875 529.007812 268.058594 C 529.457031 268.148438 529.894531 268.277344 530.320312 268.453125 C 530.742188 268.628906 531.144531 268.847656 531.527344 269.101562 C 531.910156 269.355469 532.261719 269.644531 532.585938 269.96875 C 532.910156 270.292969 533.199219 270.648438 533.453125 271.03125 C 533.710938 271.410156 533.925781 271.8125 534.101562 272.238281 C 534.277344 272.664062 534.410156 273.097656 534.5 273.550781 C 534.585938 274 534.632812 274.453125 534.632812 274.914062 Z M 534.632812 274.914062 " fill-opacity="1" fill-rule="nonzero"/><path fill="#d9d9d9" d="M 533.445312 288.324219 L 529.003906 294.878906 " fill-opacity="1" fill-rule="nonzero"/><path fill="#5271ff" d="M 529.003906 295.890625 C 528.808594 295.890625 528.613281 295.832031 528.4375 295.714844 C 527.976562 295.402344 527.855469 294.773438 528.167969 294.308594 L 532.609375 287.757812 C 532.921875 287.296875 533.550781 287.175781 534.015625 287.488281 C 534.476562 287.800781 534.597656 288.429688 534.285156 288.894531 L 529.84375 295.445312 C 529.648438 295.734375 529.328125 295.890625 529.003906 295.890625 Z M 529.003906 295.890625 " fill-opacity="1" fill-rule="nonzero"/><path fill="#d9d9d9" d="M 537.789062 288.925781 L 533.347656 295.476562 " fill-opacity="1" fill-rule="nonzero"/><path fill="#5271ff" d="M 533.347656 296.488281 C 533.152344 296.488281 532.953125 296.433594 532.78125 296.316406 C 532.316406 296 532.195312 295.371094 532.511719 294.910156 L 536.953125 288.355469 C 537.265625 287.894531 537.894531 287.773438 538.355469 288.085938 C 538.820312 288.402344 538.941406 289.03125 538.625 289.492188 L 534.183594 296.046875 C 533.988281 296.335938 533.671875 296.488281 533.347656 296.488281 Z M 533.347656 296.488281 " fill-opacity="1" fill-rule="nonzero"/><path fill="#d9d9d9" d="M 542.132812 289.523438 L 537.691406 296.078125 " fill-opacity="1" fill-rule="nonzero"/><path fill="#5271ff" d="M 537.6875 297.089844 C 537.492188 297.089844 537.296875 297.03125 537.121094 296.914062 C 536.660156 296.601562 536.539062 295.972656 536.851562 295.507812 L 541.292969 288.957031 C 541.609375 288.496094 542.238281 288.375 542.699219 288.6875 C 543.160156 289 543.28125 289.628906 542.96875 290.09375 L 538.527344 296.644531 C 538.332031 296.933594 538.011719 297.089844 537.6875 297.089844 Z M 537.6875 297.089844 " fill-opacity="1" fill-rule="nonzero"/><path fill="#d9d9d9" d="M 478.347656 280.71875 L 480.847656 288.230469 " fill-opacity="1" fill-rule="nonzero"/><path fill="#5271ff" d="M 480.847656 289.242188 C 480.425781 289.242188 480.03125 288.972656 479.890625 288.546875 L 477.386719 281.039062 C 477.210938 280.507812 477.5 279.933594 478.027344 279.757812 C 478.558594 279.582031 479.128906 279.867188 479.308594 280.398438 L 481.808594 287.910156 C 481.984375 288.4375 481.699219 289.011719 481.167969 289.1875 C 481.0625 289.222656 480.953125 289.242188 480.847656 289.242188 Z M 480.847656 289.242188 " fill-opacity="1" fill-rule="nonzero"/><path fill="#d9d9d9" d="M 474.003906 280.117188 L 476.507812 287.628906 " fill-opacity="1" fill-rule="nonzero"/><path fill="#5271ff" d="M 476.507812 288.640625 C 476.082031 288.640625 475.6875 288.375 475.546875 287.949219 L 473.046875 280.4375 C 472.871094 279.90625 473.15625 279.335938 473.6875 279.15625 C 474.214844 278.980469 474.789062 279.269531 474.964844 279.796875 L 477.464844 287.308594 C 477.640625 287.839844 477.355469 288.414062 476.824219 288.589844 C 476.71875 288.625 476.613281 288.640625 476.507812 288.640625 Z M 476.507812 288.640625 " fill-opacity="1" fill-rule="nonzero"/><path fill="#d9d9d9" d="M 469.664062 279.519531 L 472.164062 287.03125 " fill-opacity="1" fill-rule="nonzero"/><path fill="#5271ff" d="M 472.164062 288.042969 C 471.738281 288.042969 471.34375 287.773438 471.203125 287.351562 L 468.703125 279.839844 C 468.527344 279.308594 468.8125 278.734375 469.34375 278.558594 C 469.871094 278.382812 470.445312 278.667969 470.621094 279.199219 L 473.125 286.710938 C 473.300781 287.242188 473.011719 287.8125 472.484375 287.988281 C 472.378906 288.023438 472.269531 288.042969 472.164062 288.042969 Z M 472.164062 288.042969 " fill-opacity="1" fill-rule="nonzero"/><path fill="#5271ff" d="M 540.890625 261.945312 L 519.785156 259.03125 C 517.183594 258.671875 515.367188 256.269531 515.726562 253.667969 C 516.085938 251.066406 518.484375 249.246094 521.085938 249.605469 L 542.191406 252.519531 C 544.792969 252.878906 546.609375 255.28125 546.25 257.882812 C 545.890625 260.484375 543.492188 262.300781 540.890625 261.945312 Z M 540.890625 261.945312 " fill-opacity="1" fill-rule="nonzero"/><path fill="#5271ff" d="M 492.40625 262.328125 L 473.359375 252.773438 C 471.011719 251.597656 470.0625 248.738281 471.238281 246.390625 C 472.417969 244.042969 475.273438 243.09375 477.621094 244.273438 L 496.667969 253.828125 C 499.015625 255.003906 499.960938 257.863281 498.785156 260.210938 C 497.609375 262.558594 494.75 263.507812 492.40625 262.328125 Z M 492.40625 262.328125 " fill-opacity="1" fill-rule="nonzero"/><path fill="#d9d9d9" d="M 504.167969 273.871094 C 504.167969 273.871094 498.492188 284.308594 496.8125 296.5 L 505.605469 297.714844 " fill-opacity="1" fill-rule="nonzero"/><path fill="#5271ff" d="M 505.605469 298.726562 C 505.5625 298.726562 505.515625 298.722656 505.46875 298.71875 L 496.671875 297.503906 C 496.40625 297.46875 496.167969 297.328125 496.003906 297.113281 C 495.84375 296.898438 495.773438 296.628906 495.808594 296.363281 C 497.496094 284.128906 503.042969 273.820312 503.28125 273.386719 C 503.546875 272.894531 504.160156 272.714844 504.652344 272.980469 C 505.140625 273.25 505.324219 273.863281 505.054688 274.355469 C 505.003906 274.453125 499.757812 284.207031 497.960938 295.640625 L 505.746094 296.714844 C 506.296875 296.789062 506.683594 297.300781 506.609375 297.855469 C 506.539062 298.359375 506.105469 298.726562 505.605469 298.726562 Z M 505.605469 298.726562 " fill-opacity="1" fill-rule="nonzero"/><path fill="#d9d9d9" d="M 515.984375 306.75 C 510.789062 306.773438 506.394531 307.5625 503.089844 308.414062 " fill-opacity="1" fill-rule="nonzero"/><path fill="#5271ff" d="M 503.089844 309.425781 C 502.636719 309.425781 502.226562 309.125 502.109375 308.667969 C 501.972656 308.125 502.296875 307.574219 502.835938 307.433594 C 507.132812 306.328125 511.554688 305.757812 515.980469 305.738281 C 516.546875 305.738281 516.996094 306.1875 516.996094 306.746094 C 517 307.304688 516.546875 307.761719 515.988281 307.761719 C 511.730469 307.78125 507.476562 308.332031 503.339844 309.394531 C 503.257812 309.417969 503.171875 309.425781 503.089844 309.425781 Z M 503.089844 309.425781 " fill-opacity="1" fill-rule="nonzero"/><path fill="#d9d9d9" d="M 564.34375 305.28125 L 576.566406 306.699219 C 586.472656 308.066406 595.617188 301.136719 596.984375 291.226562 C 598.351562 281.3125 591.425781 272.171875 581.515625 270.804688 L 569.296875 269.386719 " fill-opacity="1" fill-rule="nonzero"/><path fill="#5271ff" d="M 579.082031 307.882812 C 578.203125 307.882812 577.320312 307.824219 576.4375 307.703125 L 564.226562 306.285156 C 563.671875 306.21875 563.277344 305.71875 563.339844 305.164062 C 563.40625 304.609375 563.90625 304.210938 564.460938 304.273438 L 576.679688 305.691406 C 576.6875 305.691406 576.695312 305.695312 576.703125 305.695312 C 581.226562 306.320312 585.722656 305.144531 589.367188 302.382812 C 593.007812 299.625 595.355469 295.613281 595.980469 291.085938 C 597.269531 281.75 590.722656 273.101562 581.386719 271.808594 L 569.179688 270.390625 C 568.625 270.324219 568.226562 269.824219 568.292969 269.269531 C 568.355469 268.714844 568.859375 268.316406 569.414062 268.378906 L 581.632812 269.796875 C 581.640625 269.796875 581.648438 269.800781 581.65625 269.800781 C 592.101562 271.242188 599.425781 280.914062 597.984375 291.363281 C 597.285156 296.425781 594.660156 300.914062 590.585938 303.996094 C 587.230469 306.542969 583.21875 307.882812 579.082031 307.882812 Z M 579.082031 307.882812 " fill-opacity="1" fill-rule="nonzero"/><path fill="#5271ff" d="M 578.992188 298.816406 C 578.519531 298.816406 578.042969 298.785156 577.5625 298.714844 L 576.015625 298.496094 C 575.464844 298.414062 575.078125 297.902344 575.15625 297.351562 C 575.238281 296.796875 575.746094 296.410156 576.300781 296.492188 L 577.851562 296.710938 C 578.234375 296.765625 578.613281 296.792969 578.992188 296.792969 C 582.925781 296.792969 586.375 293.890625 586.949219 289.882812 C 587.574219 285.492188 584.507812 281.410156 580.117188 280.785156 L 578.570312 280.566406 C 578.019531 280.484375 577.632812 279.972656 577.710938 279.421875 C 577.792969 278.867188 578.300781 278.484375 578.855469 278.5625 L 580.402344 278.78125 C 580.402344 278.78125 580.402344 278.78125 580.40625 278.78125 C 585.898438 279.566406 589.730469 284.671875 588.949219 290.167969 C 588.234375 295.183594 583.917969 298.816406 578.992188 298.816406 Z M 578.992188 298.816406 " fill-opacity="1" fill-rule="nonzero"/><path fill="#5271ff" d="M 580.601562 211.878906 L 576.640625 211.332031 C 577.730469 198.117188 568.339844 186.203125 555.050781 184.367188 L 518.902344 179.375 C 490.21875 175.414062 479.929688 198.804688 473.691406 197.941406 C 470.59375 196.566406 468.65625 193.253906 469.191406 189.734375 L 470.359375 182.066406 C 457.949219 180.355469 446.132812 191.679688 444.417969 204.097656 L 444.242188 205.371094 C 441.960938 221.921875 452.621094 237.050781 469.164062 239.332031 C 470.554688 229.25 485.582031 214.535156 507.699219 217.589844 L 548.289062 223.195312 C 557.886719 224.519531 564.597656 233.378906 563.273438 242.984375 L 562.046875 251.851562 C 560.734375 261.371094 567.382812 270.152344 576.898438 271.464844 L 592.953125 273.679688 L 598.261719 235.203125 C 599.824219 223.882812 591.917969 213.441406 580.601562 211.878906 Z M 580.601562 211.878906 " fill-opacity="1" fill-rule="nonzero"/><path fill="#d9d9d9" d="M 645.644531 435.453125 L 637.671875 579.683594 C 635.535156 610.480469 622.625 621.976562 601.722656 621.460938 C 580.816406 620.945312 557.972656 607.113281 560.074219 571.40625 L 567.867188 427.796875 C 572.644531 392.570312 588.628906 386.910156 607.511719 387.917969 C 626.765625 388.941406 645.972656 398.878906 645.644531 435.453125 Z M 645.644531 435.453125 " fill-opacity="1" fill-rule="nonzero"/><path fill="#5271ff" d="M 603.070312 622.488281 C 602.617188 622.488281 602.160156 622.480469 601.699219 622.472656 C 595.882812 622.328125 590.089844 621.152344 584.949219 619.078125 C 579.226562 616.765625 574.300781 613.394531 570.3125 609.054688 C 566.347656 604.742188 563.371094 599.523438 561.46875 593.542969 C 559.390625 587.023438 558.582031 579.554688 559.066406 571.347656 L 566.855469 427.742188 C 566.859375 427.714844 566.859375 427.6875 566.863281 427.660156 C 569.121094 411.023438 573.992188 399.84375 581.757812 393.488281 C 588.070312 388.320312 596.03125 386.292969 607.566406 386.90625 C 619.035156 387.515625 628.140625 391.128906 634.636719 397.640625 C 642.765625 405.785156 646.808594 418.511719 646.65625 435.464844 C 646.65625 435.480469 646.65625 435.496094 646.652344 435.511719 L 638.679688 579.738281 C 637.617188 595.0625 633.953125 605.9375 627.480469 612.996094 C 621.628906 619.375 613.632812 622.488281 603.070312 622.488281 Z M 568.875 427.890625 L 561.085938 571.460938 C 560.183594 586.78125 563.789062 598.96875 571.800781 607.683594 C 579.09375 615.617188 589.730469 620.152344 601.746094 620.449219 C 623.601562 620.992188 634.691406 608.011719 636.660156 579.613281 L 644.632812 435.421875 C 644.890625 405.898438 632.382812 390.253906 607.457031 388.925781 C 590.292969 388.011719 573.738281 392.101562 568.875 427.890625 Z M 645.644531 435.453125 Z M 645.644531 435.453125 " fill-opacity="1" fill-rule="nonzero"/><path fill="#5271ff" d="M 559.332031 430.386719 L 555.417969 488.09375 L 553.410156 517.40625 L 648.492188 522.394531 L 650.464844 495.191406 L 654.523438 438.957031 C 655.933594 424.359375 651.054688 383.421875 613.609375 377.964844 C 576.167969 372.488281 560.628906 411.28125 559.332031 430.386719 Z M 559.332031 430.386719 " fill-opacity="1" fill-rule="nonzero"/><path fill="#5271ff" d="M 559.332031 430.386719 L 555.417969 488.09375 L 553.410156 517.40625 " fill-opacity="1" fill-rule="nonzero"/><path fill="#d9d9d9" d="M 553.410156 518.417969 C 553.386719 518.417969 553.363281 518.417969 553.339844 518.417969 C 552.785156 518.378906 552.363281 517.894531 552.402344 517.339844 L 554.410156 488.023438 L 558.324219 430.320312 C 558.363281 429.761719 558.847656 429.339844 559.402344 429.378906 C 559.957031 429.414062 560.378906 429.898438 560.34375 430.457031 L 556.425781 488.160156 L 554.417969 517.476562 C 554.382812 518.011719 553.9375 518.417969 553.410156 518.417969 Z M 553.410156 518.417969 " fill-opacity="1" fill-rule="nonzero"/><path fill="#d9d9d9" d="M 637.484375 582.019531 C 637.484375 603.632812 625.273438 619.339844 602.902344 624.941406 C 602.902344 624.941406 526.421875 645.941406 462.601562 657.042969 C 449.304688 659.355469 435.597656 658.117188 423.007812 653.25 C 394.292969 644.484375 373.15625 593.117188 423.644531 578.335938 C 459.746094 570.367188 531.335938 556.929688 566.304688 550.515625 " fill-opacity="1" fill-rule="nonzero"/><path fill="#5271ff" d="M 449.570312 659.179688 C 440.347656 659.179688 431.226562 657.507812 422.679688 654.207031 C 414.597656 651.730469 406.953125 645.996094 401.152344 638.054688 C 395.285156 630.027344 392.082031 620.769531 392.132812 611.992188 C 392.175781 604.449219 394.683594 597.457031 399.382812 591.765625 C 404.722656 585.304688 412.789062 580.460938 423.363281 577.367188 C 423.382812 577.359375 423.40625 577.355469 423.425781 577.351562 C 466.597656 567.816406 556.0625 551.363281 566.125 549.519531 C 566.671875 549.421875 567.199219 549.785156 567.300781 550.332031 C 567.402344 550.882812 567.039062 551.410156 566.488281 551.511719 C 556.433594 553.355469 467.042969 569.792969 423.898438 579.320312 C 404.804688 584.917969 394.242188 596.523438 394.15625 612.003906 C 394.058594 628.984375 407.40625 647.429688 423.304688 652.28125 C 423.328125 652.289062 423.351562 652.296875 423.375 652.308594 C 435.660156 657.058594 449.164062 658.351562 462.429688 656.042969 C 525.472656 645.078125 601.871094 624.175781 602.636719 623.964844 C 602.644531 623.964844 602.652344 623.960938 602.660156 623.960938 C 624.148438 618.578125 636.472656 603.289062 636.472656 582.019531 C 636.472656 581.460938 636.925781 581.007812 637.484375 581.007812 C 638.042969 581.007812 638.496094 581.460938 638.496094 582.019531 C 638.496094 593.078125 635.425781 602.53125 629.371094 610.117188 C 623.257812 617.777344 614.441406 623.09375 603.160156 625.921875 C 601.875 626.273438 525.691406 647.09375 462.773438 658.039062 C 458.382812 658.800781 453.964844 659.179688 449.570312 659.179688 Z M 449.570312 659.179688 " fill-opacity="1" fill-rule="nonzero"/><path fill="#d9d9d9" d="M 469.011719 649.476562 C 467.613281 651.113281 466.042969 652.746094 464.292969 654.363281 C 449.320312 665.765625 436.300781 652.792969 422.308594 664.480469 C 416.132812 669.632812 410.867188 677.207031 406.914062 684.058594 C 401.511719 693.417969 390.28125 697.667969 379.988281 694.398438 C 365.304688 689.730469 344.84375 682.949219 328.785156 676.550781 C 317.359375 672 311.289062 659.324219 315.316406 647.699219 C 324.992188 619.773438 353.484375 577.863281 416.449219 577.863281 C 422.011719 577.863281 427.804688 578.757812 433.515625 580.394531 " fill-opacity="1" fill-rule="nonzero"/><path fill="#5271ff" d="M 387.015625 696.496094 C 384.539062 696.496094 382.0625 696.117188 379.679688 695.363281 C 365.21875 690.765625 344.582031 683.933594 328.414062 677.492188 C 322.625 675.1875 317.984375 670.824219 315.34375 665.210938 C 312.683594 659.554688 312.335938 653.21875 314.363281 647.367188 C 317.90625 637.140625 326.628906 617.585938 345.238281 601.542969 C 354.050781 593.949219 364.09375 588.011719 375.089844 583.902344 C 387.601562 579.226562 401.515625 576.851562 416.449219 576.851562 C 422.007812 576.851562 427.847656 577.71875 433.796875 579.421875 C 434.332031 579.574219 434.644531 580.136719 434.488281 580.671875 C 434.335938 581.210938 433.777344 581.519531 433.238281 581.367188 C 427.46875 579.714844 421.820312 578.875 416.449219 578.875 C 345.726562 578.875 321.894531 631.808594 316.273438 648.03125 C 312.441406 659.089844 318.101562 671.207031 329.160156 675.613281 C 345.273438 682.03125 365.859375 688.847656 380.292969 693.433594 C 390.105469 696.550781 400.933594 692.398438 406.035156 683.554688 C 411.070312 674.835938 416.324219 668.15625 421.660156 663.703125 C 428.992188 657.578125 436.15625 657.949219 443.082031 658.308594 C 449.980469 658.667969 456.5 659.007812 463.640625 653.589844 C 465.320312 652.03125 466.871094 650.429688 468.242188 648.820312 C 468.605469 648.394531 469.246094 648.34375 469.667969 648.707031 C 470.09375 649.070312 470.144531 649.707031 469.78125 650.132812 C 468.347656 651.816406 466.730469 653.488281 464.980469 655.105469 C 464.957031 655.128906 464.929688 655.148438 464.90625 655.167969 C 457.160156 661.066406 449.949219 660.695312 442.976562 660.332031 C 436.140625 659.976562 429.679688 659.640625 422.953125 665.253906 C 417.804688 669.554688 412.703125 676.054688 407.789062 684.566406 C 405.066406 689.285156 400.753906 692.957031 395.644531 694.910156 C 392.882812 695.964844 389.953125 696.496094 387.015625 696.496094 Z M 387.015625 696.496094 " fill-opacity="1" fill-rule="nonzero"/><path fill="#d9d9d9" d="M 472.636719 644.636719 C 471.589844 646.253906 470.382812 647.867188 469.011719 649.476562 " fill-opacity="1" fill-rule="nonzero"/><path fill="#5271ff" d="M 469.011719 650.488281 C 468.78125 650.488281 468.546875 650.40625 468.355469 650.246094 C 467.929688 649.882812 467.878906 649.246094 468.242188 648.820312 C 469.5625 647.273438 470.753906 645.679688 471.789062 644.085938 C 472.09375 643.617188 472.71875 643.484375 473.1875 643.789062 C 473.65625 644.09375 473.789062 644.71875 473.484375 645.1875 C 472.40625 646.855469 471.160156 648.519531 469.78125 650.132812 C 469.582031 650.367188 469.296875 650.488281 469.011719 650.488281 Z M 469.011719 650.488281 " fill-opacity="1" fill-rule="nonzero"/><path fill="#d9d9d9" d="M 315.316406 647.699219 C 324.992188 619.773438 353.484375 577.863281 416.449219 577.863281 C 423.351562 577.863281 430.609375 579.242188 437.628906 581.707031 " fill-opacity="1" fill-rule="nonzero"/><path fill="#5271ff" d="M 315.316406 648.710938 C 315.207031 648.710938 315.097656 648.691406 314.988281 648.65625 C 314.460938 648.472656 314.179688 647.894531 314.363281 647.367188 C 317.90625 637.140625 326.628906 617.585938 345.238281 601.542969 C 354.050781 593.949219 364.09375 588.011719 375.089844 583.902344 C 387.601562 579.226562 401.515625 576.851562 416.449219 576.851562 C 423.261719 576.851562 430.703125 578.199219 437.964844 580.75 C 438.492188 580.9375 438.769531 581.511719 438.582031 582.039062 C 438.398438 582.566406 437.820312 582.84375 437.292969 582.660156 C 430.246094 580.183594 423.039062 578.878906 416.449219 578.878906 C 345.726562 578.878906 321.894531 631.808594 316.273438 648.03125 C 316.128906 648.449219 315.738281 648.710938 315.316406 648.710938 Z M 315.316406 648.710938 " fill-opacity="1" fill-rule="nonzero"/><path fill="#d9d9d9" d="M 369.183594 684.917969 C 369.183594 684.917969 371.53125 650.625 401.910156 632.097656 " fill-opacity="1" fill-rule="nonzero"/><path fill="#5271ff" d="M 369.183594 685.929688 C 369.160156 685.929688 369.136719 685.929688 369.113281 685.925781 C 368.554688 685.886719 368.132812 685.40625 368.171875 684.847656 C 368.195312 684.492188 368.820312 675.988281 373.214844 665.078125 C 375.796875 658.667969 379.148438 652.769531 383.179688 647.550781 C 388.226562 641.015625 394.347656 635.527344 401.382812 631.234375 C 401.859375 630.945312 402.484375 631.097656 402.773438 631.574219 C 403.066406 632.050781 402.914062 632.671875 402.4375 632.964844 C 387.007812 642.371094 379.066406 655.996094 375.121094 665.765625 C 370.828125 676.394531 370.195312 684.902344 370.191406 684.988281 C 370.152344 685.519531 369.710938 685.929688 369.183594 685.929688 Z M 369.183594 685.929688 " fill-opacity="1" fill-rule="nonzero"/><path fill="#d9d9d9" d="M 336.78125 672.078125 C 336.78125 672.078125 338.769531 640.367188 366.546875 619.726562 " fill-opacity="1" fill-rule="nonzero"/><path fill="#5271ff" d="M 336.785156 673.089844 C 336.761719 673.089844 336.742188 673.085938 336.71875 673.085938 C 336.164062 673.050781 335.738281 672.570312 335.773438 672.011719 C 335.792969 671.683594 336.324219 663.8125 340.300781 653.285156 C 343.972656 643.570312 351.398438 629.722656 365.945312 618.914062 C 366.394531 618.582031 367.027344 618.675781 367.359375 619.121094 C 367.691406 619.570312 367.597656 620.203125 367.152344 620.539062 C 352.996094 631.054688 345.769531 644.539062 342.195312 654 C 338.324219 664.246094 337.796875 672.0625 337.792969 672.140625 C 337.757812 672.675781 337.3125 673.089844 336.785156 673.089844 Z M 336.785156 673.089844 " fill-opacity="1" fill-rule="nonzero"/><path fill="#d9d9d9" d="M 338.191406 678.175781 L 67.074219 678.175781 C 65.582031 678.175781 64.296875 677.125 64.003906 675.660156 L 31.925781 516.355469 C 30.164062 507.625 36.839844 499.46875 45.746094 499.46875 L 294.492188 499.46875 C 301.203125 499.46875 306.984375 504.203125 308.3125 510.785156 L 341.261719 674.421875 C 341.65625 676.363281 340.171875 678.175781 338.191406 678.175781 Z M 338.191406 678.175781 " fill-opacity="1" fill-rule="nonzero"/><path fill="#5271ff" d="M 338.191406 679.1875 L 67.074219 679.1875 C 65.109375 679.1875 63.398438 677.789062 63.011719 675.859375 L 30.933594 516.554688 C 30.035156 512.09375 31.171875 507.515625 34.054688 503.996094 C 36.933594 500.476562 41.195312 498.457031 45.746094 498.457031 L 294.492188 498.457031 C 301.660156 498.457031 307.886719 503.558594 309.304688 510.585938 L 342.253906 674.222656 C 342.5 675.445312 342.1875 676.703125 341.398438 677.667969 C 340.609375 678.636719 339.4375 679.1875 338.191406 679.1875 Z M 45.746094 500.480469 C 41.804688 500.480469 38.113281 502.226562 35.617188 505.277344 C 33.121094 508.328125 32.136719 512.292969 32.914062 516.15625 L 64.996094 675.460938 C 65.195312 676.449219 66.070312 677.164062 67.074219 677.164062 L 338.191406 677.164062 C 338.828125 677.164062 339.429688 676.882812 339.832031 676.386719 C 340.238281 675.890625 340.398438 675.25 340.273438 674.621094 L 307.320312 510.984375 C 306.09375 504.898438 300.699219 500.480469 294.492188 500.480469 Z M 45.746094 500.480469 " fill-opacity="1" fill-rule="nonzero"/><path fill="#d9d9d9" d="M 327.425781 678.175781 L 56.3125 678.175781 C 54.820312 678.175781 53.535156 677.125 53.238281 675.660156 L 21.160156 516.355469 C 19.402344 507.625 26.078125 499.46875 34.980469 499.46875 L 283.730469 499.46875 C 290.441406 499.46875 296.222656 504.203125 297.546875 510.785156 L 330.5 674.421875 C 330.890625 676.363281 329.40625 678.175781 327.425781 678.175781 Z M 327.425781 678.175781 " fill-opacity="1" fill-rule="nonzero"/><path fill="#5271ff" d="M 327.425781 679.1875 L 56.3125 679.1875 C 54.347656 679.1875 52.636719 677.789062 52.25 675.859375 L 20.167969 516.554688 C 19.269531 512.09375 20.410156 507.515625 23.289062 503.996094 C 26.171875 500.476562 30.433594 498.457031 34.980469 498.457031 L 283.730469 498.457031 C 290.894531 498.457031 297.125 503.558594 298.539062 510.585938 L 331.492188 674.222656 C 331.738281 675.445312 331.425781 676.703125 330.636719 677.667969 C 329.84375 678.636719 328.675781 679.1875 327.425781 679.1875 Z M 34.980469 500.480469 C 31.042969 500.480469 27.351562 502.226562 24.855469 505.277344 C 22.359375 508.328125 21.375 512.292969 22.152344 516.15625 L 54.230469 675.460938 C 54.429688 676.449219 55.304688 677.164062 56.3125 677.164062 L 327.425781 677.164062 C 328.066406 677.164062 328.664062 676.882812 329.070312 676.386719 C 329.476562 675.890625 329.636719 675.25 329.507812 674.621094 L 296.558594 510.984375 C 295.332031 504.898438 289.9375 500.480469 283.730469 500.480469 Z M 34.980469 500.480469 " fill-opacity="1" fill-rule="nonzero"/><path fill="#5271ff" d="M 162.609375 518.332031 L 146.988281 518.332031 C 146.429688 518.332031 145.976562 517.882812 145.976562 517.320312 C 145.976562 516.761719 146.429688 516.308594 146.988281 516.308594 L 162.609375 516.308594 C 163.167969 516.308594 163.621094 516.761719 163.621094 517.320312 C 163.621094 517.882812 163.167969 518.332031 162.609375 518.332031 Z M 130.824219 518.332031 L 64.46875 518.332031 C 63.910156 518.332031 63.457031 517.882812 63.457031 517.320312 C 63.457031 516.761719 63.910156 516.308594 64.46875 516.308594 L 130.824219 516.308594 C 131.382812 516.308594 131.832031 516.761719 131.832031 517.320312 C 131.832031 517.882812 131.382812 518.332031 130.824219 518.332031 Z M 48.75 518.332031 L 47.609375 518.332031 C 47.050781 518.332031 46.597656 517.882812 46.597656 517.320312 C 46.597656 516.761719 47.050781 516.308594 47.609375 516.308594 L 48.75 516.308594 C 49.308594 516.308594 49.761719 516.761719 49.761719 517.320312 C 49.761719 517.882812 49.308594 518.332031 48.75 518.332031 Z M 48.75 518.332031 " fill-opacity="1" fill-rule="nonzero"/><path fill="#d9d9d9" d="M 411.550781 699.085938 L 56.886719 699.085938 C 55.15625 699.085938 53.75 697.683594 53.75 695.953125 L 53.75 681.3125 C 53.75 679.582031 55.15625 678.175781 56.886719 678.175781 L 411.550781 678.175781 C 413.28125 678.175781 414.6875 679.582031 414.6875 681.3125 L 414.6875 695.953125 C 414.6875 697.683594 413.28125 699.085938 411.550781 699.085938 Z M 411.550781 699.085938 " fill-opacity="1" fill-rule="nonzero"/><g clip-path="url(#f966c56df4)"><path fill="#5271ff" d="M 411.550781 700.097656 L 56.886719 700.097656 C 54.601562 700.097656 52.738281 698.238281 52.738281 695.953125 L 52.738281 681.3125 C 52.738281 679.027344 54.601562 677.164062 56.886719 677.164062 L 411.550781 677.164062 C 413.835938 677.164062 415.699219 679.027344 415.699219 681.3125 L 415.699219 695.953125 C 415.699219 698.238281 413.835938 700.097656 411.550781 700.097656 Z M 56.886719 679.1875 C 55.714844 679.1875 54.761719 680.140625 54.761719 681.3125 L 54.761719 695.953125 C 54.761719 697.121094 55.714844 698.074219 56.886719 698.074219 L 411.550781 698.074219 C 412.722656 698.074219 413.675781 697.121094 413.675781 695.953125 L 413.675781 681.3125 C 413.675781 680.140625 412.722656 679.1875 411.550781 679.1875 Z M 56.886719 679.1875 " fill-opacity="1" fill-rule="nonzero"/></g><path fill="#5271ff" d="M 195.042969 588.820312 C 195.042969 599.5 186.390625 608.152344 175.722656 608.152344 C 165.050781 608.152344 156.398438 599.5 156.398438 588.820312 C 156.398438 578.144531 165.050781 569.492188 175.722656 569.492188 C 186.390625 569.492188 195.042969 578.144531 195.042969 588.820312 Z M 195.042969 588.820312 " fill-opacity="1" fill-rule="nonzero"/><path fill="#d9d9d9" d="M 344.363281 251.558594 C 344.363281 254.261719 344.296875 256.960938 344.164062 259.660156 C 344.035156 262.359375 343.835938 265.054688 343.570312 267.746094 C 343.304688 270.433594 342.972656 273.113281 342.578125 275.789062 C 342.183594 278.460938 341.71875 281.121094 341.191406 283.773438 C 340.667969 286.421875 340.074219 289.058594 339.417969 291.679688 C 338.761719 294.300781 338.042969 296.90625 337.257812 299.492188 C 336.472656 302.078125 335.625 304.644531 334.714844 307.1875 C 333.804688 309.730469 332.835938 312.253906 331.800781 314.75 C 330.765625 317.246094 329.671875 319.714844 328.519531 322.15625 C 327.363281 324.601562 326.148438 327.015625 324.875 329.398438 C 323.601562 331.78125 322.273438 334.128906 320.882812 336.449219 C 319.496094 338.765625 318.050781 341.050781 316.550781 343.296875 C 315.046875 345.542969 313.492188 347.75 311.882812 349.921875 C 310.277344 352.09375 308.613281 354.222656 306.902344 356.3125 C 305.1875 358.398438 303.421875 360.445312 301.609375 362.449219 C 299.796875 364.449219 297.933594 366.40625 296.023438 368.316406 C 294.113281 370.226562 292.15625 372.089844 290.15625 373.90625 C 288.15625 375.722656 286.109375 377.484375 284.023438 379.199219 C 281.933594 380.914062 279.804688 382.574219 277.636719 384.1875 C 275.464844 385.796875 273.257812 387.351562 271.011719 388.851562 C 268.765625 390.355469 266.484375 391.800781 264.167969 393.1875 C 261.851562 394.578125 259.503906 395.910156 257.121094 397.183594 C 254.738281 398.457031 252.324219 399.671875 249.882812 400.828125 C 247.441406 401.980469 244.972656 403.078125 242.476562 404.109375 C 239.984375 405.144531 237.464844 406.117188 234.921875 407.027344 C 232.378906 407.9375 229.8125 408.785156 227.226562 409.570312 C 224.644531 410.355469 222.039062 411.074219 219.421875 411.730469 C 216.800781 412.386719 214.164062 412.980469 211.515625 413.507812 C 208.867188 414.035156 206.207031 414.496094 203.535156 414.894531 C 200.863281 415.289062 198.183594 415.621094 195.496094 415.886719 C 192.808594 416.148438 190.113281 416.347656 187.414062 416.480469 C 184.71875 416.613281 182.019531 416.679688 179.316406 416.679688 C 176.617188 416.679688 173.917969 416.613281 171.21875 416.480469 C 168.519531 416.347656 165.828125 416.148438 163.140625 415.886719 C 160.453125 415.621094 157.773438 415.289062 155.101562 414.894531 C 152.429688 414.496094 149.769531 414.035156 147.117188 413.507812 C 144.46875 412.980469 141.835938 412.386719 139.214844 411.730469 C 136.59375 411.074219 133.992188 410.355469 131.40625 409.570312 C 128.820312 408.785156 126.257812 407.9375 123.714844 407.027344 C 121.171875 406.117188 118.652344 405.144531 116.15625 404.109375 C 113.660156 403.078125 111.191406 401.980469 108.75 400.828125 C 106.308594 399.671875 103.898438 398.457031 101.515625 397.183594 C 99.132812 395.910156 96.78125 394.578125 94.464844 393.1875 C 92.148438 391.800781 89.867188 390.355469 87.621094 388.851562 C 85.375 387.351562 83.167969 385.796875 81 384.1875 C 78.828125 382.574219 76.699219 380.914062 74.613281 379.199219 C 72.523438 377.484375 70.480469 375.722656 68.480469 373.90625 C 66.476562 372.089844 64.523438 370.226562 62.613281 368.316406 C 60.703125 366.40625 58.839844 364.449219 57.027344 362.449219 C 55.210938 360.445312 53.449219 358.398438 51.734375 356.3125 C 50.019531 354.222656 48.359375 352.09375 46.75 349.921875 C 45.140625 347.75 43.585938 345.542969 42.085938 343.296875 C 40.585938 341.050781 39.140625 338.765625 37.75 336.449219 C 36.363281 334.128906 35.03125 331.78125 33.757812 329.398438 C 32.484375 327.015625 31.273438 324.601562 30.117188 322.15625 C 28.960938 319.714844 27.867188 317.246094 26.832031 314.75 C 25.800781 312.253906 24.828125 309.730469 23.917969 307.1875 C 23.007812 304.644531 22.160156 302.078125 21.378906 299.492188 C 20.59375 296.90625 19.871094 294.300781 19.214844 291.679688 C 18.558594 289.058594 17.96875 286.421875 17.441406 283.773438 C 16.914062 281.121094 16.453125 278.460938 16.058594 275.789062 C 15.660156 273.113281 15.328125 270.433594 15.066406 267.746094 C 14.800781 265.054688 14.601562 262.359375 14.46875 259.660156 C 14.335938 256.960938 14.269531 254.261719 14.269531 251.558594 C 14.269531 248.859375 14.335938 246.15625 14.46875 243.457031 C 14.601562 240.757812 14.800781 238.066406 15.066406 235.375 C 15.328125 232.6875 15.660156 230.003906 16.058594 227.332031 C 16.453125 224.660156 16.914062 221.996094 17.441406 219.347656 C 17.96875 216.695312 18.558594 214.058594 19.214844 211.4375 C 19.871094 208.816406 20.59375 206.214844 21.378906 203.628906 C 22.160156 201.042969 23.007812 198.476562 23.917969 195.933594 C 24.828125 193.386719 25.800781 190.867188 26.832031 188.371094 C 27.867188 185.875 28.960938 183.40625 30.117188 180.960938 C 31.273438 178.519531 32.484375 176.105469 33.757812 173.722656 C 35.03125 171.339844 36.363281 168.988281 37.75 166.671875 C 39.140625 164.351562 40.585938 162.070312 42.085938 159.824219 C 43.585938 157.578125 45.140625 155.367188 46.75 153.199219 C 48.359375 151.027344 50.019531 148.898438 51.734375 146.808594 C 53.449219 144.71875 55.210938 142.675781 57.027344 140.671875 C 58.839844 138.667969 60.703125 136.710938 62.613281 134.800781 C 64.523438 132.890625 66.476562 131.027344 68.480469 129.214844 C 70.480469 127.398438 72.523438 125.632812 74.613281 123.921875 C 76.699219 122.207031 78.828125 120.542969 81 118.933594 C 83.167969 117.324219 85.375 115.769531 87.621094 114.265625 C 89.867188 112.765625 92.148438 111.320312 94.464844 109.929688 C 96.78125 108.542969 99.132812 107.210938 101.515625 105.9375 C 103.898438 104.664062 106.308594 103.449219 108.75 102.292969 C 111.191406 101.136719 113.660156 100.042969 116.15625 99.007812 C 118.652344 97.972656 121.171875 97.003906 123.714844 96.089844 C 126.257812 95.179688 128.820312 94.332031 131.40625 93.550781 C 133.992188 92.765625 136.59375 92.042969 139.214844 91.386719 C 141.835938 90.730469 144.46875 90.140625 147.117188 89.613281 C 149.769531 89.085938 152.429688 88.625 155.101562 88.226562 C 157.773438 87.828125 160.453125 87.5 163.140625 87.234375 C 165.828125 86.96875 168.519531 86.769531 171.21875 86.636719 C 173.917969 86.503906 176.617188 86.4375 179.316406 86.4375 C 182.019531 86.4375 184.71875 86.503906 187.417969 86.636719 C 190.113281 86.769531 192.808594 86.96875 195.496094 87.234375 C 198.183594 87.5 200.863281 87.828125 203.535156 88.226562 C 206.207031 88.621094 208.867188 89.085938 211.515625 89.613281 C 214.164062 90.140625 216.800781 90.730469 219.421875 91.386719 C 222.039062 92.042969 224.644531 92.765625 227.226562 93.550781 C 229.8125 94.332031 232.378906 95.179688 234.921875 96.089844 C 237.464844 97.003906 239.984375 97.972656 242.476562 99.007812 C 244.972656 100.042969 247.441406 101.136719 249.882812 102.292969 C 252.324219 103.449219 254.738281 104.664062 257.121094 105.9375 C 259.503906 107.210938 261.851562 108.542969 264.167969 109.929688 C 266.484375 111.320312 268.765625 112.765625 271.011719 114.265625 C 273.257812 115.769531 275.464844 117.324219 277.636719 118.933594 C 279.804688 120.542969 281.933594 122.207031 284.023438 123.921875 C 286.109375 125.632812 288.15625 127.398438 290.15625 129.214844 C 292.15625 131.027344 294.113281 132.890625 296.023438 134.800781 C 297.933594 136.710938 299.796875 138.667969 301.609375 140.671875 C 303.421875 142.675781 305.1875 144.71875 306.902344 146.808594 C 308.613281 148.898438 310.277344 151.027344 311.882812 153.199219 C 313.492188 155.367188 315.046875 157.578125 316.550781 159.824219 C 318.050781 162.070312 319.496094 164.351562 320.882812 166.671875 C 322.273438 168.988281 323.601562 171.339844 324.875 173.722656 C 326.148438 176.105469 327.363281 178.519531 328.519531 180.960938 C 329.671875 183.40625 330.765625 185.875 331.800781 188.371094 C 332.835938 190.867188 333.804688 193.386719 334.714844 195.933594 C 335.625 198.476562 336.472656 201.042969 337.257812 203.628906 C 338.042969 206.214844 338.761719 208.816406 339.417969 211.4375 C 340.074219 214.058594 340.667969 216.695312 341.191406 219.347656 C 341.71875 221.996094 342.183594 224.660156 342.578125 227.332031 C 342.972656 230.003906 343.304688 232.6875 343.570312 235.375 C 343.835938 238.066406 344.035156 240.757812 344.164062 243.457031 C 344.296875 246.15625 344.363281 248.859375 344.363281 251.558594 Z M 344.363281 251.558594 " fill-opacity="1" fill-rule="nonzero"/><g clip-path="url(#2bc0c6dc5d)"><path fill="#5271ff" d="M 179.316406 417.691406 C 156.898438 417.691406 135.152344 413.300781 114.679688 404.636719 C 94.90625 396.269531 77.144531 384.289062 61.894531 369.035156 C 46.644531 353.777344 34.671875 336.007812 26.308594 316.226562 C 17.648438 295.746094 13.257812 273.988281 13.257812 251.558594 C 13.257812 229.132812 17.648438 207.375 26.308594 186.894531 C 34.671875 167.109375 46.644531 149.34375 61.894531 134.085938 C 77.148438 118.828125 94.90625 106.851562 114.679688 98.484375 C 135.152344 89.820312 156.898438 85.425781 179.316406 85.425781 C 201.734375 85.425781 223.480469 89.820312 243.957031 98.484375 C 263.730469 106.851562 281.488281 118.828125 296.738281 134.085938 C 311.988281 149.34375 323.960938 167.109375 332.324219 186.894531 C 340.984375 207.375 345.375 229.132812 345.375 251.558594 C 345.375 273.988281 340.984375 295.742188 332.324219 316.226562 C 323.960938 336.007812 311.988281 353.777344 296.738281 369.035156 C 281.488281 384.289062 263.730469 396.269531 243.957031 404.636719 C 223.480469 413.300781 201.734375 417.691406 179.316406 417.691406 Z M 179.316406 87.453125 C 88.867188 87.453125 15.28125 161.070312 15.28125 251.558594 C 15.28125 342.050781 88.867188 415.667969 179.316406 415.667969 C 269.765625 415.667969 343.351562 342.050781 343.351562 251.558594 C 343.351562 161.070312 269.765625 87.453125 179.316406 87.453125 Z M 179.316406 87.453125 " fill-opacity="1" fill-rule="nonzero"/></g><path fill="#d9d9d9" d="M 302.046875 361.960938 C 283.710938 345.394531 268.003906 340.015625 255.46875 335.9375 C 251.578125 333.839844 247.375 332.195312 242.925781 331.089844 C 194.160156 318.96875 145.550781 321.117188 94.308594 337.65625 C 90.246094 338.964844 86.613281 341.066406 83.539062 343.734375 C 75.402344 347.726562 66.457031 353.386719 56.777344 362.171875 C 86.980469 395.640625 130.691406 416.679688 179.316406 416.679688 C 228.042969 416.679688 271.835938 395.554688 302.046875 361.960938 Z M 302.046875 361.960938 " fill-opacity="1" fill-rule="nonzero"/><path fill="#5271ff" d="M 179.316406 417.691406 C 155.402344 417.691406 132.324219 412.714844 110.722656 402.898438 C 100.359375 398.191406 90.4375 392.378906 81.230469 385.625 C 72.097656 378.925781 63.621094 371.265625 56.027344 362.847656 C 55.652344 362.433594 55.683594 361.796875 56.097656 361.421875 C 64.703125 353.613281 73.496094 347.546875 82.976562 342.882812 C 86.222656 340.089844 89.929688 338.003906 94 336.691406 C 145.425781 320.09375 194.21875 317.941406 243.167969 330.109375 C 247.597656 331.207031 251.871094 332.855469 255.867188 335.003906 C 267.671875 338.84375 283.8125 344.125 302.726562 361.210938 C 303.140625 361.582031 303.171875 362.222656 302.796875 362.636719 C 295.203125 371.082031 286.71875 378.773438 277.574219 385.496094 C 268.359375 392.277344 258.421875 398.109375 248.042969 402.839844 C 226.40625 412.695312 203.28125 417.691406 179.316406 417.691406 Z M 58.207031 362.242188 C 89.242188 396.210938 133.324219 415.667969 179.316406 415.667969 C 225.414062 415.667969 269.566406 396.132812 300.613281 362.035156 C 282.300781 345.730469 266.636719 340.632812 255.15625 336.898438 C 255.097656 336.878906 255.042969 336.855469 254.988281 336.828125 C 251.117188 334.738281 246.976562 333.136719 242.679688 332.070312 C 194.109375 320 145.679688 322.140625 94.621094 338.617188 C 90.769531 339.859375 87.265625 341.839844 84.203125 344.5 C 84.136719 344.554688 84.0625 344.605469 83.984375 344.644531 C 74.910156 349.09375 66.46875 354.855469 58.207031 362.242188 Z M 58.207031 362.242188 " fill-opacity="1" fill-rule="nonzero"/><path fill="#d9d9d9" d="M 201.042969 341.828125 C 207.980469 339.332031 212.390625 335.578125 212.390625 331.378906 " fill-opacity="1" fill-rule="nonzero"/><path fill="#5271ff" d="M 201.042969 342.839844 C 200.628906 342.839844 200.242188 342.582031 200.09375 342.167969 C 199.902344 341.644531 200.175781 341.0625 200.703125 340.875 C 207.488281 338.433594 211.378906 334.972656 211.378906 331.378906 C 211.378906 330.820312 211.832031 330.367188 212.390625 330.367188 C 212.949219 330.367188 213.402344 330.820312 213.402344 331.378906 C 213.402344 335.875 209.023438 340.03125 201.386719 342.78125 C 201.273438 342.820312 201.15625 342.839844 201.042969 342.839844 Z M 201.042969 342.839844 " fill-opacity="1" fill-rule="nonzero"/><path fill="#d9d9d9" d="M 156.488281 340.046875 C 162.277344 343.0625 171.03125 344.984375 180.824219 344.984375 C 185.382812 344.984375 189.714844 344.566406 193.625 343.820312 " fill-opacity="1" fill-rule="nonzero"/><path fill="#5271ff" d="M 180.824219 345.996094 C 171.226562 345.996094 162.183594 344.15625 156.023438 340.945312 C 155.527344 340.683594 155.332031 340.074219 155.59375 339.578125 C 155.847656 339.082031 156.460938 338.890625 156.957031 339.148438 C 162.839844 342.214844 171.539062 343.972656 180.824219 343.972656 C 185.214844 343.972656 189.460938 343.585938 193.4375 342.824219 C 193.984375 342.71875 194.515625 343.078125 194.621094 343.628906 C 194.722656 344.175781 194.363281 344.707031 193.816406 344.8125 C 189.714844 345.597656 185.34375 345.996094 180.824219 345.996094 Z M 180.824219 345.996094 " fill-opacity="1" fill-rule="nonzero"/><path fill="#d9d9d9" d="M 149.90625 328.625 C 149.480469 329.515625 149.257812 330.4375 149.257812 331.378906 C 149.257812 333.230469 150.113281 334.996094 151.667969 336.605469 " fill-opacity="1" fill-rule="nonzero"/><path fill="#5271ff" d="M 151.667969 337.617188 C 151.402344 337.617188 151.136719 337.511719 150.941406 337.308594 C 149.152344 335.457031 148.246094 333.460938 148.246094 331.378906 C 148.246094 330.300781 148.496094 329.226562 148.992188 328.1875 C 149.230469 327.683594 149.835938 327.46875 150.339844 327.710938 C 150.84375 327.953125 151.058594 328.554688 150.816406 329.058594 C 150.453125 329.824219 150.265625 330.605469 150.265625 331.378906 C 150.265625 332.917969 150.984375 334.4375 152.394531 335.902344 C 152.78125 336.300781 152.773438 336.941406 152.371094 337.332031 C 152.171875 337.519531 151.921875 337.617188 151.667969 337.617188 Z M 151.667969 337.617188 " fill-opacity="1" fill-rule="nonzero"/><path fill="#5271ff" d="M 157.855469 270.53125 C 157.855469 271.75 157.796875 272.96875 157.679688 274.183594 C 157.558594 275.394531 157.378906 276.601562 157.140625 277.796875 C 156.902344 278.992188 156.609375 280.175781 156.253906 281.34375 C 155.898438 282.511719 155.488281 283.65625 155.023438 284.785156 C 154.554688 285.910156 154.035156 287.011719 153.460938 288.089844 C 152.886719 289.164062 152.261719 290.210938 151.582031 291.222656 C 150.90625 292.238281 150.179688 293.21875 149.40625 294.160156 C 148.632812 295.101562 147.816406 296.007812 146.953125 296.867188 C 146.089844 297.730469 145.1875 298.550781 144.246094 299.324219 C 143.304688 300.097656 142.324219 300.824219 141.3125 301.5 C 140.296875 302.179688 139.253906 302.804688 138.175781 303.378906 C 137.101562 303.953125 136 304.476562 134.875 304.941406 C 133.746094 305.410156 132.601562 305.820312 131.433594 306.175781 C 130.265625 306.527344 129.085938 306.824219 127.890625 307.0625 C 126.695312 307.300781 125.488281 307.480469 124.277344 307.597656 C 123.0625 307.71875 121.847656 307.777344 120.625 307.777344 C 119.40625 307.777344 118.191406 307.71875 116.976562 307.597656 C 115.765625 307.480469 114.558594 307.300781 113.363281 307.0625 C 112.167969 306.824219 110.984375 306.527344 109.820312 306.175781 C 108.652344 305.820312 107.503906 305.410156 106.378906 304.941406 C 105.253906 304.476562 104.152344 303.953125 103.078125 303.378906 C 102 302.804688 100.957031 302.179688 99.941406 301.5 C 98.929688 300.824219 97.949219 300.097656 97.007812 299.324219 C 96.066406 298.550781 95.164062 297.730469 94.300781 296.867188 C 93.4375 296.007812 92.621094 295.101562 91.847656 294.160156 C 91.074219 293.21875 90.347656 292.238281 89.671875 291.222656 C 88.992188 290.210938 88.367188 289.164062 87.792969 288.089844 C 87.21875 287.011719 86.695312 285.910156 86.230469 284.785156 C 85.761719 283.65625 85.351562 282.511719 85 281.34375 C 84.644531 280.175781 84.347656 278.992188 84.113281 277.796875 C 83.875 276.601562 83.695312 275.394531 83.574219 274.183594 C 83.457031 272.96875 83.394531 271.75 83.394531 270.53125 C 83.394531 269.3125 83.457031 268.09375 83.574219 266.878906 C 83.695312 265.664062 83.875 264.460938 84.113281 263.265625 C 84.347656 262.066406 84.644531 260.886719 85 259.71875 C 85.351562 258.550781 85.761719 257.402344 86.230469 256.277344 C 86.695312 255.148438 87.21875 254.046875 87.792969 252.972656 C 88.367188 251.898438 88.992188 250.851562 89.671875 249.835938 C 90.347656 248.824219 91.074219 247.84375 91.847656 246.902344 C 92.621094 245.957031 93.4375 245.054688 94.300781 244.191406 C 95.164062 243.332031 96.066406 242.511719 97.007812 241.738281 C 97.949219 240.964844 98.929688 240.238281 99.941406 239.5625 C 100.957031 238.882812 102 238.257812 103.078125 237.683594 C 104.152344 237.105469 105.253906 236.585938 106.378906 236.117188 C 107.503906 235.652344 108.652344 235.242188 109.820312 234.886719 C 110.984375 234.535156 112.167969 234.238281 113.363281 234 C 114.558594 233.761719 115.765625 233.582031 116.976562 233.464844 C 118.191406 233.34375 119.40625 233.285156 120.625 233.285156 C 121.847656 233.285156 123.0625 233.34375 124.277344 233.464844 C 125.488281 233.582031 126.695312 233.761719 127.890625 234 C 129.085938 234.238281 130.265625 234.535156 131.433594 234.886719 C 132.601562 235.242188 133.746094 235.652344 134.875 236.117188 C 136 236.585938 137.101562 237.105469 138.175781 237.683594 C 139.253906 238.257812 140.296875 238.882812 141.3125 239.5625 C 142.324219 240.238281 143.304688 240.964844 144.246094 241.738281 C 145.1875 242.511719 146.089844 243.332031 146.953125 244.191406 C 147.816406 245.054688 148.632812 245.957031 149.40625 246.902344 C 150.179688 247.84375 150.90625 248.824219 151.582031 249.835938 C 152.261719 250.851562 152.886719 251.898438 153.460938 252.972656 C 154.035156 254.046875 154.554688 255.148438 155.023438 256.277344 C 155.488281 257.402344 155.898438 258.550781 156.253906 259.71875 C 156.609375 260.886719 156.902344 262.066406 157.140625 263.265625 C 157.378906 264.460938 157.558594 265.664062 157.679688 266.878906 C 157.796875 268.09375 157.855469 269.3125 157.855469 270.53125 Z M 157.855469 270.53125 " fill-opacity="1" fill-rule="nonzero"/><path fill="#5271ff" d="M 137.523438 216.222656 L 245.886719 216.222656 C 251.597656 216.222656 256.230469 211.589844 256.230469 205.875 L 256.230469 170.085938 C 256.230469 154.03125 243.21875 141.011719 227.167969 141.011719 L 156.242188 141.011719 C 140.191406 141.011719 127.179688 154.03125 127.179688 170.085938 L 127.179688 205.875 C 127.179688 211.589844 131.8125 216.222656 137.523438 216.222656 Z M 137.523438 216.222656 " fill-opacity="1" fill-rule="nonzero"/><path fill="#5271ff" d="M 105.054688 249.125 L 139.835938 249.125 L 139.835938 162.925781 L 129.378906 162.925781 C 115.945312 162.925781 105.054688 173.824219 105.054688 187.261719 Z M 105.054688 249.125 " fill-opacity="1" fill-rule="nonzero"/><path fill="#d9d9d9" d="M 156.488281 329.058594 C 156.488281 342.359375 202.359375 344.589844 202.359375 329.058594 L 202.359375 292.347656 L 156.488281 292.347656 Z M 156.488281 329.058594 " fill-opacity="1" fill-rule="nonzero"/><path fill="#5271ff" d="M 180.75 340.898438 C 174.539062 340.898438 168.355469 339.84375 163.78125 338 C 158.347656 335.8125 155.476562 332.722656 155.476562 329.058594 L 155.476562 292.347656 C 155.476562 291.789062 155.929688 291.335938 156.488281 291.335938 L 202.359375 291.335938 C 202.917969 291.335938 203.371094 291.789062 203.371094 292.347656 L 203.371094 329.058594 C 203.371094 332.941406 200.851562 336.101562 196.089844 338.199219 C 192.136719 339.941406 186.6875 340.898438 180.75 340.898438 Z M 157.5 293.359375 L 157.5 329.058594 C 157.5 332.742188 161.910156 335.066406 164.535156 336.125 C 168.878906 337.871094 174.789062 338.875 180.75 338.875 C 186.414062 338.875 191.574219 337.976562 195.273438 336.347656 C 199.304688 334.570312 201.347656 332.121094 201.347656 329.058594 L 201.347656 293.359375 Z M 157.5 293.359375 " fill-opacity="1" fill-rule="nonzero"/><path fill="#d9d9d9" d="M 165.699219 298.691406 C 180.648438 301.589844 196.203125 301.550781 210.511719 298.917969 C 228.128906 295.671875 240.886719 280.257812 240.886719 262.339844 L 240.886719 210.5 C 240.886719 189.953125 224.238281 173.296875 203.699219 173.296875 L 172.96875 173.296875 C 152.429688 173.296875 135.78125 189.953125 135.78125 210.5 L 135.78125 262.203125 C 135.78125 279.945312 148.285156 295.316406 165.699219 298.691406 Z M 165.699219 298.691406 " fill-opacity="1" fill-rule="nonzero"/><path fill="#5271ff" d="M 188.730469 301.894531 C 180.921875 301.894531 173.105469 301.15625 165.503906 299.683594 C 147.695312 296.234375 134.769531 280.472656 134.769531 262.203125 L 134.769531 210.5 C 134.769531 189.429688 151.90625 172.285156 172.96875 172.285156 L 203.703125 172.285156 C 224.761719 172.285156 241.898438 189.429688 241.898438 210.5 L 241.898438 262.339844 C 241.898438 280.78125 228.777344 296.582031 210.695312 299.910156 C 203.511719 301.234375 196.125 301.894531 188.730469 301.894531 Z M 172.96875 174.308594 C 153.023438 174.308594 136.792969 190.546875 136.792969 210.5 L 136.792969 262.203125 C 136.792969 279.503906 149.03125 294.429688 165.890625 297.699219 C 180.4375 300.515625 195.804688 300.59375 210.328125 297.921875 C 227.449219 294.769531 239.875 279.804688 239.875 262.339844 L 239.875 210.5 C 239.875 190.546875 223.648438 174.308594 203.699219 174.308594 Z M 172.96875 174.308594 " fill-opacity="1" fill-rule="nonzero"/><path fill="#d9d9d9" d="M 171.375 300.726562 C 181.640625 302.199219 192.078125 302.332031 202.101562 301.226562 " fill-opacity="1" fill-rule="nonzero"/><path fill="#5271ff" d="M 188.707031 302.972656 C 182.859375 302.972656 177.019531 302.558594 171.230469 301.726562 C 170.679688 301.648438 170.292969 301.136719 170.375 300.582031 C 170.453125 300.03125 170.964844 299.644531 171.519531 299.726562 C 181.59375 301.171875 191.847656 301.339844 201.992188 300.222656 C 202.546875 300.160156 203.046875 300.5625 203.105469 301.117188 C 203.167969 301.671875 202.765625 302.171875 202.210938 302.234375 C 197.722656 302.726562 193.214844 302.972656 188.707031 302.972656 Z M 188.707031 302.972656 " fill-opacity="1" fill-rule="nonzero"/><path fill="#d9d9d9" d="M 157.171875 297.007812 C 159.84375 298.25 162.699219 299.1875 165.699219 299.769531 " fill-opacity="1" fill-rule="nonzero"/><path fill="#5271ff" d="M 165.699219 300.78125 C 165.636719 300.78125 165.570312 300.777344 165.503906 300.765625 C 162.476562 300.175781 159.527344 299.222656 156.746094 297.925781 C 156.238281 297.6875 156.019531 297.085938 156.257812 296.578125 C 156.492188 296.074219 157.09375 295.855469 157.601562 296.089844 C 160.234375 297.316406 163.023438 298.222656 165.890625 298.777344 C 166.4375 298.882812 166.796875 299.414062 166.691406 299.964844 C 166.597656 300.445312 166.171875 300.78125 165.699219 300.78125 Z M 165.699219 300.78125 " fill-opacity="1" fill-rule="nonzero"/><path fill="#d9d9d9" d="M 138.277344 254.265625 L 125.429688 254.265625 C 115.441406 254.265625 107.339844 246.164062 107.339844 236.167969 C 107.339844 226.175781 115.441406 218.078125 125.429688 218.078125 L 138.277344 218.078125 " fill-opacity="1" fill-rule="nonzero"/><path fill="#5271ff" d="M 138.277344 255.277344 L 125.429688 255.277344 C 114.898438 255.277344 106.328125 246.707031 106.328125 236.167969 C 106.328125 225.636719 114.898438 217.066406 125.429688 217.066406 L 138.277344 217.066406 C 138.835938 217.066406 139.289062 217.519531 139.289062 218.078125 C 139.289062 218.636719 138.835938 219.089844 138.277344 219.089844 L 125.429688 219.089844 C 116.011719 219.089844 108.351562 226.75 108.351562 236.167969 C 108.351562 245.589844 116.011719 253.253906 125.429688 253.253906 L 138.277344 253.253906 C 138.835938 253.253906 139.289062 253.707031 139.289062 254.265625 C 139.289062 254.824219 138.835938 255.277344 138.277344 255.277344 Z M 138.277344 255.277344 " fill-opacity="1" fill-rule="nonzero"/><path fill="#5271ff" d="M 127.042969 246.535156 L 125.429688 246.535156 C 119.714844 246.535156 115.066406 241.886719 115.066406 236.167969 C 115.066406 230.457031 119.714844 225.808594 125.429688 225.808594 L 127.042969 225.808594 C 127.601562 225.808594 128.054688 226.261719 128.054688 226.820312 C 128.054688 227.378906 127.601562 227.832031 127.042969 227.832031 L 125.429688 227.832031 C 120.832031 227.832031 117.089844 231.570312 117.089844 236.167969 C 117.089844 240.769531 120.832031 244.511719 125.429688 244.511719 L 127.042969 244.511719 C 127.601562 244.511719 128.054688 244.964844 128.054688 245.523438 C 128.054688 246.082031 127.601562 246.535156 127.042969 246.535156 Z M 127.042969 246.535156 " fill-opacity="1" fill-rule="nonzero"/><path fill="#5271ff" d="M 227.777344 231.152344 C 227.777344 231.609375 227.734375 232.0625 227.644531 232.515625 C 227.554688 232.964844 227.421875 233.402344 227.246094 233.824219 C 227.070312 234.25 226.855469 234.652344 226.601562 235.035156 C 226.34375 235.417969 226.054688 235.769531 225.730469 236.09375 C 225.40625 236.417969 225.054688 236.707031 224.671875 236.964844 C 224.289062 237.21875 223.886719 237.433594 223.464844 237.609375 C 223.039062 237.785156 222.601562 237.917969 222.152344 238.007812 C 221.703125 238.097656 221.25 238.140625 220.789062 238.140625 C 220.332031 238.140625 219.875 238.097656 219.425781 238.007812 C 218.976562 237.917969 218.539062 237.785156 218.117188 237.609375 C 217.691406 237.433594 217.289062 237.21875 216.90625 236.964844 C 216.527344 236.707031 216.171875 236.417969 215.847656 236.09375 C 215.523438 235.769531 215.234375 235.417969 214.980469 235.035156 C 214.722656 234.652344 214.507812 234.25 214.332031 233.824219 C 214.15625 233.402344 214.027344 232.964844 213.9375 232.515625 C 213.847656 232.0625 213.800781 231.609375 213.800781 231.152344 C 213.800781 230.691406 213.847656 230.238281 213.9375 229.785156 C 214.027344 229.335938 214.15625 228.898438 214.332031 228.476562 C 214.507812 228.050781 214.722656 227.648438 214.980469 227.265625 C 215.234375 226.886719 215.523438 226.53125 215.847656 226.207031 C 216.171875 225.882812 216.527344 225.59375 216.90625 225.335938 C 217.289062 225.082031 217.691406 224.867188 218.117188 224.691406 C 218.539062 224.515625 218.976562 224.382812 219.425781 224.292969 C 219.875 224.203125 220.332031 224.160156 220.789062 224.160156 C 221.25 224.160156 221.703125 224.203125 222.152344 224.292969 C 222.601562 224.382812 223.039062 224.515625 223.464844 224.691406 C 223.886719 224.867188 224.289062 225.082031 224.671875 225.335938 C 225.054688 225.59375 225.40625 225.882812 225.730469 226.207031 C 226.054688 226.53125 226.34375 226.886719 226.601562 227.265625 C 226.855469 227.648438 227.070312 228.050781 227.246094 228.476562 C 227.421875 228.898438 227.554688 229.335938 227.644531 229.785156 C 227.734375 230.238281 227.777344 230.691406 227.777344 231.152344 Z M 227.777344 231.152344 " fill-opacity="1" fill-rule="nonzero"/><path fill="#d9d9d9" d="M 213.800781 235.160156 L 227.777344 235.160156 L 227.777344 238.746094 L 213.800781 238.746094 Z M 213.800781 235.160156 " fill-opacity="1" fill-rule="nonzero"/><path fill="#5271ff" d="M 184.847656 231.152344 C 184.847656 231.609375 184.800781 232.0625 184.710938 232.515625 C 184.625 232.964844 184.492188 233.402344 184.316406 233.824219 C 184.140625 234.25 183.925781 234.652344 183.667969 235.035156 C 183.414062 235.417969 183.125 235.769531 182.800781 236.09375 C 182.476562 236.417969 182.121094 236.707031 181.742188 236.964844 C 181.359375 237.21875 180.957031 237.433594 180.535156 237.609375 C 180.109375 237.785156 179.671875 237.917969 179.222656 238.007812 C 178.773438 238.097656 178.316406 238.140625 177.859375 238.140625 C 177.398438 238.140625 176.945312 238.097656 176.496094 238.007812 C 176.046875 237.917969 175.609375 237.785156 175.183594 237.609375 C 174.761719 237.433594 174.359375 237.21875 173.976562 236.964844 C 173.59375 236.707031 173.242188 236.417969 172.917969 236.09375 C 172.59375 235.769531 172.304688 235.417969 172.050781 235.035156 C 171.792969 234.652344 171.578125 234.25 171.402344 233.824219 C 171.226562 233.402344 171.09375 232.964844 171.003906 232.515625 C 170.914062 232.0625 170.871094 231.609375 170.871094 231.152344 C 170.871094 230.691406 170.914062 230.238281 171.003906 229.785156 C 171.09375 229.335938 171.226562 228.898438 171.402344 228.476562 C 171.578125 228.050781 171.792969 227.648438 172.050781 227.265625 C 172.304688 226.886719 172.59375 226.53125 172.917969 226.207031 C 173.242188 225.882812 173.59375 225.59375 173.976562 225.335938 C 174.359375 225.082031 174.761719 224.867188 175.183594 224.691406 C 175.609375 224.515625 176.046875 224.382812 176.496094 224.292969 C 176.945312 224.203125 177.398438 224.160156 177.859375 224.160156 C 178.316406 224.160156 178.773438 224.203125 179.222656 224.292969 C 179.671875 224.382812 180.109375 224.515625 180.535156 224.691406 C 180.957031 224.867188 181.359375 225.082031 181.742188 225.335938 C 182.121094 225.59375 182.476562 225.882812 182.800781 226.207031 C 183.125 226.53125 183.414062 226.886719 183.667969 227.265625 C 183.925781 227.648438 184.140625 228.050781 184.316406 228.476562 C 184.492188 228.898438 184.625 229.335938 184.710938 229.785156 C 184.800781 230.238281 184.847656 230.691406 184.847656 231.152344 Z M 184.847656 231.152344 " fill-opacity="1" fill-rule="nonzero"/><path fill="#d9d9d9" d="M 170.871094 235.160156 L 184.847656 235.160156 L 184.847656 238.746094 L 170.871094 238.746094 Z M 170.871094 235.160156 " fill-opacity="1" fill-rule="nonzero"/><path fill="#5271ff" d="M 227.777344 234.148438 L 213.800781 234.148438 C 213.242188 234.148438 212.789062 234.601562 212.789062 235.160156 C 212.789062 235.71875 213.242188 236.171875 213.800781 236.171875 L 227.777344 236.171875 C 228.335938 236.171875 228.789062 235.71875 228.789062 235.160156 C 228.789062 234.601562 228.335938 234.148438 227.777344 234.148438 Z M 227.777344 234.148438 " fill-opacity="1" fill-rule="nonzero"/><path fill="#d9d9d9" d="M 227.777344 236.480469 L 213.800781 236.480469 C 213.074219 236.480469 212.480469 235.886719 212.480469 235.160156 C 212.480469 234.429688 213.074219 233.839844 213.800781 233.839844 L 227.777344 233.839844 C 228.507812 233.839844 229.097656 234.429688 229.097656 235.160156 C 229.097656 235.886719 228.503906 236.480469 227.777344 236.480469 Z M 213.800781 234.457031 C 213.414062 234.457031 213.097656 234.773438 213.097656 235.160156 C 213.097656 235.546875 213.414062 235.863281 213.800781 235.863281 L 227.777344 235.863281 C 228.164062 235.863281 228.480469 235.546875 228.480469 235.160156 C 228.480469 234.773438 228.164062 234.457031 227.777344 234.457031 Z M 213.800781 234.457031 " fill-opacity="1" fill-rule="nonzero"/><path fill="#5271ff" d="M 184.847656 234.148438 L 170.871094 234.148438 C 170.3125 234.148438 169.859375 234.601562 169.859375 235.160156 C 169.859375 235.71875 170.3125 236.171875 170.871094 236.171875 L 184.847656 236.171875 C 185.40625 236.171875 185.859375 235.71875 185.859375 235.160156 C 185.859375 234.601562 185.40625 234.148438 184.847656 234.148438 Z M 184.847656 234.148438 " fill-opacity="1" fill-rule="nonzero"/><path fill="#d9d9d9" d="M 184.847656 236.480469 L 170.871094 236.480469 C 170.144531 236.480469 169.550781 235.886719 169.550781 235.160156 C 169.550781 234.429688 170.144531 233.839844 170.871094 233.839844 L 184.847656 233.839844 C 185.574219 233.839844 186.167969 234.429688 186.167969 235.160156 C 186.167969 235.886719 185.574219 236.480469 184.847656 236.480469 Z M 170.871094 234.457031 C 170.484375 234.457031 170.167969 234.773438 170.167969 235.160156 C 170.167969 235.546875 170.484375 235.863281 170.871094 235.863281 L 184.847656 235.863281 C 185.234375 235.863281 185.550781 235.546875 185.550781 235.160156 C 185.550781 234.773438 185.234375 234.457031 184.847656 234.457031 Z M 170.871094 234.457031 " fill-opacity="1" fill-rule="nonzero"/><path fill="#5271ff" d="M 166.472656 219.464844 L 187.628906 216.933594 C 190.234375 216.621094 192.09375 214.253906 191.785156 211.644531 C 191.472656 209.039062 189.105469 207.175781 186.5 207.488281 L 165.339844 210.019531 C 162.734375 210.332031 160.875 212.699219 161.183594 215.308594 C 161.496094 217.917969 163.863281 219.777344 166.472656 219.464844 Z M 166.472656 219.464844 " fill-opacity="1" fill-rule="nonzero"/><path fill="#5271ff" d="M 213.378906 207.488281 L 234.535156 210.019531 C 237.144531 210.332031 239.003906 212.699219 238.691406 215.308594 C 238.378906 217.917969 236.015625 219.777344 233.40625 219.464844 L 212.25 216.933594 C 209.644531 216.621094 207.78125 214.253906 208.09375 211.644531 C 208.40625 209.039062 210.773438 207.175781 213.378906 207.488281 Z M 213.378906 207.488281 " fill-opacity="1" fill-rule="nonzero"/><path fill="#d9d9d9" d="M 201.257812 231.851562 C 201.257812 231.851562 205.453125 242.96875 205.453125 255.277344 L 196.574219 255.277344 " fill-opacity="1" fill-rule="nonzero"/><path fill="#5271ff" d="M 205.453125 256.289062 L 196.574219 256.289062 C 196.015625 256.289062 195.5625 255.835938 195.5625 255.277344 C 195.5625 254.71875 196.015625 254.265625 196.574219 254.265625 L 204.433594 254.265625 C 204.214844 242.695312 200.351562 232.316406 200.3125 232.207031 C 200.113281 231.6875 200.378906 231.101562 200.902344 230.90625 C 201.421875 230.707031 202.007812 230.972656 202.203125 231.496094 C 202.378906 231.957031 206.464844 242.925781 206.464844 255.277344 C 206.464844 255.835938 206.011719 256.289062 205.453125 256.289062 Z M 205.453125 256.289062 " fill-opacity="1" fill-rule="nonzero"/><path fill="#5271ff" d="M 186.835938 265.074219 C 186.183594 269.199219 186.390625 278.121094 193.785156 279.199219 C 201.179688 280.28125 204.371094 272.078125 205.023438 267.953125 " fill-opacity="1" fill-rule="nonzero"/><path fill="#5271ff" d="M 204.023438 267.226562 C 203.171875 264.539062 200.175781 262.796875 197.136719 262.316406 C 194.574219 261.914062 190.636719 262.378906 188.550781 264.777344 " fill-opacity="1" fill-rule="nonzero"/><path fill="#d9d9d9" d="M 185.566406 268.097656 C 186.574219 270.992188 188.988281 274.582031 194.785156 275.5 C 204.878906 277.097656 207.726562 267.8125 207.726562 267.8125 L 184.847656 264.191406 C 184.847656 264.191406 184.820312 265.953125 185.566406 268.097656 " fill-opacity="1" fill-rule="nonzero"/><path fill="#5271ff" d="M 197.039062 276.695312 C 196.28125 276.695312 195.480469 276.632812 194.625 276.5 C 188.324219 275.503906 185.699219 271.5625 184.609375 268.433594 C 183.8125 266.144531 183.835938 264.253906 183.835938 264.175781 C 183.839844 263.882812 183.972656 263.605469 184.195312 263.417969 C 184.421875 263.226562 184.714844 263.144531 185.003906 263.191406 L 207.882812 266.8125 C 208.171875 266.859375 208.429688 267.027344 208.582031 267.277344 C 208.738281 267.523438 208.777344 267.828125 208.691406 268.109375 C 208.660156 268.210938 207.886719 270.679688 205.78125 272.945312 C 204.109375 274.742188 201.308594 276.695312 197.039062 276.695312 Z M 186.519531 267.765625 C 187.429688 270.375 189.628906 273.660156 194.941406 274.5 C 202.09375 275.632812 205.246094 270.859375 206.3125 268.613281 L 185.953125 265.390625 C 186.039062 266.023438 186.207031 266.859375 186.519531 267.765625 Z M 186.519531 267.765625 " fill-opacity="1" fill-rule="nonzero"/><path fill="#d9d9d9" d="M 169.523438 242.167969 L 173.027344 249.265625 " fill-opacity="1" fill-rule="nonzero"/><path fill="#5271ff" d="M 173.027344 250.277344 C 172.65625 250.277344 172.296875 250.070312 172.121094 249.714844 L 168.617188 242.613281 C 168.371094 242.113281 168.574219 241.507812 169.074219 241.257812 C 169.578125 241.011719 170.183594 241.21875 170.429688 241.71875 L 173.933594 248.816406 C 174.183594 249.320312 173.976562 249.925781 173.476562 250.171875 C 173.332031 250.242188 173.179688 250.277344 173.027344 250.277344 Z M 173.027344 250.277344 " fill-opacity="1" fill-rule="nonzero"/><path fill="#d9d9d9" d="M 165.140625 242.167969 L 168.644531 249.265625 " fill-opacity="1" fill-rule="nonzero"/><path fill="#5271ff" d="M 168.644531 250.277344 C 168.273438 250.277344 167.914062 250.070312 167.738281 249.714844 L 164.234375 242.613281 C 163.984375 242.113281 164.191406 241.507812 164.691406 241.257812 C 165.191406 241.011719 165.800781 241.21875 166.046875 241.71875 L 169.550781 248.816406 C 169.796875 249.320312 169.59375 249.925781 169.089844 250.171875 C 168.949219 250.242188 168.796875 250.277344 168.644531 250.277344 Z M 168.644531 250.277344 " fill-opacity="1" fill-rule="nonzero"/><path fill="#d9d9d9" d="M 160.757812 242.167969 L 164.261719 249.265625 " fill-opacity="1" fill-rule="nonzero"/><path fill="#5271ff" d="M 164.261719 250.277344 C 163.886719 250.277344 163.53125 250.070312 163.351562 249.714844 L 159.847656 242.613281 C 159.601562 242.113281 159.808594 241.507812 160.308594 241.257812 C 160.808594 241.011719 161.417969 241.21875 161.664062 241.71875 L 165.167969 248.816406 C 165.414062 249.320312 165.207031 249.925781 164.707031 250.171875 C 164.5625 250.242188 164.410156 250.277344 164.261719 250.277344 Z M 164.261719 250.277344 " fill-opacity="1" fill-rule="nonzero"/><path fill="#d9d9d9" d="M 225.144531 242.167969 L 221.640625 249.265625 " fill-opacity="1" fill-rule="nonzero"/><path fill="#5271ff" d="M 221.640625 250.277344 C 221.492188 250.277344 221.339844 250.242188 221.195312 250.171875 C 220.691406 249.925781 220.488281 249.320312 220.734375 248.816406 L 224.238281 241.71875 C 224.488281 241.21875 225.09375 241.011719 225.59375 241.257812 C 226.09375 241.507812 226.300781 242.113281 226.054688 242.613281 L 222.546875 249.714844 C 222.371094 250.070312 222.015625 250.277344 221.640625 250.277344 Z M 221.640625 250.277344 " fill-opacity="1" fill-rule="nonzero"/><path fill="#d9d9d9" d="M 229.53125 242.167969 L 226.027344 249.265625 " fill-opacity="1" fill-rule="nonzero"/><path fill="#5271ff" d="M 226.023438 250.277344 C 225.875 250.277344 225.722656 250.242188 225.578125 250.171875 C 225.078125 249.925781 224.871094 249.320312 225.117188 248.816406 L 228.621094 241.71875 C 228.871094 241.21875 229.476562 241.011719 229.976562 241.257812 C 230.476562 241.507812 230.683594 242.113281 230.4375 242.613281 L 226.933594 249.714844 C 226.757812 250.070312 226.398438 250.277344 226.023438 250.277344 Z M 226.023438 250.277344 " fill-opacity="1" fill-rule="nonzero"/><path fill="#d9d9d9" d="M 233.914062 242.167969 L 230.410156 249.265625 " fill-opacity="1" fill-rule="nonzero"/><path fill="#5271ff" d="M 230.410156 250.277344 C 230.257812 250.277344 230.105469 250.242188 229.960938 250.171875 C 229.460938 249.925781 229.253906 249.320312 229.503906 248.816406 L 233.007812 241.71875 C 233.253906 241.21875 233.859375 241.011719 234.359375 241.257812 C 234.863281 241.507812 235.066406 242.113281 234.820312 242.613281 L 231.316406 249.714844 C 231.140625 250.070312 230.78125 250.277344 230.410156 250.277344 Z M 230.410156 250.277344 " fill-opacity="1" fill-rule="nonzero"/><path fill="#d9d9d9" d="M 130.0625 270.53125 C 130.0625 271.152344 130 271.765625 129.878906 272.371094 C 129.757812 272.980469 129.578125 273.570312 129.34375 274.144531 C 129.105469 274.714844 128.816406 275.257812 128.472656 275.773438 C 128.125 276.289062 127.734375 276.765625 127.296875 277.203125 C 126.859375 277.644531 126.382812 278.035156 125.867188 278.378906 C 125.351562 278.722656 124.808594 279.011719 124.238281 279.25 C 123.664062 279.488281 123.074219 279.667969 122.46875 279.789062 C 121.859375 279.910156 121.246094 279.96875 120.625 279.96875 C 120.007812 279.96875 119.394531 279.910156 118.785156 279.789062 C 118.179688 279.667969 117.589844 279.488281 117.015625 279.25 C 116.445312 279.011719 115.898438 278.722656 115.386719 278.378906 C 114.871094 278.035156 114.394531 277.644531 113.957031 277.203125 C 113.519531 276.765625 113.125 276.289062 112.78125 275.773438 C 112.4375 275.257812 112.148438 274.714844 111.910156 274.144531 C 111.671875 273.570312 111.496094 272.980469 111.375 272.371094 C 111.253906 271.765625 111.191406 271.152344 111.191406 270.53125 C 111.191406 269.910156 111.253906 269.296875 111.375 268.691406 C 111.496094 268.082031 111.671875 267.492188 111.910156 266.917969 C 112.148438 266.347656 112.4375 265.800781 112.78125 265.285156 C 113.125 264.773438 113.519531 264.296875 113.957031 263.855469 C 114.394531 263.417969 114.871094 263.027344 115.386719 262.683594 C 115.898438 262.339844 116.445312 262.046875 117.015625 261.8125 C 117.589844 261.574219 118.179688 261.394531 118.785156 261.273438 C 119.394531 261.152344 120.007812 261.09375 120.625 261.09375 C 121.246094 261.09375 121.859375 261.152344 122.46875 261.273438 C 123.074219 261.394531 123.664062 261.574219 124.238281 261.8125 C 124.808594 262.046875 125.351562 262.339844 125.867188 262.683594 C 126.382812 263.027344 126.859375 263.417969 127.296875 263.855469 C 127.734375 264.296875 128.125 264.773438 128.472656 265.289062 C 128.816406 265.800781 129.105469 266.347656 129.34375 266.917969 C 129.578125 267.492188 129.757812 268.082031 129.878906 268.691406 C 130 269.296875 130.0625 269.910156 130.0625 270.53125 Z M 130.0625 270.53125 " fill-opacity="1" fill-rule="nonzero"/><path fill="#5271ff" d="M 747.695312 136.628906 C 745.644531 127.582031 741.324219 119.539062 734.738281 112.503906 C 728.148438 105.464844 719.5 100.175781 708.789062 96.640625 C 695.96875 92.40625 683.953125 91.726562 672.75 94.597656 C 661.542969 97.46875 651.921875 102.890625 643.894531 110.859375 L 660.523438 141.472656 C 665.589844 136.480469 671.1875 133.015625 677.316406 131.082031 C 683.441406 129.144531 689.425781 129.136719 695.269531 131.066406 C 699.328125 132.40625 702.535156 134.277344 704.894531 136.675781 C 707.253906 139.074219 708.8125 141.84375 709.578125 144.976562 C 710.347656 148.113281 710.113281 151.546875 708.882812 155.277344 C 707.703125 158.847656 705.859375 161.707031 703.351562 163.851562 C 700.84375 165.996094 697.808594 167.289062 694.242188 167.730469 C 690.679688 168.175781 686.863281 167.722656 682.808594 166.386719 L 672.339844 162.929688 L 658.941406 210.085938 L 688.398438 219.816406 L 696.40625 200.695312 C 701.371094 200.554688 706.207031 199.863281 710.910156 198.625 C 719.089844 196.464844 726.199219 192.644531 732.238281 187.164062 C 738.273438 181.6875 742.902344 174.074219 746.117188 164.332031 C 749.222656 154.914062 749.75 145.679688 747.695312 136.628906 Z M 747.695312 136.628906 " fill-opacity="1" fill-rule="nonzero"/><path fill="#5271ff" d="M 667.203125 234.964844 C 660.707031 232.820312 654.640625 233.207031 649.003906 236.113281 C 643.363281 239.019531 639.476562 243.722656 637.332031 250.21875 C 635.296875 256.386719 635.664062 262.359375 638.4375 268.136719 C 641.210938 273.914062 645.839844 277.875 652.335938 280.019531 C 658.828125 282.164062 664.867188 281.726562 670.449219 278.707031 C 676.035156 275.691406 679.847656 271.097656 681.882812 264.929688 C 684.023438 258.433594 683.734375 252.351562 681.015625 246.683594 C 678.296875 241.015625 673.691406 237.109375 667.203125 234.964844 Z M 667.203125 234.964844 " fill-opacity="1" fill-rule="nonzero"/><path fill="#d9d9d9" d="M 375.816406 103.613281 C 375.816406 74.402344 351.941406 50.769531 322.644531 51.179688 C 294.453125 51.574219 271.433594 74.558594 270.984375 102.761719 C 270.726562 118.902344 277.765625 133.40625 289.011719 143.195312 C 298.214844 151.203125 303.679688 162.675781 303.679688 174.882812 L 303.679688 175.078125 L 343.113281 175.078125 L 343.113281 174.882812 C 343.113281 162.855469 348.246094 151.332031 357.390625 143.53125 C 368.664062 133.914062 375.816406 119.597656 375.816406 103.613281 Z M 375.816406 103.613281 " fill-opacity="1" fill-rule="nonzero"/><path fill="#5271ff" d="M 343.113281 176.09375 L 303.679688 176.09375 C 303.121094 176.09375 302.667969 175.640625 302.667969 175.078125 L 302.667969 174.882812 C 302.667969 163.148438 297.449219 151.878906 288.347656 143.957031 C 276.417969 133.578125 269.722656 118.554688 269.972656 102.746094 C 270.195312 88.839844 275.777344 75.730469 285.695312 65.824219 C 295.617188 55.921875 308.730469 50.359375 322.632812 50.167969 C 337.058594 49.96875 350.648438 55.429688 360.910156 65.550781 C 371.171875 75.675781 376.824219 89.195312 376.824219 103.613281 C 376.824219 119.289062 369.980469 134.117188 358.046875 144.300781 C 349.199219 151.851562 344.121094 162.996094 344.121094 174.882812 L 344.121094 175.078125 C 344.121094 175.640625 343.671875 176.09375 343.113281 176.09375 Z M 304.683594 174.066406 L 342.109375 174.066406 C 342.335938 161.894531 347.636719 150.523438 356.734375 142.761719 C 368.21875 132.964844 374.804688 118.695312 374.804688 103.613281 C 374.804688 89.742188 369.363281 76.734375 359.488281 66.992188 C 349.617188 57.253906 336.539062 52 322.660156 52.191406 C 295.160156 52.574219 272.433594 75.269531 271.996094 102.777344 C 271.753906 117.992188 278.195312 132.445312 289.675781 142.429688 C 299.007812 150.550781 304.449219 162.042969 304.683594 174.066406 Z M 304.683594 174.066406 " fill-opacity="1" fill-rule="nonzero"/><path fill="#d9d9d9" d="M 288.324219 82.433594 C 295.226562 70.722656 307.609375 62.210938 323.394531 62.339844 M 282.257812 103.734375 C 282.332031 99.769531 282.96875 95.824219 284.121094 92.03125 " fill-opacity="1" fill-rule="nonzero"/><path fill="#5271ff" d="M 282.257812 104.746094 C 282.253906 104.746094 282.246094 104.746094 282.242188 104.746094 C 281.679688 104.734375 281.238281 104.273438 281.246094 103.714844 C 281.324219 99.691406 281.964844 95.660156 283.152344 91.738281 C 283.3125 91.203125 283.878906 90.902344 284.414062 91.066406 C 284.945312 91.226562 285.25 91.792969 285.085938 92.328125 C 283.953125 96.070312 283.339844 99.914062 283.269531 103.753906 C 283.261719 104.304688 282.808594 104.746094 282.257812 104.746094 Z M 288.324219 83.449219 C 288.152344 83.449219 287.972656 83.402344 287.8125 83.308594 C 287.332031 83.023438 287.171875 82.402344 287.453125 81.921875 C 291.082031 75.765625 296.113281 70.632812 302.007812 67.078125 C 308.339844 63.261719 315.414062 61.324219 323.035156 61.324219 C 323.160156 61.324219 323.28125 61.324219 323.40625 61.328125 C 323.960938 61.332031 324.410156 61.789062 324.40625 62.347656 C 324.402344 62.902344 323.949219 63.351562 323.394531 63.351562 C 323.394531 63.351562 323.390625 63.351562 323.386719 63.351562 C 323.273438 63.347656 323.15625 63.347656 323.042969 63.347656 C 308.867188 63.347656 296.542969 70.476562 289.195312 82.949219 C 289.007812 83.269531 288.671875 83.449219 288.324219 83.449219 Z M 288.324219 83.449219 " fill-opacity="1" fill-rule="nonzero"/><path fill="#d9d9d9" d="M 315.597656 177.136719 L 307.847656 105.355469 C 307.394531 101.152344 302.214844 99.433594 299.339844 102.527344 C 296.410156 105.679688 298.644531 110.8125 302.949219 110.8125 L 343.84375 110.8125 C 348.148438 110.8125 350.382812 105.679688 347.453125 102.527344 C 344.578125 99.433594 339.398438 101.152344 338.945312 105.355469 L 331.195312 177.136719 " fill-opacity="1" fill-rule="nonzero"/><path fill="#5271ff" d="M 331.195312 178.148438 C 331.160156 178.148438 331.125 178.144531 331.085938 178.144531 C 330.53125 178.082031 330.128906 177.582031 330.191406 177.027344 L 337.230469 111.824219 L 309.5625 111.824219 L 316.601562 177.027344 C 316.664062 177.582031 316.261719 178.082031 315.707031 178.144531 C 315.148438 178.203125 314.652344 177.800781 314.589844 177.246094 L 307.527344 111.824219 L 302.949219 111.824219 C 300.550781 111.824219 298.464844 110.457031 297.503906 108.257812 C 296.546875 106.054688 296.964844 103.597656 298.597656 101.839844 C 300.203125 100.113281 302.585938 99.503906 304.820312 100.246094 C 307.054688 100.988281 308.601562 102.902344 308.851562 105.246094 L 309.34375 109.800781 L 337.449219 109.800781 L 337.941406 105.246094 C 338.191406 102.902344 339.738281 100.988281 341.972656 100.246094 C 344.207031 99.503906 346.589844 100.113281 348.195312 101.839844 C 349.828125 103.597656 350.246094 106.054688 349.289062 108.257812 C 348.328125 110.457031 346.242188 111.824219 343.84375 111.824219 L 339.265625 111.824219 L 332.203125 177.246094 C 332.144531 177.765625 331.707031 178.148438 331.195312 178.148438 Z M 339.480469 109.800781 L 343.84375 109.800781 C 345.734375 109.800781 346.9375 108.585938 347.433594 107.449219 C 347.929688 106.3125 348 104.601562 346.710938 103.214844 C 345.65625 102.078125 344.082031 101.675781 342.609375 102.164062 C 341.136719 102.65625 340.117188 103.917969 339.949219 105.460938 Z M 302.929688 101.960938 C 301.867188 101.960938 300.839844 102.398438 300.082031 103.214844 C 298.792969 104.601562 298.863281 106.3125 299.359375 107.449219 C 299.855469 108.585938 301.058594 109.800781 302.949219 109.800781 L 307.3125 109.800781 L 306.84375 105.460938 C 306.675781 103.917969 305.65625 102.65625 304.183594 102.164062 C 303.769531 102.027344 303.347656 101.960938 302.929688 101.960938 Z M 302.929688 101.960938 " fill-opacity="1" fill-rule="nonzero"/><path fill="#5271ff" d="M 346.386719 217.171875 L 300.40625 217.171875 C 297.898438 217.171875 295.863281 215.136719 295.863281 212.625 L 295.863281 179.730469 C 295.863281 177.21875 297.898438 175.183594 300.40625 175.183594 L 346.386719 175.183594 C 348.894531 175.183594 350.929688 177.21875 350.929688 179.730469 L 350.929688 212.625 C 350.929688 215.136719 348.894531 217.171875 346.386719 217.171875 Z M 346.386719 217.171875 " fill-opacity="1" fill-rule="nonzero"/><path fill="#d9d9d9" d="M 350.929688 192.074219 L 295.863281 192.074219 C 293.882812 192.074219 292.277344 190.46875 292.277344 188.488281 C 292.277344 186.507812 293.882812 184.902344 295.863281 184.902344 L 350.929688 184.902344 C 352.910156 184.902344 354.515625 186.507812 354.515625 188.488281 C 354.515625 190.46875 352.910156 192.074219 350.929688 192.074219 Z M 350.929688 192.074219 " fill-opacity="1" fill-rule="nonzero"/><path fill="#5271ff" d="M 350.929688 193.085938 L 295.863281 193.085938 C 293.328125 193.085938 291.265625 191.023438 291.265625 188.488281 C 291.265625 185.953125 293.328125 183.890625 295.863281 183.890625 L 350.929688 183.890625 C 353.464844 183.890625 355.527344 185.953125 355.527344 188.488281 C 355.527344 191.023438 353.464844 193.085938 350.929688 193.085938 Z M 295.863281 185.914062 C 294.445312 185.914062 293.289062 187.070312 293.289062 188.488281 C 293.289062 189.90625 294.445312 191.0625 295.863281 191.0625 L 350.929688 191.0625 C 352.347656 191.0625 353.503906 189.90625 353.503906 188.488281 C 353.503906 187.070312 352.347656 185.914062 350.929688 185.914062 Z M 295.863281 185.914062 " fill-opacity="1" fill-rule="nonzero"/><path fill="#d9d9d9" d="M 350.929688 207.453125 L 295.863281 207.453125 C 293.882812 207.453125 292.277344 205.847656 292.277344 203.867188 C 292.277344 201.886719 293.882812 200.28125 295.863281 200.28125 L 350.929688 200.28125 C 352.910156 200.28125 354.515625 201.886719 354.515625 203.867188 C 354.515625 205.847656 352.910156 207.453125 350.929688 207.453125 Z M 350.929688 207.453125 " fill-opacity="1" fill-rule="nonzero"/><path fill="#5271ff" d="M 350.929688 208.464844 L 295.863281 208.464844 C 293.328125 208.464844 291.265625 206.402344 291.265625 203.867188 C 291.265625 201.332031 293.328125 199.269531 295.863281 199.269531 L 350.929688 199.269531 C 353.464844 199.269531 355.527344 201.332031 355.527344 203.867188 C 355.527344 206.402344 353.464844 208.464844 350.929688 208.464844 Z M 295.863281 201.292969 C 294.445312 201.292969 293.289062 202.449219 293.289062 203.867188 C 293.289062 205.285156 294.445312 206.441406 295.863281 206.441406 L 350.929688 206.441406 C 352.347656 206.441406 353.503906 205.285156 353.503906 203.867188 C 353.503906 202.449219 352.347656 201.292969 350.929688 201.292969 Z M 295.863281 201.292969 " fill-opacity="1" fill-rule="nonzero"/></svg>