<svg xmlns="http://www.w3.org/2000/svg" xmlns:xlink="http://www.w3.org/1999/xlink" width="50" zoomAndPan="magnify" viewBox="0 0 37.5 37.499999" height="50" preserveAspectRatio="xMidYMid meet" version="1.0"><defs><clipPath id="d715c728e9"><path d="M 0 14.367188 L 37.007812 14.367188 L 37.007812 23.367188 L 0 23.367188 Z M 0 14.367188 " clip-rule="nonzero"/></clipPath></defs><g clip-path="url(#d715c728e9)"><path fill="#ffffff" d="M 37.476562 18.914062 C 37.164062 18.914062 36.851562 18.914062 36.542969 18.914062 C 36.449219 18.914062 36.386719 18.980469 36.355469 19.074219 C 36.261719 19.359375 36.164062 19.644531 36.066406 19.929688 C 35.925781 19.386719 35.785156 18.847656 35.644531 18.304688 C 35.605469 18.152344 35.425781 18.082031 35.324219 18.207031 C 35.136719 18.445312 34.953125 18.679688 34.765625 18.914062 C 34.308594 18.914062 33.851562 18.914062 33.394531 18.914062 C 33.1875 18.914062 33.019531 19.429688 32.9375 19.59375 C 32.875 19.71875 32.808594 19.84375 32.746094 19.964844 C 32.578125 19.4375 32.414062 18.90625 32.246094 18.375 C 32.199219 18.226562 32.03125 18.152344 31.925781 18.277344 C 31.75 18.492188 31.574219 18.703125 31.398438 18.914062 C 31.042969 18.914062 30.683594 18.914062 30.328125 18.914062 C 30.242188 18.914062 30.164062 18.980469 30.140625 19.074219 C 29.921875 20.023438 29.703125 20.96875 29.484375 21.917969 C 29.234375 19.886719 28.984375 17.855469 28.734375 15.828125 C 28.683594 15.414062 28.632812 15.003906 28.582031 14.589844 C 28.554688 14.367188 28.261719 14.398438 28.214844 14.589844 C 27.863281 16.03125 27.511719 17.472656 27.164062 18.914062 C 26.8125 18.914062 26.464844 18.914062 26.113281 18.914062 C 26.050781 18.914062 25.980469 18.953125 25.949219 19.023438 C 25.835938 19.269531 25.71875 19.515625 25.605469 19.765625 C 25.414062 19.207031 25.222656 18.648438 25.035156 18.09375 C 24.96875 17.90625 24.785156 17.882812 24.683594 18.039062 C 24.492188 18.332031 24.300781 18.621094 24.109375 18.914062 C 23.566406 18.914062 23.023438 18.914062 22.480469 18.914062 C 22.414062 18.914062 22.34375 18.953125 22.3125 19.023438 C 22.199219 19.269531 22.085938 19.519531 21.972656 19.769531 C 21.714844 19.054688 21.460938 18.34375 21.207031 17.628906 C 21.148438 17.464844 20.945312 17.394531 20.855469 17.578125 C 20.628906 18.046875 20.398438 18.515625 20.171875 18.988281 C 20.160156 18.984375 20.144531 18.980469 20.128906 18.980469 C 19.796875 18.980469 19.464844 18.980469 19.132812 18.980469 C 19.042969 18.980469 18.980469 19.050781 18.949219 19.140625 C 18.851562 19.425781 18.757812 19.710938 18.660156 19.996094 C 18.519531 19.453125 18.378906 18.914062 18.238281 18.371094 C 18.199219 18.222656 18.015625 18.148438 17.917969 18.277344 C 17.730469 18.511719 17.542969 18.746094 17.359375 18.980469 C 16.902344 18.980469 16.445312 18.980469 15.988281 18.980469 C 15.777344 18.980469 15.613281 19.496094 15.53125 19.660156 C 15.464844 19.785156 15.402344 19.910156 15.339844 20.035156 C 15.171875 19.503906 15.007812 18.972656 14.839844 18.441406 C 14.792969 18.292969 14.625 18.21875 14.519531 18.347656 C 14.34375 18.558594 14.167969 18.769531 13.992188 18.980469 C 13.632812 18.980469 13.277344 18.980469 12.917969 18.980469 C 12.835938 18.980469 12.757812 19.046875 12.734375 19.140625 C 12.515625 20.089844 12.296875 21.035156 12.078125 21.984375 C 11.828125 19.953125 11.578125 17.925781 11.328125 15.894531 C 11.277344 15.480469 11.226562 15.070312 11.175781 14.65625 C 11.148438 14.433594 10.851562 14.464844 10.804688 14.65625 C 10.457031 16.097656 10.105469 17.539062 9.757812 18.980469 C 9.40625 18.980469 9.058594 18.980469 8.707031 18.980469 C 8.640625 18.980469 8.574219 19.023438 8.542969 19.089844 C 8.425781 19.335938 8.3125 19.585938 8.199219 19.832031 C 8.007812 19.273438 7.816406 18.71875 7.625 18.160156 C 7.5625 17.976562 7.378906 17.953125 7.277344 18.109375 C 7.085938 18.398438 6.894531 18.691406 6.703125 18.980469 C 6.160156 18.980469 5.613281 18.980469 5.070312 18.980469 C 5.007812 18.980469 4.9375 19.023438 4.90625 19.089844 C 4.792969 19.339844 4.679688 19.589844 4.566406 19.835938 C 4.308594 19.125 4.054688 18.410156 3.796875 17.695312 C 3.738281 17.535156 3.535156 17.460938 3.449219 17.644531 C 3.21875 18.117188 2.992188 18.585938 2.765625 19.058594 C 1.855469 19.046875 0.945312 19.035156 0.0390625 19.023438 C 0.03125 19.023438 0.0273438 19.027344 0.0234375 19.027344 L 0.0234375 19.460938 C 0.0273438 19.460938 0.03125 19.460938 0.0390625 19.460938 C 0.984375 19.472656 1.929688 19.484375 2.875 19.496094 C 2.941406 19.496094 3.007812 19.453125 3.042969 19.386719 C 3.222656 19.011719 3.40625 18.636719 3.589844 18.257812 C 3.84375 18.976562 4.101562 19.695312 4.359375 20.410156 C 4.417969 20.570312 4.625 20.648438 4.710938 20.464844 C 4.867188 20.117188 5.027344 19.765625 5.1875 19.417969 C 5.683594 19.417969 6.179688 19.417969 6.675781 19.417969 C 6.765625 19.417969 6.863281 19.433594 6.929688 19.355469 C 6.996094 19.277344 7.050781 19.175781 7.105469 19.089844 C 7.199219 18.945312 7.292969 18.804688 7.386719 18.660156 C 7.589844 19.246094 7.789062 19.828125 7.988281 20.410156 C 8.042969 20.574219 8.25 20.648438 8.335938 20.464844 C 8.5 20.117188 8.660156 19.765625 8.824219 19.417969 C 9.183594 19.417969 9.542969 19.417969 9.902344 19.417969 C 9.988281 19.417969 10.0625 19.351562 10.085938 19.257812 C 10.367188 18.097656 10.648438 16.941406 10.929688 15.78125 C 11.183594 17.824219 11.433594 19.863281 11.683594 21.90625 C 11.734375 22.316406 11.785156 22.730469 11.835938 23.144531 C 11.867188 23.367188 12.160156 23.339844 12.207031 23.144531 C 12.492188 21.902344 12.78125 20.660156 13.066406 19.417969 C 13.394531 19.417969 13.71875 19.417969 14.042969 19.417969 C 14.203125 19.417969 14.300781 19.242188 14.402344 19.121094 C 14.460938 19.050781 14.519531 18.980469 14.582031 18.910156 C 14.757812 19.472656 14.9375 20.039062 15.113281 20.605469 C 15.167969 20.777344 15.375 20.832031 15.464844 20.660156 C 15.675781 20.246094 15.886719 19.832031 16.097656 19.417969 C 16.515625 19.417969 16.933594 19.417969 17.347656 19.417969 C 17.542969 19.417969 17.613281 19.308594 17.734375 19.15625 C 17.8125 19.058594 17.890625 18.960938 17.964844 18.863281 C 18.128906 19.484375 18.289062 20.109375 18.453125 20.730469 C 18.511719 20.949219 18.753906 20.925781 18.820312 20.730469 C 18.96875 20.292969 19.117188 19.855469 19.265625 19.417969 C 19.394531 19.417969 19.527344 19.417969 19.660156 19.417969 C 19.660156 19.417969 20.074219 19.425781 20.285156 19.429688 C 20.347656 19.429688 20.417969 19.386719 20.449219 19.320312 C 20.628906 18.945312 20.8125 18.566406 20.996094 18.191406 C 21.253906 18.910156 21.507812 19.625 21.765625 20.34375 C 21.824219 20.503906 22.03125 20.582031 22.117188 20.398438 C 22.277344 20.046875 22.433594 19.699219 22.59375 19.351562 C 23.089844 19.351562 23.585938 19.351562 24.082031 19.351562 C 24.171875 19.351562 24.269531 19.367188 24.335938 19.289062 C 24.40625 19.210938 24.457031 19.105469 24.511719 19.023438 C 24.609375 18.878906 24.703125 18.734375 24.796875 18.59375 C 24.996094 19.175781 25.195312 19.761719 25.394531 20.34375 C 25.449219 20.507812 25.660156 20.578125 25.742188 20.398438 C 25.90625 20.046875 26.066406 19.699219 26.230469 19.351562 C 26.589844 19.351562 26.949219 19.351562 27.308594 19.351562 C 27.394531 19.351562 27.46875 19.285156 27.492188 19.191406 C 27.773438 18.03125 28.054688 16.875 28.335938 15.714844 C 28.589844 17.757812 28.839844 19.796875 29.09375 21.839844 C 29.144531 22.25 29.195312 22.664062 29.246094 23.074219 C 29.273438 23.296875 29.570312 23.269531 29.613281 23.074219 C 29.902344 21.835938 30.1875 20.59375 30.472656 19.351562 C 30.800781 19.351562 31.125 19.351562 31.453125 19.351562 C 31.613281 19.351562 31.707031 19.175781 31.808594 19.054688 C 31.871094 18.984375 31.929688 18.914062 31.988281 18.839844 C 32.164062 19.40625 32.34375 19.972656 32.519531 20.539062 C 32.574219 20.710938 32.78125 20.765625 32.871094 20.589844 C 33.082031 20.175781 33.292969 19.765625 33.503906 19.351562 C 33.921875 19.351562 34.339844 19.351562 34.757812 19.351562 C 34.949219 19.351562 35.019531 19.242188 35.144531 19.085938 C 35.21875 18.992188 35.296875 18.894531 35.375 18.796875 C 35.535156 19.417969 35.699219 20.039062 35.859375 20.660156 C 35.917969 20.882812 36.164062 20.859375 36.226562 20.660156 C 36.375 20.226562 36.523438 19.789062 36.671875 19.351562 C 36.941406 19.351562 37.210938 19.351562 37.476562 19.351562 L 37.476562 18.914062 " fill-opacity="1" fill-rule="nonzero"/></g></svg>